<svg width="948" height="239" viewBox="0 0 948 239" fill="none" xmlns="http://www.w3.org/2000/svg">
<g clip-path="url(#clip0_2367_6692)">
<rect width="947.1" height="238.8" rx="10.8" fill="url(#paint0_radial_2367_6692)"/>
<g clip-path="url(#clip1_2367_6692)">
<path d="M-90.7422 375.236C68.299 323.828 190.411 381.607 336.466 438.878C415.329 469.787 495.092 494.856 579.122 469.302C703.703 431.422 784.896 328.237 887.886 256.47C1062.98 134.472 1120.46 395.157 1270.85 425.813C1334.86 438.855 1374.37 394.257 1429.18 372.489C1506.59 341.741 1577.66 394.072 1639.22 437.077" stroke="url(#paint1_linear_2367_6692)" stroke-width="0.9" stroke-miterlimit="10"/>
<path d="M-90.7422 343.937C-19.4908 316.768 50.0537 310.512 123.75 332.441C191.795 352.686 250.222 393.567 314.438 422.492C390.28 456.656 468.197 486.618 551.189 459.403C683.012 416.167 762.36 298.762 869.941 220.877C1044.14 94.7474 1094.81 363.605 1237.82 399.869C1310.23 418.221 1352.18 365.013 1413.75 340.682C1496.95 307.788 1574.68 369.191 1639.22 415.705" stroke="url(#paint2_linear_2367_6692)" stroke-width="0.9" stroke-miterlimit="10"/>
<path d="M-90.7422 313.721C-26.6183 284.658 37.275 275.609 104.997 298.324C171.705 320.692 225.887 367.783 287.335 400.377C358.817 438.304 432.375 476.369 514.629 452.085C652.542 411.411 739.109 279.556 846.136 194.239C1028.64 48.7412 1058.92 341.329 1208.44 375.008C1285.15 392.298 1332.92 330.595 1398.8 306.541C1487.42 274.201 1572.42 344.861 1639.2 394.306" stroke="url(#paint3_linear_2367_6692)" stroke-width="0.9" stroke-miterlimit="10"/>
<path d="M-90.7422 285.027C57.4579 205.387 146.47 299.593 267.175 375.723C335.728 418.959 409.54 468.982 493.547 441.143C629.591 396.06 719.088 260.512 822.217 170.369C888.786 112.198 952.517 98.694 1009.54 172.285C1058.99 236.089 1090.75 327.986 1178.75 346.476C1255.38 362.565 1309.49 299.408 1375.23 273.669C1471.97 235.766 1567.74 318.637 1639.22 372.953" stroke="url(#paint4_linear_2367_6692)" stroke-width="0.9" stroke-miterlimit="10"/>
<path d="M-90.7422 258.341C52.7986 168.06 142.249 261.804 255.458 346.891C315.845 392.274 384.213 455.131 465.798 433.825C515.46 420.851 559.493 383.987 597.414 351.438C670.303 288.904 730.805 215.128 800.004 149.062C866.342 85.7204 931.735 60.7899 988.616 144.353C1031.01 206.634 1063.53 302.847 1148.76 316.443C1229.8 329.37 1289.1 259.796 1360.17 235.742C1462.67 201.024 1566.01 294.329 1639.22 351.531" stroke="url(#paint5_linear_2367_6692)" stroke-width="0.9" stroke-miterlimit="10"/>
<path d="M-90.7422 234.153C-34.7837 193.872 26.9644 168.595 95.148 193.133C155.858 214.993 203.052 265.778 249.714 308.09C302.305 355.782 368.736 440.453 449.467 423.809C494.908 414.437 534.881 379.627 568.835 349.987C643.777 284.545 709.469 208.738 776.845 135.816C839.908 67.5337 909.799 18.4114 968.618 113.447C1008.22 177.413 1038.97 278.589 1128.79 282.144C1208.51 285.307 1268.41 221.595 1340.26 198.096C1450.47 162.062 1562.27 267.971 1639.24 330.181" stroke="url(#paint6_linear_2367_6692)" stroke-width="0.9" stroke-miterlimit="10"/>
<path d="M-90.7422 211.943C-33.3074 167.16 30.6781 137.428 103.221 163.236C164.439 185.004 215.138 234.634 260.394 279.255C307.449 325.677 370.604 416.858 447.645 401.299C490.756 392.597 528.677 357.717 560.462 329.416C633.143 264.666 698.051 190.844 763.721 119.215C823.854 53.6337 894.483 -6.15343 954.132 88.4441C993.16 150.332 1022.8 249.108 1110.94 250.331C1189.96 251.416 1255.86 194.006 1329.65 174.339C1444.5 143.707 1556.74 244.121 1639.22 308.271" stroke="url(#paint7_linear_2367_6692)" stroke-width="0.9" stroke-miterlimit="10"/>
<path d="M-90.7422 187.2C-27.3794 137.316 40.2275 110.493 117.684 145.119C181.738 173.766 237.835 227.966 287.404 275.958C331.876 319.032 386.981 391.723 457.102 369.078C499.89 355.251 537.096 318.317 569.019 288.631C633.005 229.144 692.469 164.717 752.834 101.606C810.361 41.426 880.159 -17.1145 941.999 66.7952C985.986 126.49 1013.99 221.965 1101.8 226.327C1180.02 230.206 1255.65 178.567 1331.06 164.717C1445.1 143.757 1551.15 222.426 1639.24 283.044" stroke="url(#paint8_linear_2367_6692)" stroke-width="0.9" stroke-miterlimit="10"/>
<path d="M-90.7422 159.706C-22.6047 107.675 46.8244 84.7985 126.426 125.888C187.413 157.351 243.694 208.02 293.863 254.257C340.618 297.354 398.03 371.615 468.681 338.744C505.564 321.592 535.919 288.929 564.89 261.297C625.831 203.126 683.474 141.446 742.984 81.8438C804.548 20.1869 874.3 -27.6197 938.17 54.3509C982.134 110.791 1013.8 199.641 1097.17 203.334C1173.86 206.75 1250.05 169.978 1324.9 157.743C1440.44 138.861 1543.01 197.817 1639.24 254.626" stroke="url(#paint9_linear_2367_6692)" stroke-width="0.9" stroke-miterlimit="10"/>
<path d="M-90.7422 129.972C-12.1558 73.2323 62.8093 60.3976 146.493 113.19C206.627 151.117 262.216 202.502 316.03 248.831C360.962 287.519 411.5 348.253 474.379 313.073C508.055 294.237 536.081 260.65 562.907 233.48C620.019 175.609 675.631 116.33 734.404 60.1207C795.298 1.88017 865.004 -40.1555 929.82 33.4358C978.213 88.3753 1011.73 176.002 1094.88 183.942C1168.16 190.937 1248.02 162.267 1320.1 151.094C1435.29 133.25 1536.64 173.993 1639.2 223.739" stroke="url(#paint10_linear_2367_6692)" stroke-width="0.9" stroke-miterlimit="10"/>
<path d="M-90.7422 98.5532C-5.60497 41.236 72.6816 35.0958 158.003 95.0676C222.381 140.312 280.231 197.49 341.449 247.074C383.544 281.146 430.115 327.868 482.729 288.718C517.513 262.841 545.907 223.852 574.786 192.089C623.617 138.419 673.671 85.4646 727.392 36.6654C793.222 -23.1448 864.612 -51.3993 930.904 20.6914C979.436 73.4611 1016.62 155.824 1096.36 164.758C1171.83 173.206 1253.44 153.377 1328.2 143.105C1438.13 128.008 1535.98 152.592 1639.22 190.842" stroke="url(#paint11_linear_2367_6692)" stroke-width="0.9" stroke-miterlimit="10"/>
<path d="M-90.7422 65.9388C6.32023 5.20529 88.8279 11.6688 177.932 82.8593C245.539 136.875 303.159 199.733 373.626 250.702C421.972 285.651 456.826 305.387 500.951 256.68C575.939 173.902 636.672 79.5583 724.531 8.18313C789.024 -44.1941 859.976 -63.723 924.238 -2.75861C978.536 48.7414 1015.07 127.804 1093.45 146.363C1165.81 163.468 1256.62 146.594 1329.37 136.668C1436.75 122.009 1533.65 130.62 1639.24 156.658" stroke="url(#paint12_linear_2367_6692)" stroke-width="0.9" stroke-miterlimit="10"/>
<path d="M-90.7422 32.6729C17.9456 -30.7845 106.45 -10.1707 198.092 71.0613C263.739 129.256 318.336 196.637 392.84 244.444C447.53 279.554 476.316 285.764 513.73 229.855C573.01 141.282 632.682 50.7476 719.042 -14.5797C788.863 -67.4185 859.607 -79.2836 927.837 -18.3654C984.649 32.3728 1025.08 113.997 1105.42 131.956C1176.67 147.884 1259.83 140.313 1331.66 130.525C1435.94 116.306 1533.9 109.888 1639.24 121.638" stroke="url(#paint13_linear_2367_6692)" stroke-width="0.9" stroke-miterlimit="10"/>
<path d="M-90.7422 -0.706712C27.7256 -66.1494 120.405 -33.9012 214.308 55.6409C280.761 119.006 335.544 196.406 417.359 241.327C478.092 274.683 499.406 257.347 528.377 200.169C574.463 109.242 632.751 17.3448 718.119 -41.8882C790.385 -92.0494 863.482 -93.596 931.366 -35.9557C990.577 14.344 1033.71 93.8446 1113.03 116.144C1283.17 163.973 1468.32 92.4827 1639.24 86.5502" stroke="url(#paint14_linear_2367_6692)" stroke-width="0.9" stroke-miterlimit="10"/>
<path d="M-90.7422 -33.6886C-31.8081 -65.1057 23.5968 -83.7574 89.5429 -60.8813C144.094 -41.9526 188.774 -2.22534 228.793 38.2406C294.809 105.045 351.252 194.934 439.203 234.638C505.172 264.416 520.788 224.296 543.047 168.318C579.33 76.9983 634.112 -16.5604 719.711 -70.0226C906.27 -186.573 973.6 49.2516 1122.03 100.382C1295.37 160.1 1469.73 84.7545 1639.24 51.9062" stroke="url(#paint15_linear_2367_6692)" stroke-width="0.9" stroke-miterlimit="10"/>
<path d="M-90.7422 -65.7512C-29.2709 -98.2994 27.3796 -116.443 94.5253 -91.7205C150.853 -70.9912 196.385 -28.6324 237.189 14.2804C301.36 81.7544 367.721 198.559 463.445 225.428C530.453 244.242 541.017 181.5 557.994 130.992C587.703 42.5812 638.91 -54.9018 724.578 -101.67C902.418 -198.76 991.984 19.5435 1126.25 81.2466C1302.41 162.202 1472.98 79.1922 1639.22 18.297" stroke="url(#paint16_linear_2367_6692)" stroke-width="0.9" stroke-miterlimit="10"/>
<path d="M-90.7422 -96.3378C-28.6711 -130.133 27.2412 -148.484 95.5632 -124.546C152.214 -104.694 198.508 -60.3963 238.781 -17.2295C304.127 52.8299 374.179 185.908 475.786 205.76C544.846 219.264 554.534 150.221 569.619 98.3743C595.522 9.43233 642.162 -89.0202 731.682 -130.386C909.776 -212.68 1005.82 -3.10221 1137.18 64.6719C1205.58 99.944 1294.13 118.019 1370.31 105.738C1466.89 90.1796 1555.21 32.9086 1639.24 -13.5592" stroke="url(#paint17_linear_2367_6692)" stroke-width="0.9" stroke-miterlimit="10"/>
<path d="M-90.7422 -124.963C-24.6346 -163.212 39.2587 -185.258 112.448 -152.202C167.368 -127.386 210.94 -81.7728 250.314 -37.498C309.317 28.8449 383.683 168.618 482.936 179.098C557.648 186.992 567.082 105.345 583.09 50.2205C607.84 -34.9819 652.403 -126.325 742.108 -159.196C918.864 -223.992 1021.07 -29.6956 1148.6 46.2271C1213.05 84.5924 1297.29 110.862 1372.67 101.467C1473.65 88.8629 1561.05 15.7333 1639.2 -43.2459" stroke="url(#paint18_linear_2367_6692)" stroke-width="0.9" stroke-miterlimit="10"/>
<path d="M-90.7422 -151.069C-28.3251 -190.866 33.1231 -218.566 106.866 -188.765C165.961 -164.873 213.016 -114.158 253.613 -66.767C311.647 0.984037 384.628 140.087 487.734 142.534C561.246 144.265 574.855 61.4406 592.201 6.13173C619.027 -79.3246 661.445 -162.219 755.532 -186.387C935.702 -232.694 1035.74 -55.0404 1164.66 30.1851C1227.77 71.9206 1311.93 106.339 1388.81 95.2353C1489.36 80.6925 1570.14 -2.94022 1639.22 -70.0218" stroke="url(#paint19_linear_2367_6692)" stroke-width="0.9" stroke-miterlimit="10"/>
<path d="M-90.7422 -174.135C-33.4458 -215.709 26.0649 -250.542 98.9309 -226.119C155.72 -207.098 200.445 -160.515 238.666 -116.333C301.267 -43.988 364.238 84.7043 472.003 92.9222C553.934 99.1548 575.224 19.4695 598.798 -43.5725C630.952 -129.583 675.77 -202.412 774.239 -215.732C948.804 -239.346 1049.4 -89.1399 1170.68 5.41142C1231.48 52.8025 1313.8 98.1853 1393.36 90.4292C1498.89 80.1338 1576.55 -18.0648 1639.22 -93.3412" stroke="url(#paint20_linear_2367_6692)" stroke-width="0.9" stroke-miterlimit="10"/>
<path d="M-90.7422 -192.321C-33.7226 -232.141 25.073 -264.92 96.4859 -241.651C152.098 -223.531 196.362 -179.002 234.122 -136.158C294.947 -67.1837 359.325 65.2251 463.999 68.8493C544.938 71.6424 572.641 -0.102162 601.658 -63.1672C638.864 -143.984 689.217 -217.967 784.711 -230.871C953.163 -253.632 1058.39 -113.305 1177.94 -23.5553C1236.6 20.4655 1319.34 65.2481 1394.67 63.7708C1499.99 61.6932 1578 -38.5598 1639.22 -111.736" stroke="url(#paint21_linear_2367_6692)" stroke-width="0.9" stroke-miterlimit="10"/>
<path d="M-90.7422 -204.767C-34.6222 -243.201 23.32 -275.08 93.3258 -253.889C147.416 -237.523 191.034 -195.833 228.194 -155.021C288.05 -89.2555 352.151 41.7683 453.435 42.3916C532.852 42.8764 566.667 -20.3733 601.335 -81.9841C643.684 -157.237 699.274 -229.444 791.377 -242.093C953.74 -264.369 1063.42 -138.516 1183.04 -54.7451C1241.12 -14.0714 1322.96 31.3114 1394.83 37.7287C1499.62 47.0776 1578.9 -54.168 1639.2 -124.712" stroke="url(#paint22_linear_2367_6692)" stroke-width="0.9" stroke-miterlimit="10"/>
<path d="M-90.7422 -212.476C-36.9058 -249.295 20.6443 -281.127 87.8822 -264.045C145.202 -249.503 190.734 -206.128 229.762 -164.139C289.088 -100.312 348.576 18.2467 447.691 13.8377C522.679 10.5136 560.9 -46.4572 600.066 -102.528C648.159 -171.41 706.217 -235.999 794.284 -248.51C954.201 -271.248 1066.23 -162.453 1190.65 -84.8457C1248.13 -48.9734 1321.07 -6.4299 1387.29 10.7214C1494.64 38.5143 1576.39 -62.1543 1639.22 -133.252" stroke="url(#paint23_linear_2367_6692)" stroke-width="0.9" stroke-miterlimit="10"/>
<path d="M-90.7422 -216.448C-38.382 -252.713 17.9456 -285.238 84.0763 -271.78C139.135 -260.561 183.884 -221.965 222.243 -183.207C282.399 -122.451 338.404 -13.3334 434.428 -17.6039C507.271 -20.8356 551.074 -68.8039 595.638 -120.489C649.036 -182.399 710.669 -241.217 795.345 -253.544C948.504 -275.843 1065.86 -188.863 1191.74 -119.658C1254.2 -85.3088 1319.89 -43.3193 1385.47 -15.5264C1491.04 29.2332 1574.04 -67.6266 1639.2 -138.286" stroke="url(#paint24_linear_2367_6692)" stroke-width="0.9" stroke-miterlimit="10"/>
</g>
</g>
<rect x="0.45" y="0.45" width="946.2" height="237.9" rx="10.35" stroke="#262626" stroke-width="0.9"/>
<defs>
<radialGradient id="paint0_radial_2367_6692" cx="0" cy="0" r="1" gradientUnits="userSpaceOnUse" gradientTransform="translate(189.42) scale(1136.52 286.56)">
<stop stop-color="#0F141B"/>
<stop offset="1" stop-color="#0D1218"/>
</radialGradient>
<linearGradient id="paint1_linear_2367_6692" x1="774.239" y1="224.168" x2="774.239" y2="479.854" gradientUnits="userSpaceOnUse">
<stop stop-color="#333333"/>
<stop offset="1" stop-color="#333333" stop-opacity="0"/>
</linearGradient>
<linearGradient id="paint2_linear_2367_6692" x1="774.239" y1="187.451" x2="774.239" y2="469.986" gradientUnits="userSpaceOnUse">
<stop stop-color="#333333"/>
<stop offset="1" stop-color="#333333" stop-opacity="0"/>
</linearGradient>
<linearGradient id="paint3_linear_2367_6692" x1="774.227" y1="153.926" x2="774.227" y2="459.725" gradientUnits="userSpaceOnUse">
<stop stop-color="#333333"/>
<stop offset="1" stop-color="#333333" stop-opacity="0"/>
</linearGradient>
<linearGradient id="paint4_linear_2367_6692" x1="774.239" y1="121.821" x2="774.239" y2="449.18" gradientUnits="userSpaceOnUse">
<stop stop-color="#333333"/>
<stop offset="1" stop-color="#333333" stop-opacity="0"/>
</linearGradient>
<linearGradient id="paint5_linear_2367_6692" x1="774.239" y1="91.0664" x2="774.239" y2="438.104" gradientUnits="userSpaceOnUse">
<stop stop-color="#333333"/>
<stop offset="1" stop-color="#333333" stop-opacity="0"/>
</linearGradient>
<linearGradient id="paint6_linear_2367_6692" x1="774.25" y1="60.5996" x2="774.25" y2="425.944" gradientUnits="userSpaceOnUse">
<stop stop-color="#333333"/>
<stop offset="1" stop-color="#333333" stop-opacity="0"/>
</linearGradient>
<linearGradient id="paint7_linear_2367_6692" x1="774.239" y1="39.3164" x2="774.239" y2="403.064" gradientUnits="userSpaceOnUse">
<stop stop-color="#333333"/>
<stop offset="1" stop-color="#333333" stop-opacity="0"/>
</linearGradient>
<linearGradient id="paint8_linear_2367_6692" x1="774.25" y1="24.9863" x2="774.25" y2="373.35" gradientUnits="userSpaceOnUse">
<stop stop-color="#333333"/>
<stop offset="1" stop-color="#333333" stop-opacity="0"/>
</linearGradient>
<linearGradient id="paint9_linear_2367_6692" x1="774.25" y1="10.7627" x2="774.25" y2="346.901" gradientUnits="userSpaceOnUse">
<stop stop-color="#333333"/>
<stop offset="1" stop-color="#333333" stop-opacity="0"/>
</linearGradient>
<linearGradient id="paint10_linear_2367_6692" x1="774.227" y1="-5.82422" x2="774.227" y2="323.64" gradientUnits="userSpaceOnUse">
<stop stop-color="#333333"/>
<stop offset="1" stop-color="#333333" stop-opacity="0"/>
</linearGradient>
<linearGradient id="paint11_linear_2367_6692" x1="774.239" y1="-22.1367" x2="774.239" y2="303.588" gradientUnits="userSpaceOnUse">
<stop stop-color="#333333"/>
<stop offset="1" stop-color="#333333" stop-opacity="0"/>
</linearGradient>
<linearGradient id="paint12_linear_2367_6692" x1="774.25" y1="-40.5449" x2="774.25" y2="285.781" gradientUnits="userSpaceOnUse">
<stop stop-color="#333333"/>
<stop offset="1" stop-color="#333333" stop-opacity="0"/>
</linearGradient>
<linearGradient id="paint13_linear_2367_6692" x1="774.25" y1="-59.332" x2="774.25" y2="271.355" gradientUnits="userSpaceOnUse">
<stop stop-color="#333333"/>
<stop offset="1" stop-color="#333333" stop-opacity="0"/>
</linearGradient>
<linearGradient id="paint14_linear_2367_6692" x1="774.25" y1="-79.3643" x2="774.25" y2="258.197" gradientUnits="userSpaceOnUse">
<stop stop-color="#333333"/>
<stop offset="1" stop-color="#333333" stop-opacity="0"/>
</linearGradient>
<linearGradient id="paint15_linear_2367_6692" x1="774.25" y1="-101.99" x2="774.25" y2="244.753" gradientUnits="userSpaceOnUse">
<stop stop-color="#333333"/>
<stop offset="1" stop-color="#333333" stop-opacity="0"/>
</linearGradient>
<linearGradient id="paint16_linear_2367_6692" x1="774.239" y1="-126.199" x2="774.239" y2="228.844" gradientUnits="userSpaceOnUse">
<stop stop-color="#333333"/>
<stop offset="1" stop-color="#333333" stop-opacity="0"/>
</linearGradient>
<linearGradient id="paint17_linear_2367_6692" x1="774.25" y1="-149.248" x2="774.25" y2="207.476" gradientUnits="userSpaceOnUse">
<stop stop-color="#333333"/>
<stop offset="1" stop-color="#333333" stop-opacity="0"/>
</linearGradient>
<linearGradient id="paint18_linear_2367_6692" x1="774.227" y1="-172.212" x2="774.227" y2="179.63" gradientUnits="userSpaceOnUse">
<stop stop-color="#333333"/>
<stop offset="1" stop-color="#333333" stop-opacity="0"/>
</linearGradient>
<linearGradient id="paint19_linear_2367_6692" x1="774.239" y1="-201.293" x2="774.239" y2="142.561" gradientUnits="userSpaceOnUse">
<stop stop-color="#333333"/>
<stop offset="1" stop-color="#333333" stop-opacity="0"/>
</linearGradient>
<linearGradient id="paint20_linear_2367_6692" x1="774.239" y1="-234.206" x2="774.239" y2="93.2663" gradientUnits="userSpaceOnUse">
<stop stop-color="#333333"/>
<stop offset="1" stop-color="#333333" stop-opacity="0"/>
</linearGradient>
<linearGradient id="paint21_linear_2367_6692" x1="774.239" y1="-249.408" x2="774.239" y2="68.9283" gradientUnits="userSpaceOnUse">
<stop stop-color="#333333"/>
<stop offset="1" stop-color="#333333" stop-opacity="0"/>
</linearGradient>
<linearGradient id="paint22_linear_2367_6692" x1="774.227" y1="-260.665" x2="774.227" y2="42.3944" gradientUnits="userSpaceOnUse">
<stop stop-color="#333333"/>
<stop offset="1" stop-color="#333333" stop-opacity="0"/>
</linearGradient>
<linearGradient id="paint23_linear_2367_6692" x1="774.239" y1="-268.786" x2="774.239" y2="15.4543" gradientUnits="userSpaceOnUse">
<stop stop-color="#333333"/>
<stop offset="1" stop-color="#333333" stop-opacity="0"/>
</linearGradient>
<linearGradient id="paint24_linear_2367_6692" x1="774.227" y1="-274.882" x2="774.227" y2="-4.13873" gradientUnits="userSpaceOnUse">
<stop stop-color="#333333"/>
<stop offset="1" stop-color="#333333" stop-opacity="0"/>
</linearGradient>
<clipPath id="clip0_2367_6692">
<rect width="947.1" height="238.8" rx="10.8" fill="white"/>
</clipPath>
<clipPath id="clip1_2367_6692">
<rect width="1731.6" height="1157.4" fill="white" transform="translate(-91.5039 -548.203)"/>
</clipPath>
</defs>
</svg>
