<svg width="117" height="32" viewBox="0 0 117 32" fill="none" xmlns="http://www.w3.org/2000/svg">
<g clip-path="url(#clip0_937_5514)">
<path d="M115.733 20.618L116.572 20.6765C116.501 21.0393 116.436 21.3756 116.364 21.7398H111.621C111.687 21.4028 111.738 21.1314 111.791 20.8829C112.878 20.4794 112.968 20.2323 112.503 18.9477H108.894L107.819 20.5023L108.874 20.6215C108.803 20.9907 108.737 21.3321 108.662 21.7163H102.178C101.067 20.638 100.777 19.164 99.793 18.0029H99.0093C98.8114 18.8291 98.6119 19.6668 98.3911 20.5894H99.7922C99.7073 20.9979 99.6325 21.3228 99.5544 21.6806H94.3281L94.5141 20.7522C95.8277 20.7451 95.9279 19.921 96.1028 19.1176C96.5273 17.1502 96.9825 15.19 97.4393 13.1591L96.242 13.0855C96.3159 12.7285 96.3821 12.305 96.4501 11.9737C96.6088 11.9408 100.647 11.9879 102.564 12.0265C103.103 12.0493 103.636 12.1415 104.142 12.3C105.515 12.702 106.075 13.5333 105.84 14.7373C105.577 16.0598 104.577 16.8675 103.178 17.3902C102.935 17.4809 102.684 17.5594 102.503 17.6208C102.98 18.3457 103.446 19.0491 103.907 19.756C104.724 21.0064 105.716 21.0479 106.6 19.8067C107.906 17.9743 109.147 16.1091 110.415 14.2574C110.975 13.4404 111.534 12.6228 112.081 11.8223H113.416C114.183 14.7494 114.951 17.6558 115.733 20.618ZM99.2538 16.781C101.569 17.2731 103.401 15.9591 103.094 14.0917C103.049 13.8175 102.784 13.4633 102.499 13.3447C102.059 13.1598 101.522 13.1055 101.019 13.0684C100.449 13.0263 100.07 13.304 99.9535 13.7654C99.7064 14.7565 99.4907 15.7542 99.2538 16.781ZM112.266 17.7765C112.047 16.7539 111.841 15.777 111.607 14.6908L109.649 17.7765H112.266Z" fill="white"/>
<path d="M38.4658 20.1965C40.1088 20.1965 41.6559 20.2551 43.192 20.1758C44.2304 20.123 44.9556 19.5474 45.381 18.7519C45.5729 18.3948 45.7053 18.0121 45.8726 17.6215H47.4358C47.0894 18.9626 46.7565 20.2444 46.4322 21.5091H34.6074C34.6779 20.6521 34.8774 19.9709 35.6603 19.3946C37.3857 18.1263 39.0228 16.7731 40.7431 15.4163L40.1402 15.0842C41.0029 14.2573 41.8495 13.4418 42.7054 12.627C43.5613 11.8122 44.4096 11.0245 45.3453 10.1461C44.6193 10.1097 43.9867 10.0747 43.3473 10.049C42.7844 10.0297 42.2214 10.0212 41.6585 10.0183C40.0969 10.0105 39.0602 10.6239 38.5329 11.86C38.4267 12.1078 38.3257 12.3599 38.2204 12.6041C38.2136 12.6198 38.1881 12.6298 38.1414 12.6655H36.6427C36.9892 11.3251 37.3178 10.049 37.6472 8.77148H49.2971C49.3166 9.35777 49.2317 9.82266 48.6891 10.2204C47.0758 11.4008 45.5041 12.6198 43.9103 13.8181C43.7295 13.9538 43.5095 14.053 43.192 14.2366L44.3807 14.6515L38.4658 20.1965Z" fill="white"/>
<path d="M56.916 14.8754C56.6519 16.0516 56.4065 17.1399 56.1569 18.2539H55.0488C54.7694 17.0892 54.5393 16.947 53.1451 17.1291C52.8997 18.1889 52.6483 19.2715 52.3885 20.3926C53.348 20.3926 54.2566 20.464 55.1328 20.3719C55.9607 20.2841 56.5356 19.8006 56.8413 19.1337C56.9262 18.9416 57.0051 18.7445 57.096 18.5252H58.2932L57.5367 21.5481H48.334C48.3934 21.2103 48.4435 20.9239 48.5038 20.579C49.6739 20.6276 49.8675 19.9513 50.0322 19.2179C50.4695 17.2298 50.9314 15.246 51.3823 13.2601C51.3945 13.1783 51.4016 13.0961 51.4035 13.0137L50.236 12.9423C50.3073 12.5788 50.3702 12.2553 50.4415 11.8926H59.1941C59.0243 12.8316 58.8689 13.6971 58.7059 14.6062H57.5307C57.5134 14.5226 57.5021 14.4382 57.4968 14.3534C57.5333 13.268 57.0722 12.8609 55.7985 12.8573C54.2565 12.8538 54.0782 12.9737 53.7836 14.2349C53.6545 14.7883 53.534 15.3432 53.3955 15.9623H55.2279L55.5141 14.8754H56.916Z" fill="white"/>
<path d="M16.0307 8.79772C15.8193 8.9841 15.6563 9.12907 15.4924 9.2726C14.0489 10.5366 13.0461 12.0255 12.3744 13.6715C11.9312 14.7584 11.887 15.8517 12.5969 16.9779C11.0099 16.1588 10.9114 14.0871 12.225 11.4078C11.3946 11.6277 10.5268 12.6775 10.3935 13.6372C10.2236 14.8155 10.6592 15.8674 11.3164 16.8886C11.6994 17.4827 12.0866 18.1026 12.2904 18.7453C12.6869 20.01 12.3243 21.2275 11.6179 22.3594C10.6074 23.9776 8.96864 24.9645 6.96728 25.5557L6.87048 25.4522C7.07937 25.3322 7.2874 25.2108 7.49713 25.0951C8.55682 24.4967 9.47896 23.7826 10.1115 22.8393C11.0515 21.436 11.0897 19.9957 10.2814 18.5468C10.0255 18.1039 9.73771 17.6746 9.41952 17.2614C8.56362 16.1188 7.69752 14.9869 8.04056 13.5151C7.49119 14.025 7.32646 14.6227 7.31457 15.2454C7.29249 16.4166 7.30183 17.5884 7.31457 18.7596C7.32121 19.7105 7.01342 20.6444 6.42555 21.4567C5.54077 22.7157 3.59036 23.2777 1.95921 22.76C1.85121 22.7125 1.74736 22.6585 1.64844 22.5986C1.91676 22.5486 2.07894 22.5051 2.24282 22.4894C4.41145 22.2858 5.61464 21.2568 5.76239 19.4265C5.80201 18.8227 5.79662 18.2174 5.74626 17.6141C5.60021 15.5096 6.47989 13.7708 8.32926 12.3583C10.3001 10.8522 12.495 9.65822 15.0313 8.93054C15.2657 8.86413 15.5043 8.80843 15.7446 8.75701C15.7972 8.74702 15.866 8.77415 16.0307 8.79772Z" fill="white"/>
<path d="M81 12.2332L81.2657 11.8533H82.6302C82.3832 12.9608 82.1488 14.0084 81.9094 15.0853H80.7274C80.6569 14.754 80.6153 14.454 80.5278 14.1648C80.3147 13.4593 79.784 12.998 78.9264 12.8651C77.9975 12.7223 77.1136 12.8173 76.4512 13.4593C75.9588 13.9377 76.0216 14.564 76.6584 14.9518C77.2002 15.281 77.826 15.5124 78.4186 15.7809C79.1098 16.0951 79.8452 16.3521 80.4913 16.7235C82.0053 17.5897 82.2617 18.9572 81.1876 20.2183C80.3623 21.1867 79.1676 21.6273 77.8107 21.8179C76.4776 22.005 75.2107 21.8258 73.9625 21.3009L73.6848 21.7508H72.3398C72.5827 20.6432 72.8128 19.5942 73.0514 18.508H74.258C74.2937 18.6894 74.3327 18.8522 74.3573 19.0165C74.483 19.8477 74.9993 20.4347 75.9639 20.6632C77.0134 20.911 78.0323 20.8532 78.8508 20.1484C79.435 19.6435 79.3909 18.9808 78.6989 18.5845C78.1843 18.2902 77.5797 18.1074 77.0176 17.8703C76.4343 17.6254 75.8229 17.4176 75.2769 17.1234C73.1287 15.9665 73.0692 13.7099 75.1844 12.4817C76.8317 11.5212 78.6343 11.5048 80.4794 12.0446C80.6442 12.0903 80.803 12.1617 81 12.2332Z" fill="white"/>
<path d="M70.0619 13.0908L68.868 13.0244C68.9394 12.6509 69.0039 12.3153 69.0727 11.9533H73.1713C73.1034 12.296 73.0465 12.5824 72.9777 12.9302C71.7703 12.8545 71.6192 13.5693 71.457 14.287C71.1793 15.5309 70.9246 16.7799 70.5985 18.0146C69.6297 21.6759 65.8995 22.275 62.9115 21.6316C61.4875 21.3252 60.6554 20.4119 60.6851 19.1022C60.7089 18.0718 60.9399 17.0413 61.125 16.0173C61.2837 15.1603 61.5189 14.3112 61.7134 13.4579C61.7333 13.3157 61.743 13.1726 61.7423 13.0294H60.5977C60.6741 12.6309 60.7395 12.2932 60.8091 11.9297H65.8511C65.7951 12.2503 65.7475 12.5203 65.6915 12.8445C64.355 12.8802 64.248 13.7207 64.0833 14.5426C63.8583 15.6409 63.5967 16.7342 63.3556 17.8275C63.3108 18.0319 63.2807 18.2385 63.2656 18.4459C63.1382 20.2662 64.5163 21.1417 66.6068 20.564C67.8134 20.2305 68.4902 19.4643 68.7874 18.4852C69.1092 17.4255 69.3215 16.3429 69.5736 15.2667C69.7384 14.5669 69.8895 13.8621 70.0619 13.0908Z" fill="white"/>
<path d="M90.8756 12.8847C90.2872 15.5005 89.731 17.9784 89.1621 20.5078L90.4493 20.585C90.3593 20.9856 90.2795 21.3262 90.2022 21.6825H85.0948C85.1543 21.3426 85.206 21.0398 85.2646 20.6892C86.4483 20.7371 86.6351 20.0565 86.793 19.3267C87.2049 17.4322 87.6422 15.5419 88.0667 13.6488C88.1075 13.4674 88.1117 13.2796 88.1397 13.0382C87.3076 12.9218 86.5179 12.9668 85.9753 13.4667C85.4769 13.923 85.1628 14.5207 84.7195 15.1199H83.6819C83.9477 14.0444 84.2007 13.0225 84.4461 12.0156H95.0524C94.8486 13.0975 94.661 14.0965 94.4631 15.1449H93.2659C93.2268 14.4636 93.4943 13.6731 92.6715 13.266C92.1832 13.0232 91.5371 13.0147 90.8756 12.8847Z" fill="white"/>
<path d="M11.584 32C11.7716 31.1587 12.3414 30.546 13.0937 30.0412C14.2621 29.2556 15.6411 28.9386 17.0964 28.8179C17.2985 28.8008 17.5023 28.8065 17.7044 28.79C20.3655 28.5701 21.6783 27.5653 22.1198 25.3452C22.3152 24.3551 22.794 23.4199 23.5149 22.6201C23.9547 22.1202 24.2264 21.4975 24.4812 20.9027C24.5899 20.6492 24.4642 20.3243 24.443 20.0051C21.9364 20.265 19.3789 20.11 17.5779 21.9296L17.4624 21.8175C17.684 21.579 17.8827 21.3176 18.1315 21.1034C19.2829 20.0957 20.7638 19.698 22.3618 19.5137C22.6513 19.4802 22.9417 19.4488 23.2296 19.4031C24.5168 19.1988 25.056 18.5704 24.8947 17.4685C24.0006 17.2422 23.4274 17.3664 22.8781 17.9641C22.214 18.6861 21.3598 19.1567 20.3035 19.3209C18.9568 19.5266 17.9736 20.1065 17.2068 21.0605C16.2728 22.2259 15.0144 23.06 13.278 23.25C13.0334 23.2771 12.7846 23.2878 12.5375 23.295C12.4147 23.2977 12.2955 23.2603 12.2047 23.1907C12.3596 23.1347 12.5198 23.0895 12.6836 23.0557C14.2519 22.8351 15.3931 22.0895 16.2694 21.0162C16.4604 20.7827 16.6413 20.5428 16.8162 20.3021C17.4284 19.4538 18.2937 18.8682 19.4408 18.6368C20.588 18.4054 21.5466 17.9755 22.2922 17.1515C23.0139 16.3538 24.595 16.2281 25.9527 16.7473C26.0588 17.9106 26.0639 19.0524 24.6722 19.798C25.4449 20.9141 25.2275 21.9696 24.5151 22.9586C23.9208 23.7863 23.5939 24.6568 23.43 25.6101C22.9349 28.4801 20.9922 29.8719 17.5397 29.9662C16.5745 29.986 15.614 30.086 14.6722 30.2647C13.4053 30.5075 12.4059 31.153 11.584 32Z" fill="white"/>
<path d="M18.7211 6.5102C18.3815 6.69944 18.0698 6.97866 17.6971 7.05864C16.8955 7.22931 16.0784 7.34301 15.2542 7.39855C14.2701 7.46996 13.2715 7.40426 12.2908 7.48996C10.3497 7.66063 8.96733 8.57898 8.00784 9.95864C7.58837 10.5606 7.26656 11.2098 6.8887 11.8325C6.45311 12.5466 5.90798 13.195 5.05462 13.6042C4.75318 13.747 4.42033 13.847 4.08408 13.9726C4.05946 13.8691 4.02974 13.8177 4.04587 13.8034C4.97989 12.9779 5.38237 11.9531 5.68806 10.8698C5.91307 10.0743 6.28244 9.30665 6.61529 8.46258C6.31385 8.66753 6.026 8.83606 5.77636 9.03743C4.18767 10.3228 3.43451 11.9617 2.97429 13.7277C2.73738 14.6489 2.51831 15.5773 2.19395 16.4777C1.93922 17.1854 1.36352 17.6874 0.410812 17.7631C0.291936 17.7724 0.167116 17.7389 -0.00610352 17.676C1.18266 17.2476 1.26163 16.3792 1.36437 15.4951C1.48155 14.4825 1.56391 13.4528 1.86025 12.4723C2.45888 10.4985 3.81321 8.92104 6.02091 8.02697C7.04607 7.62529 8.03733 7.16504 8.98771 6.64945C10.624 5.74039 12.4691 5.74467 14.3371 6.04032C14.4034 6.05103 14.467 6.07174 14.5333 6.08459C15.8825 6.34167 17.2173 6.73229 18.6404 6.34667L18.7211 6.5102Z" fill="white"/>
<path d="M1.4876 7.06873C1.76441 7.04159 2.04122 7.01803 2.31718 6.98661C3.70948 6.83065 5.01248 6.32233 6.05329 5.52911C7.18091 4.68931 8.31193 3.84524 9.51597 3.08757C11.6167 1.76503 13.9764 1.32086 16.5364 1.92642C19.1687 2.54913 20.8788 4.48151 20.8398 6.72096C20.8427 6.89747 20.7751 7.06971 20.6479 7.21012C20.557 7.07282 20.4746 6.93172 20.4008 6.78737C18.8325 3.31322 14.98 2.86976 11.9283 4.02162C10.951 4.38939 10.073 4.94282 9.15 5.41271C8.18796 5.90187 7.25054 6.42889 6.26302 6.87449C4.90443 7.48506 3.45415 7.65073 1.94527 7.32438C1.78521 7.28075 1.62865 7.22851 1.47656 7.16799L1.4876 7.06873Z" fill="white"/>
<path d="M11.7914 26.7063C11.7473 25.2781 13.1373 24.0348 14.872 23.9513C15.6329 23.9218 16.3941 24.0055 17.1205 24.1984C18.918 24.6704 19.5413 24.5618 20.7886 23.3486C20.8945 23.2327 20.9909 23.1111 21.0773 22.9844L21.2718 23.0744C21.2879 23.2522 21.3414 23.4314 21.3134 23.6071C21.0323 25.3209 20.117 26.6713 18.1861 27.4518C16.6349 28.0857 14.8956 28.3203 13.1865 28.126C11.1919 27.9117 9.19059 28.5216 8.68621 30.3754C8.67433 30.4204 8.61319 30.4561 8.48837 30.5896C8.42384 29.4092 8.88321 28.5487 9.92252 27.916C10.7351 27.4204 11.67 27.2655 12.6601 27.2269C13.9813 27.1762 15.3118 27.1405 16.6169 26.977C17.3684 26.8827 18.0774 26.5485 18.8968 26.2957C17.5595 26.0315 16.3877 25.768 15.1981 25.5759C14.2139 25.4166 13.33 25.698 12.5514 26.2093L11.7914 26.7063Z" fill="white"/>
<path d="M25.1529 10.0725C22.5598 9.40766 20.0583 8.29079 17.1806 9.23341L17.1348 9.04989C17.309 8.92828 17.4904 8.81412 17.6782 8.70783C19.1633 7.94802 20.78 7.89017 22.4426 8.09155C22.7539 8.12916 23.0653 8.17249 23.3766 8.22152C25.1708 8.50717 26.2169 9.3541 26.4691 10.8637C26.5285 11.2208 26.2042 11.6171 26.0224 12.082C27.1093 14.2836 27.381 15.1877 27.218 16.2131C27.0957 16.206 26.9692 16.2046 26.8452 16.191C25.98 16.0974 25.1173 15.991 24.2512 15.9096C23.7035 15.8582 22.9987 15.9725 22.8213 15.4033C22.6404 14.8228 23.38 14.6721 23.7935 14.3879C23.8198 14.3693 23.8784 14.38 24.0083 14.3714L23.2849 15.1841L23.3223 15.3448L26.0912 15.1919C26.1659 14.4179 25.783 13.6159 24.4584 11.7878L25.5868 11.1279L25.4832 10.9851L25.1529 10.0725Z" fill="white"/>
<path d="M24.6714 7.28464C24.7087 7.08755 24.7452 6.89116 24.7835 6.69407C25.0467 5.33726 24.4727 4.45033 23.0122 3.83263C21.95 3.38274 20.8775 2.93142 19.896 2.3737C19.3415 2.05878 18.9008 1.56176 18.5246 1.08259C18.3047 0.801232 18.3115 0.394189 18.3158 0C19.1649 1.37252 20.8122 1.74386 22.2455 2.36371C22.8653 2.6315 23.5191 2.85001 24.1016 3.16922C25.8499 4.13256 26.1403 5.92854 24.6714 7.28464Z" fill="white"/>
<path d="M21.6762 11.9279C20.9663 12.4864 20.3295 12.642 19.7572 12.3678C19.2825 12.1379 19.1382 11.7965 19.3513 11.3623C18.5132 10.991 17.777 10.9946 17.164 11.7408C17.1096 11.0096 17.6403 10.4619 18.4572 10.4369C19.1298 10.408 19.8037 10.4665 20.4551 10.6104C21.3764 10.831 22.2553 11.1767 23.1528 11.4673L23.1672 11.6258L21.6762 11.9279Z" fill="white"/>
</g>
<defs>
<clipPath id="clip0_937_5514">
<rect width="116.571" height="32" fill="white"/>
</clipPath>
</defs>
</svg>
