<svg width="36" height="42" viewBox="0 0 36 42" fill="none" xmlns="http://www.w3.org/2000/svg">
<foreignObject x="0" y="0" width="0" height="0"><div xmlns="http://www.w3.org/1999/xhtml" style="backdrop-filter:blur(4.76px);clip-path:url(#bgblur_0_3167_1154_clip_path);height:100%;width:100%"></div></foreignObject><g data-figma-bg-blur-radius="9.51">
<mask id="path-1-outside-1_3167_1154" maskUnits="userSpaceOnUse" x="-0.264893" y="-0.135742" width="36" height="42" fill="black">
<rect fill="white" x="-0.264893" y="-0.135742" width="36" height="42"/>
<path d="M20.8226 11.8831C20.5578 12.1166 20.3536 12.2981 20.1483 12.4779C18.3404 14.061 17.0845 15.9258 16.2433 17.9873C15.6881 19.3486 15.6328 20.7179 16.5219 22.1283C14.5343 21.1025 14.4109 18.5079 16.0561 15.1521C15.016 15.4276 13.9291 16.7423 13.7622 17.9444C13.5495 19.4201 14.0951 20.7376 14.9182 22.0165C15.3978 22.7607 15.8827 23.537 16.138 24.3419C16.6346 25.9259 16.1805 27.4508 15.2957 28.8684C14.0302 30.8951 11.9777 32.1312 9.47107 32.8717L9.34984 32.742C9.61145 32.5918 9.872 32.4397 10.1347 32.2948C11.4619 31.5453 12.6168 30.651 13.4091 29.4695C14.5864 27.712 14.6342 25.908 13.6218 24.0933C13.3014 23.5387 12.9409 23.001 12.5424 22.4834C11.4704 21.0524 10.3857 19.6348 10.8153 17.7914C10.1272 18.43 9.92092 19.1786 9.90603 19.9585C9.87838 21.4253 9.89008 22.893 9.90603 24.3598C9.91435 25.5509 9.52885 26.7205 8.79257 27.7379C7.68444 29.3147 5.24164 30.0186 3.19871 29.3702C3.06344 29.3106 2.93337 29.2431 2.80948 29.1681C3.14554 29.1055 3.34866 29.0509 3.55391 29.0312C6.27002 28.7763 7.77696 27.4875 7.962 25.1952C8.01163 24.4389 8.00488 23.6808 7.9418 22.9252C7.75888 20.2895 8.86064 18.1116 11.1769 16.3425C13.6452 14.4563 16.3943 12.9609 19.5709 12.0495C19.8644 11.9663 20.1632 11.8965 20.4642 11.8321C20.5301 11.8196 20.6163 11.8536 20.8226 11.8831Z"/>
<path d="M15.2533 40.9427C15.4883 39.8891 16.2019 39.1217 17.1441 38.4894C18.6075 37.5056 20.3345 37.1085 22.1573 36.9573C22.4104 36.9359 22.6657 36.943 22.9188 36.9224C26.2517 36.647 27.8958 35.3886 28.4488 32.6079C28.6936 31.3679 29.2933 30.1966 30.1961 29.1949C30.747 28.5689 31.0873 27.789 31.4064 27.0439C31.5425 26.7264 31.3851 26.3195 31.3585 25.9197C28.2191 26.2452 25.016 26.0512 22.7603 28.3301L22.6157 28.1896C22.8933 27.8909 23.1421 27.5636 23.4537 27.2952C24.8958 26.0333 26.7505 25.5351 28.7519 25.3043C29.1146 25.2623 29.4783 25.223 29.8388 25.1657C31.451 24.9099 32.1263 24.1229 31.9243 22.7428C30.8044 22.4593 30.0866 22.6149 29.3985 23.3635C28.5669 24.2677 27.497 24.8571 26.1741 25.0629C24.4874 25.3204 23.2559 26.0467 22.2956 27.2416C21.1258 28.7012 19.5497 29.7459 17.3749 29.9838C17.0686 30.0178 16.757 30.0312 16.4475 30.0401C16.2937 30.0435 16.1444 29.9967 16.0307 29.9095C16.2247 29.8394 16.4253 29.7828 16.6305 29.7405C18.5947 29.4641 20.024 28.5304 21.1215 27.1861C21.3608 26.8937 21.5873 26.5932 21.8064 26.2917C22.5732 25.2292 23.6568 24.4958 25.0936 24.206C26.5303 23.9162 27.731 23.3778 28.6647 22.3457C29.5687 21.3467 31.5489 21.1893 33.2494 21.8395C33.3823 23.2964 33.3887 24.7266 31.6456 25.6603C32.6134 27.0582 32.3412 28.3801 31.4489 29.6189C30.7045 30.6555 30.295 31.7457 30.0898 32.9397C29.4698 36.5343 27.0366 38.2774 22.7125 38.3955C21.5036 38.4203 20.3007 38.5455 19.1211 38.7694C17.5344 39.0735 16.2827 39.882 15.2533 40.9427Z"/>
<path d="M24.1923 9.01839C23.7669 9.2554 23.3766 9.60511 22.9098 9.70528C21.9059 9.91904 20.8824 10.0614 19.8501 10.131C18.6176 10.2204 17.3669 10.1382 16.1386 10.2455C13.7075 10.4593 11.9762 11.6094 10.7745 13.3374C10.2491 14.0914 9.84604 14.9044 9.3728 15.6843C8.82724 16.5787 8.14449 17.3908 7.0757 17.9032C6.69816 18.0821 6.28128 18.2073 5.86015 18.3647C5.8293 18.2351 5.79208 18.1707 5.81229 18.1528C6.98211 17.1189 7.48619 15.8354 7.86905 14.4786C8.15087 13.4823 8.61348 12.5208 9.03036 11.4637C8.65283 11.7203 8.29231 11.9314 7.97965 12.1836C5.98989 13.7935 5.04659 15.8461 4.47018 18.058C4.17348 19.2117 3.8991 20.3744 3.49285 21.5023C3.17381 22.3886 2.45277 23.0173 1.25956 23.1122C1.11067 23.1238 0.95434 23.0817 0.737391 23.003C2.22625 22.4664 2.32516 21.3788 2.45384 20.2716C2.6006 19.0033 2.70376 17.7136 3.07491 16.4856C3.82466 14.0135 5.5209 12.0378 8.28593 10.9181C9.5699 10.415 10.8114 9.83855 12.0017 9.1928C14.051 8.05424 16.3619 8.05961 18.7016 8.42989C18.7845 8.4433 18.8643 8.46924 18.9473 8.48534C20.6371 8.80732 22.3089 9.29655 24.0913 8.81358L24.1923 9.01839Z"/>
<path d="M2.60804 9.71688C2.95473 9.6829 3.30142 9.65338 3.64705 9.61403C5.39084 9.4187 7.02278 8.78206 8.32634 7.78858C9.73863 6.73678 11.1552 5.67962 12.6632 4.73067C15.2942 3.07426 18.2496 2.51795 21.456 3.27639C24.7527 4.0563 26.8946 6.47651 26.8457 9.28131C26.8493 9.50239 26.7647 9.71811 26.6053 9.89397C26.4916 9.72201 26.3883 9.54529 26.2958 9.3645C24.3316 5.0133 19.5066 4.45788 15.6845 5.90053C14.4605 6.36114 13.3608 7.05429 12.2048 7.6428C10.9999 8.25545 9.82583 8.91551 8.58901 9.47361C6.88746 10.2383 5.07104 10.4458 3.18125 10.0371C2.98078 9.98243 2.7847 9.917 2.59421 9.8412L2.60804 9.71688Z"/>
<path d="M15.5131 34.3134C15.4578 32.5247 17.1987 30.9675 19.3714 30.8629C20.3244 30.826 21.2777 30.9308 22.1874 31.1724C24.4388 31.7635 25.2194 31.6276 26.7816 30.108C26.9142 29.963 27.035 29.8106 27.1432 29.6519L27.3868 29.7646C27.407 29.9873 27.474 30.2118 27.4389 30.4318C27.0869 32.5783 25.9404 34.2696 23.5221 35.2472C21.5793 36.0411 19.4009 36.3348 17.2604 36.0915C14.7623 35.8232 12.2557 36.587 11.6239 38.9088C11.6091 38.9652 11.5325 39.0099 11.3762 39.1771C11.2953 37.6987 11.8707 36.621 13.1724 35.8285C14.1901 35.2078 15.361 35.0138 16.601 34.9655C18.2558 34.902 19.9222 34.8572 21.5568 34.6524C22.498 34.5344 23.386 34.1158 24.4122 33.7992C22.7372 33.4683 21.2697 33.1382 19.7797 32.8976C18.5472 32.6982 17.4401 33.0506 16.4649 33.691L15.5131 34.3134Z"/>
<path d="M32.2477 13.4796C28.9999 12.647 25.8669 11.2481 22.2628 12.4287L22.2053 12.1989C22.4235 12.0466 22.6507 11.9036 22.886 11.7705C24.746 10.8188 26.7708 10.7464 28.8531 10.9986C29.2431 11.0457 29.633 11.1 30.0229 11.1614C32.2701 11.5191 33.5802 12.5799 33.8961 14.4706C33.9705 14.9178 33.5643 15.4142 33.3367 15.9964C34.698 18.7538 35.0383 19.8861 34.8341 21.1705C34.6809 21.1615 34.5225 21.1597 34.3672 21.1427C33.2835 21.0256 32.2031 20.8923 31.1183 20.7904C30.4324 20.726 29.5497 20.8691 29.3274 20.1562C29.1009 19.4291 30.0272 19.2404 30.5451 18.8844C30.5781 18.8612 30.6514 18.8746 30.8142 18.8639L29.9081 19.8817L29.9549 20.0829L33.4229 19.8915C33.5164 18.922 33.0368 17.9176 31.3778 15.628L32.7912 14.8015L32.6614 14.6227L32.2477 13.4796Z"/>
<path d="M31.6446 9.98791C31.6914 9.74106 31.7371 9.4951 31.785 9.24825C32.1146 7.54891 31.3957 6.43808 29.5666 5.66444C28.2362 5.10097 26.893 4.53572 25.6636 3.8372C24.9692 3.44278 24.4172 2.82029 23.9461 2.22015C23.6707 1.86776 23.6792 1.35796 23.6845 0.864258C24.748 2.58327 26.8111 3.04835 28.6062 3.82468C29.3826 4.16008 30.2014 4.43376 30.931 4.83355C33.1207 6.04008 33.4844 8.28947 31.6446 9.98791Z"/>
<path d="M27.8932 15.8032C27.0042 16.5027 26.2065 16.6976 25.4898 16.3542C24.8953 16.0662 24.7145 15.6387 24.9814 15.0949C23.9318 14.6298 23.0098 14.6343 22.2419 15.5689C22.1739 14.6531 22.8385 13.9671 23.8616 13.9358C24.704 13.8996 25.5481 13.9729 26.3639 14.1531C27.5178 14.4295 28.6185 14.8623 29.7426 15.2264L29.7607 15.4249L27.8932 15.8032Z"/>
<path d="M28.6628 22.3459C29.5669 21.3471 31.5475 21.1898 33.2478 21.84C33.3807 23.2967 33.3858 24.7267 31.6433 25.6603C32.6108 27.0581 32.3391 28.3807 31.447 29.6193C30.7027 30.6558 30.2929 31.7458 30.0876 32.9396C29.4677 36.534 27.0344 38.2774 22.7107 38.3957C21.502 38.4204 20.2983 38.5459 19.1189 38.7697C17.5326 39.0738 16.281 39.8822 15.2517 40.9425C15.4869 39.8892 16.2002 39.1216 17.1423 38.4894C18.6055 37.5059 20.3326 37.1083 22.155 36.9572C22.4079 36.9358 22.6638 36.9436 22.9167 36.923C26.2492 36.6475 27.894 35.3888 28.447 32.6085C28.6918 31.3687 29.2914 30.1971 30.1941 29.1955C30.7448 28.5695 31.0851 27.789 31.4041 27.0441C31.54 26.7267 31.3828 26.3197 31.3562 25.9201C28.2171 26.2456 25.0141 26.0518 22.7585 28.3302L22.614 28.1896C22.8914 27.891 23.1405 27.5632 23.4519 27.2951C24.8938 26.0335 26.7486 25.5356 28.7498 25.3048C29.1122 25.2628 29.4764 25.2234 29.8367 25.1662C31.4484 24.9103 32.1244 24.1229 31.9226 22.7433C30.8029 22.4598 30.0842 22.615 29.3962 23.3634C28.5647 24.2675 27.4944 24.8569 26.1716 25.0626C24.4854 25.3203 23.2539 26.0469 22.2937 27.2414C21.124 28.7009 19.5474 29.7455 17.3728 29.9835C17.0669 30.0175 16.7552 30.0312 16.446 30.0402C16.2924 30.0436 16.1427 29.9963 16.0291 29.9093C16.2228 29.8393 16.4238 29.7826 16.6287 29.7404C18.5925 29.4639 20.0225 28.5307 21.1199 27.1867C21.359 26.8943 21.5855 26.5934 21.8044 26.2921C22.5712 25.2297 23.6549 24.496 25.0916 24.2062C26.5281 23.9164 27.7292 23.3779 28.6628 22.3459Z"/>
<path d="M27.3845 29.7648C27.4047 29.9874 27.4722 30.2119 27.4373 30.4318C27.0853 32.5781 25.9382 34.2696 23.5203 35.2472C21.5776 36.0411 19.3989 36.3351 17.2585 36.0919C14.7605 35.8236 12.2536 36.5876 11.6218 38.9093C11.6067 38.9655 11.5296 39.0102 11.3738 39.1769C11.2931 37.6987 11.8691 36.6206 13.1707 35.8283C14.1882 35.2079 15.3596 35.0143 16.5994 34.966C18.2537 34.9025 19.9203 34.8572 21.5544 34.6525C22.4954 34.5344 23.3839 34.1155 24.4099 33.799C22.7354 33.4681 21.2676 33.1382 19.7781 32.8976C18.5457 32.6982 17.4378 33.0513 16.4626 33.6916L15.5115 34.3136C15.4562 32.525 17.1965 30.9683 19.3689 30.8634C20.3217 30.8266 21.2758 30.9305 22.1853 31.172C24.4363 31.7631 25.2179 31.628 26.78 30.1085C26.9124 29.9636 27.0332 29.811 27.1414 29.6525L27.3845 29.7648Z"/>
<path d="M20.4626 11.8322C20.5285 11.8201 20.6157 11.8536 20.821 11.883C20.5564 12.1163 20.3514 12.298 20.1462 12.4777C18.3384 14.0607 17.0822 15.926 16.241 17.9875C15.6859 19.3486 15.6313 20.7177 16.5203 22.1281C14.5326 21.1022 14.4093 18.5082 16.0544 15.1525C15.0144 15.428 13.9275 16.7425 13.7605 17.9445C13.5478 19.4202 14.0927 20.7378 14.9158 22.0168C15.3954 22.7608 15.8813 23.5371 16.1365 24.3419C16.633 25.9257 16.1783 27.4509 15.2937 28.8683C14.0283 30.8948 11.9758 32.1316 9.46948 32.8722L9.34741 32.7423C9.60886 32.5922 9.87006 32.4399 10.1326 32.2951C11.4595 31.5457 12.6148 30.6511 13.407 29.4699C14.584 27.7127 14.6319 25.9084 13.6199 24.0939C13.2995 23.5394 12.9392 23.001 12.5408 22.4835C11.4688 21.0525 10.3836 19.6345 10.8132 17.7912C10.1252 18.4298 9.91894 19.1792 9.90405 19.9591C9.87642 21.4256 9.8881 22.893 9.90405 24.3595C9.91237 25.5505 9.52694 26.721 8.79077 27.7384C7.6827 29.315 5.23975 30.0183 3.19702 29.3703C3.06188 29.3108 2.93116 29.2431 2.80737 29.1681C3.14293 29.1056 3.3465 29.0511 3.55151 29.0314C6.26727 28.7764 7.77463 27.4876 7.95972 25.1955C8.00934 24.4392 8.00326 23.6805 7.94019 22.925C7.75742 20.2895 8.85866 18.1119 11.1746 16.3429C13.6428 14.4568 16.3926 12.9613 19.5691 12.05C19.8624 11.9668 20.1619 11.8965 20.4626 11.8322Z"/>
<path d="M11.9998 9.19253C14.0489 8.05429 16.3605 8.05959 18.7 8.42984C18.7826 8.44328 18.8624 8.46945 18.9451 8.4855C20.6348 8.80748 22.3074 9.29655 24.0896 8.81363L24.1902 9.0187C23.7651 9.2556 23.3745 9.60488 22.908 9.70523C21.9043 9.91893 20.8804 10.0614 19.8484 10.131C18.616 10.2204 17.3646 10.138 16.1365 10.2453C13.7056 10.459 11.9739 11.6094 10.7722 13.3371C10.2469 14.091 9.84404 14.9049 9.37085 15.6847C8.8254 16.5789 8.14236 17.391 7.07397 17.9035C6.69661 18.0823 6.2791 18.2071 5.85815 18.3644C5.82734 18.235 5.79012 18.1704 5.8103 18.1525C6.97979 17.1187 7.48414 15.8353 7.86694 14.4787C8.14874 13.4825 8.61125 12.521 9.02808 11.464C8.65077 11.7205 8.2898 11.9317 7.97729 12.1837C5.98784 13.7935 5.0449 15.8462 4.46851 18.0578C4.17184 19.2114 3.89713 20.3744 3.49097 21.5021C3.17197 22.3883 2.45051 23.0175 1.25757 23.1125C1.10879 23.1241 0.951826 23.0817 0.735107 23.0031C2.22357 22.4664 2.32324 21.3788 2.4519 20.2716C2.59865 19.0034 2.70186 17.7134 3.073 16.4855C3.82281 14.0136 5.51906 12.0378 8.28394 10.9181C9.56775 10.4151 10.8096 9.83821 11.9998 9.19253Z"/>
<path d="M22.8835 11.7707C24.7435 10.8192 26.7692 10.747 28.8513 10.9992C29.241 11.0463 29.6315 11.0999 30.0212 11.1613C32.2679 11.5191 33.5785 12.5803 33.8943 14.4709C33.9686 14.9179 33.5623 15.4143 33.3347 15.9962C34.6959 18.7535 35.0359 19.8868 34.8318 21.171C34.6789 21.1621 34.52 21.1597 34.365 21.1427C33.2816 21.0256 32.2005 20.8921 31.116 20.7902C30.4302 20.7259 29.5483 20.8688 29.3259 20.1564C29.0995 19.4295 30.0247 19.2407 30.5427 18.8849C30.5758 18.862 30.6501 18.8751 30.8123 18.8644L29.906 19.882L29.9529 20.0832L33.4207 19.8918C33.5142 18.9223 33.0346 17.9175 31.3757 15.6281L32.7888 14.8019L32.6599 14.6232L32.2458 13.4796C28.9981 12.647 25.8644 11.2485 22.2605 12.4289L22.2039 12.1994C22.4218 12.0473 22.6486 11.9036 22.8835 11.7707Z"/>
<path d="M23.8601 13.9357C24.7022 13.8996 25.5465 13.9733 26.3621 14.1535C27.5157 14.4298 28.6171 14.8628 29.741 15.2267L29.7585 15.425L27.8914 15.8039C27.0026 16.5029 26.2046 16.6976 25.488 16.3546C24.8936 16.0666 24.7123 15.6387 24.9792 15.0949C23.9298 14.6299 23.0077 14.6352 22.24 15.5695C22.1719 14.6536 22.837 13.967 23.8601 13.9357Z"/>
<path d="M12.6609 4.73062C15.2918 3.0744 18.2477 2.51816 21.4539 3.27652C24.7503 4.05653 26.8924 6.47676 26.8435 9.2814C26.8471 9.5023 26.7624 9.71792 26.6033 9.8937C26.4896 9.7219 26.386 9.54502 26.2937 9.36441C24.3295 5.01361 19.5044 4.45812 15.6824 5.90054C14.4585 6.36109 13.3587 7.05429 12.2029 7.64273C10.9981 8.25532 9.82335 8.91572 8.58667 9.47378C6.88539 10.2383 5.0689 10.4458 3.17944 10.0373C2.97916 9.98266 2.78285 9.91668 2.59253 9.84097L2.6062 9.71695C2.95269 9.68299 3.29983 9.65374 3.64526 9.61441C5.3886 9.41902 7.02065 8.78236 8.32397 7.78921C9.73612 6.73752 11.153 5.67947 12.6609 4.73062Z"/>
<path d="M23.6824 0.864407C24.7458 2.58319 26.8092 3.04812 28.6042 3.82437C29.3805 4.15969 30.2 4.43441 30.9294 4.83413C33.1183 6.04072 33.4816 8.29024 31.6423 9.98843C31.6891 9.74161 31.7351 9.49502 31.783 9.2482C32.1125 7.54914 31.393 6.43781 29.5642 5.66421C28.2341 5.10087 26.891 4.5354 25.6619 3.83706C24.9675 3.44269 24.4152 2.81994 23.9441 2.21988C23.6689 1.8675 23.6771 1.35798 23.6824 0.864407Z"/>
</mask>
<path d="M20.8226 11.8831C20.5578 12.1166 20.3536 12.2981 20.1483 12.4779C18.3404 14.061 17.0845 15.9258 16.2433 17.9873C15.6881 19.3486 15.6328 20.7179 16.5219 22.1283C14.5343 21.1025 14.4109 18.5079 16.0561 15.1521C15.016 15.4276 13.9291 16.7423 13.7622 17.9444C13.5495 19.4201 14.0951 20.7376 14.9182 22.0165C15.3978 22.7607 15.8827 23.537 16.138 24.3419C16.6346 25.9259 16.1805 27.4508 15.2957 28.8684C14.0302 30.8951 11.9777 32.1312 9.47107 32.8717L9.34984 32.742C9.61145 32.5918 9.872 32.4397 10.1347 32.2948C11.4619 31.5453 12.6168 30.651 13.4091 29.4695C14.5864 27.712 14.6342 25.908 13.6218 24.0933C13.3014 23.5387 12.9409 23.001 12.5424 22.4834C11.4704 21.0524 10.3857 19.6348 10.8153 17.7914C10.1272 18.43 9.92092 19.1786 9.90603 19.9585C9.87838 21.4253 9.89008 22.893 9.90603 24.3598C9.91435 25.5509 9.52885 26.7205 8.79257 27.7379C7.68444 29.3147 5.24164 30.0186 3.19871 29.3702C3.06344 29.3106 2.93337 29.2431 2.80948 29.1681C3.14554 29.1055 3.34866 29.0509 3.55391 29.0312C6.27002 28.7763 7.77696 27.4875 7.962 25.1952C8.01163 24.4389 8.00488 23.6808 7.9418 22.9252C7.75888 20.2895 8.86064 18.1116 11.1769 16.3425C13.6452 14.4563 16.3943 12.9609 19.5709 12.0495C19.8644 11.9663 20.1632 11.8965 20.4642 11.8321C20.5301 11.8196 20.6163 11.8536 20.8226 11.8831Z" fill="url(#paint0_linear_3167_1154)"/>
<path d="M15.2533 40.9427C15.4883 39.8891 16.2019 39.1217 17.1441 38.4894C18.6075 37.5056 20.3345 37.1085 22.1573 36.9573C22.4104 36.9359 22.6657 36.943 22.9188 36.9224C26.2517 36.647 27.8958 35.3886 28.4488 32.6079C28.6936 31.3679 29.2933 30.1966 30.1961 29.1949C30.747 28.5689 31.0873 27.789 31.4064 27.0439C31.5425 26.7264 31.3851 26.3195 31.3585 25.9197C28.2191 26.2452 25.016 26.0512 22.7603 28.3301L22.6157 28.1896C22.8933 27.8909 23.1421 27.5636 23.4537 27.2952C24.8958 26.0333 26.7505 25.5351 28.7519 25.3043C29.1146 25.2623 29.4783 25.223 29.8388 25.1657C31.451 24.9099 32.1263 24.1229 31.9243 22.7428C30.8044 22.4593 30.0866 22.6149 29.3985 23.3635C28.5669 24.2677 27.497 24.8571 26.1741 25.0629C24.4874 25.3204 23.2559 26.0467 22.2956 27.2416C21.1258 28.7012 19.5497 29.7459 17.3749 29.9838C17.0686 30.0178 16.757 30.0312 16.4475 30.0401C16.2937 30.0435 16.1444 29.9967 16.0307 29.9095C16.2247 29.8394 16.4253 29.7828 16.6305 29.7405C18.5947 29.4641 20.024 28.5304 21.1215 27.1861C21.3608 26.8937 21.5873 26.5932 21.8064 26.2917C22.5732 25.2292 23.6568 24.4958 25.0936 24.206C26.5303 23.9162 27.731 23.3778 28.6647 22.3457C29.5687 21.3467 31.5489 21.1893 33.2494 21.8395C33.3823 23.2964 33.3887 24.7266 31.6456 25.6603C32.6134 27.0582 32.3412 28.3801 31.4489 29.6189C30.7045 30.6555 30.295 31.7457 30.0898 32.9397C29.4698 36.5343 27.0366 38.2774 22.7125 38.3955C21.5036 38.4203 20.3007 38.5455 19.1211 38.7694C17.5344 39.0735 16.2827 39.882 15.2533 40.9427Z" fill="url(#paint1_linear_3167_1154)"/>
<path d="M24.1923 9.01839C23.7669 9.2554 23.3766 9.60511 22.9098 9.70528C21.9059 9.91904 20.8824 10.0614 19.8501 10.131C18.6176 10.2204 17.3669 10.1382 16.1386 10.2455C13.7075 10.4593 11.9762 11.6094 10.7745 13.3374C10.2491 14.0914 9.84604 14.9044 9.3728 15.6843C8.82724 16.5787 8.14449 17.3908 7.0757 17.9032C6.69816 18.0821 6.28128 18.2073 5.86015 18.3647C5.8293 18.2351 5.79208 18.1707 5.81229 18.1528C6.98211 17.1189 7.48619 15.8354 7.86905 14.4786C8.15087 13.4823 8.61348 12.5208 9.03036 11.4637C8.65283 11.7203 8.29231 11.9314 7.97965 12.1836C5.98989 13.7935 5.04659 15.8461 4.47018 18.058C4.17348 19.2117 3.8991 20.3744 3.49285 21.5023C3.17381 22.3886 2.45277 23.0173 1.25956 23.1122C1.11067 23.1238 0.95434 23.0817 0.737391 23.003C2.22625 22.4664 2.32516 21.3788 2.45384 20.2716C2.6006 19.0033 2.70376 17.7136 3.07491 16.4856C3.82466 14.0135 5.5209 12.0378 8.28593 10.9181C9.5699 10.415 10.8114 9.83855 12.0017 9.1928C14.051 8.05424 16.3619 8.05961 18.7016 8.42989C18.7845 8.4433 18.8643 8.46924 18.9473 8.48534C20.6371 8.80732 22.3089 9.29655 24.0913 8.81358L24.1923 9.01839Z" fill="url(#paint2_linear_3167_1154)"/>
<path d="M2.60804 9.71688C2.95473 9.6829 3.30142 9.65338 3.64705 9.61403C5.39084 9.4187 7.02278 8.78206 8.32634 7.78858C9.73863 6.73678 11.1552 5.67962 12.6632 4.73067C15.2942 3.07426 18.2496 2.51795 21.456 3.27639C24.7527 4.0563 26.8946 6.47651 26.8457 9.28131C26.8493 9.50239 26.7647 9.71811 26.6053 9.89397C26.4916 9.72201 26.3883 9.54529 26.2958 9.3645C24.3316 5.0133 19.5066 4.45788 15.6845 5.90053C14.4605 6.36114 13.3608 7.05429 12.2048 7.6428C10.9999 8.25545 9.82583 8.91551 8.58901 9.47361C6.88746 10.2383 5.07104 10.4458 3.18125 10.0371C2.98078 9.98243 2.7847 9.917 2.59421 9.8412L2.60804 9.71688Z" fill="url(#paint3_linear_3167_1154)"/>
<path d="M15.5131 34.3134C15.4578 32.5247 17.1987 30.9675 19.3714 30.8629C20.3244 30.826 21.2777 30.9308 22.1874 31.1724C24.4388 31.7635 25.2194 31.6276 26.7816 30.108C26.9142 29.963 27.035 29.8106 27.1432 29.6519L27.3868 29.7646C27.407 29.9873 27.474 30.2118 27.4389 30.4318C27.0869 32.5783 25.9404 34.2696 23.5221 35.2472C21.5793 36.0411 19.4009 36.3348 17.2604 36.0915C14.7623 35.8232 12.2557 36.587 11.6239 38.9088C11.6091 38.9652 11.5325 39.0099 11.3762 39.1771C11.2953 37.6987 11.8707 36.621 13.1724 35.8285C14.1901 35.2078 15.361 35.0138 16.601 34.9655C18.2558 34.902 19.9222 34.8572 21.5568 34.6524C22.498 34.5344 23.386 34.1158 24.4122 33.7992C22.7372 33.4683 21.2697 33.1382 19.7797 32.8976C18.5472 32.6982 17.4401 33.0506 16.4649 33.691L15.5131 34.3134Z" fill="url(#paint4_linear_3167_1154)"/>
<path d="M32.2477 13.4796C28.9999 12.647 25.8669 11.2481 22.2628 12.4287L22.2053 12.1989C22.4235 12.0466 22.6507 11.9036 22.886 11.7705C24.746 10.8188 26.7708 10.7464 28.8531 10.9986C29.2431 11.0457 29.633 11.1 30.0229 11.1614C32.2701 11.5191 33.5802 12.5799 33.8961 14.4706C33.9705 14.9178 33.5643 15.4142 33.3367 15.9964C34.698 18.7538 35.0383 19.8861 34.8341 21.1705C34.6809 21.1615 34.5225 21.1597 34.3672 21.1427C33.2835 21.0256 32.2031 20.8923 31.1183 20.7904C30.4324 20.726 29.5497 20.8691 29.3274 20.1562C29.1009 19.4291 30.0272 19.2404 30.5451 18.8844C30.5781 18.8612 30.6514 18.8746 30.8142 18.8639L29.9081 19.8817L29.9549 20.0829L33.4229 19.8915C33.5164 18.922 33.0368 17.9176 31.3778 15.628L32.7912 14.8015L32.6614 14.6227L32.2477 13.4796Z" fill="url(#paint5_linear_3167_1154)"/>
<path d="M31.6446 9.98791C31.6914 9.74106 31.7371 9.4951 31.785 9.24825C32.1146 7.54891 31.3957 6.43808 29.5666 5.66444C28.2362 5.10097 26.893 4.53572 25.6636 3.8372C24.9692 3.44278 24.4172 2.82029 23.9461 2.22015C23.6707 1.86776 23.6792 1.35796 23.6845 0.864258C24.748 2.58327 26.8111 3.04835 28.6062 3.82468C29.3826 4.16008 30.2014 4.43376 30.931 4.83355C33.1207 6.04008 33.4844 8.28947 31.6446 9.98791Z" fill="url(#paint6_linear_3167_1154)"/>
<path d="M27.8932 15.8032C27.0042 16.5027 26.2065 16.6976 25.4898 16.3542C24.8953 16.0662 24.7145 15.6387 24.9814 15.0949C23.9318 14.6298 23.0098 14.6343 22.2419 15.5689C22.1739 14.6531 22.8385 13.9671 23.8616 13.9358C24.704 13.8996 25.5481 13.9729 26.3639 14.1531C27.5178 14.4295 28.6185 14.8623 29.7426 15.2264L29.7607 15.4249L27.8932 15.8032Z" fill="url(#paint7_linear_3167_1154)"/>
<path d="M28.6628 22.3459C29.5669 21.3471 31.5475 21.1898 33.2478 21.84C33.3807 23.2967 33.3858 24.7267 31.6433 25.6603C32.6108 27.0581 32.3391 28.3807 31.447 29.6193C30.7027 30.6558 30.2929 31.7458 30.0876 32.9396C29.4677 36.534 27.0344 38.2774 22.7107 38.3957C21.502 38.4204 20.2983 38.5459 19.1189 38.7697C17.5326 39.0738 16.281 39.8822 15.2517 40.9425C15.4869 39.8892 16.2002 39.1216 17.1423 38.4894C18.6055 37.5059 20.3326 37.1083 22.155 36.9572C22.4079 36.9358 22.6638 36.9436 22.9167 36.923C26.2492 36.6475 27.894 35.3888 28.447 32.6085C28.6918 31.3687 29.2914 30.1971 30.1941 29.1955C30.7448 28.5695 31.0851 27.789 31.4041 27.0441C31.54 26.7267 31.3828 26.3197 31.3562 25.9201C28.2171 26.2456 25.0141 26.0518 22.7585 28.3302L22.614 28.1896C22.8914 27.891 23.1405 27.5632 23.4519 27.2951C24.8938 26.0335 26.7486 25.5356 28.7498 25.3048C29.1122 25.2628 29.4764 25.2234 29.8367 25.1662C31.4484 24.9103 32.1244 24.1229 31.9226 22.7433C30.8029 22.4598 30.0842 22.615 29.3962 23.3634C28.5647 24.2675 27.4944 24.8569 26.1716 25.0626C24.4854 25.3203 23.2539 26.0469 22.2937 27.2414C21.124 28.7009 19.5474 29.7455 17.3728 29.9835C17.0669 30.0175 16.7552 30.0312 16.446 30.0402C16.2924 30.0436 16.1427 29.9963 16.0291 29.9093C16.2228 29.8393 16.4238 29.7826 16.6287 29.7404C18.5925 29.4639 20.0225 28.5307 21.1199 27.1867C21.359 26.8943 21.5855 26.5934 21.8044 26.2921C22.5712 25.2297 23.6549 24.496 25.0916 24.2062C26.5281 23.9164 27.7292 23.3779 28.6628 22.3459Z" fill="url(#paint8_linear_3167_1154)"/>
<path d="M27.3845 29.7648C27.4047 29.9874 27.4722 30.2119 27.4373 30.4318C27.0853 32.5781 25.9382 34.2696 23.5203 35.2472C21.5776 36.0411 19.3989 36.3351 17.2585 36.0919C14.7605 35.8236 12.2536 36.5876 11.6218 38.9093C11.6067 38.9655 11.5296 39.0102 11.3738 39.1769C11.2931 37.6987 11.8691 36.6206 13.1707 35.8283C14.1882 35.2079 15.3596 35.0143 16.5994 34.966C18.2537 34.9025 19.9203 34.8572 21.5544 34.6525C22.4954 34.5344 23.3839 34.1155 24.4099 33.799C22.7354 33.4681 21.2676 33.1382 19.7781 32.8976C18.5457 32.6982 17.4378 33.0513 16.4626 33.6916L15.5115 34.3136C15.4562 32.525 17.1965 30.9683 19.3689 30.8634C20.3217 30.8266 21.2758 30.9305 22.1853 31.172C24.4363 31.7631 25.2179 31.628 26.78 30.1085C26.9124 29.9636 27.0332 29.811 27.1414 29.6525L27.3845 29.7648Z" fill="url(#paint9_linear_3167_1154)"/>
<path d="M20.4626 11.8322C20.5285 11.8201 20.6157 11.8536 20.821 11.883C20.5564 12.1163 20.3514 12.298 20.1462 12.4777C18.3384 14.0607 17.0822 15.926 16.241 17.9875C15.6859 19.3486 15.6313 20.7177 16.5203 22.1281C14.5326 21.1022 14.4093 18.5082 16.0544 15.1525C15.0144 15.428 13.9275 16.7425 13.7605 17.9445C13.5478 19.4202 14.0927 20.7378 14.9158 22.0168C15.3954 22.7608 15.8813 23.5371 16.1365 24.3419C16.633 25.9257 16.1783 27.4509 15.2937 28.8683C14.0283 30.8948 11.9758 32.1316 9.46948 32.8722L9.34741 32.7423C9.60886 32.5922 9.87006 32.4399 10.1326 32.2951C11.4595 31.5457 12.6148 30.6511 13.407 29.4699C14.584 27.7127 14.6319 25.9084 13.6199 24.0939C13.2995 23.5394 12.9392 23.001 12.5408 22.4835C11.4688 21.0525 10.3836 19.6345 10.8132 17.7912C10.1252 18.4298 9.91894 19.1792 9.90405 19.9591C9.87642 21.4256 9.8881 22.893 9.90405 24.3595C9.91237 25.5505 9.52694 26.721 8.79077 27.7384C7.6827 29.315 5.23975 30.0183 3.19702 29.3703C3.06188 29.3108 2.93116 29.2431 2.80737 29.1681C3.14293 29.1056 3.3465 29.0511 3.55151 29.0314C6.26727 28.7764 7.77463 27.4876 7.95972 25.1955C8.00934 24.4392 8.00326 23.6805 7.94019 22.925C7.75742 20.2895 8.85866 18.1119 11.1746 16.3429C13.6428 14.4568 16.3926 12.9613 19.5691 12.05C19.8624 11.9668 20.1619 11.8965 20.4626 11.8322Z" fill="url(#paint10_linear_3167_1154)"/>
<path d="M11.9998 9.19253C14.0489 8.05429 16.3605 8.05959 18.7 8.42984C18.7826 8.44328 18.8624 8.46945 18.9451 8.4855C20.6348 8.80748 22.3074 9.29655 24.0896 8.81363L24.1902 9.0187C23.7651 9.2556 23.3745 9.60488 22.908 9.70523C21.9043 9.91893 20.8804 10.0614 19.8484 10.131C18.616 10.2204 17.3646 10.138 16.1365 10.2453C13.7056 10.459 11.9739 11.6094 10.7722 13.3371C10.2469 14.091 9.84404 14.9049 9.37085 15.6847C8.8254 16.5789 8.14236 17.391 7.07397 17.9035C6.69661 18.0823 6.2791 18.2071 5.85815 18.3644C5.82734 18.235 5.79012 18.1704 5.8103 18.1525C6.97979 17.1187 7.48414 15.8353 7.86694 14.4787C8.14874 13.4825 8.61125 12.521 9.02808 11.464C8.65077 11.7205 8.2898 11.9317 7.97729 12.1837C5.98784 13.7935 5.0449 15.8462 4.46851 18.0578C4.17184 19.2114 3.89713 20.3744 3.49097 21.5021C3.17197 22.3883 2.45051 23.0175 1.25757 23.1125C1.10879 23.1241 0.951826 23.0817 0.735107 23.0031C2.22357 22.4664 2.32324 21.3788 2.4519 20.2716C2.59865 19.0034 2.70186 17.7134 3.073 16.4855C3.82281 14.0136 5.51906 12.0378 8.28394 10.9181C9.56775 10.4151 10.8096 9.83821 11.9998 9.19253Z" fill="url(#paint11_linear_3167_1154)"/>
<path d="M22.8835 11.7707C24.7435 10.8192 26.7692 10.747 28.8513 10.9992C29.241 11.0463 29.6315 11.0999 30.0212 11.1613C32.2679 11.5191 33.5785 12.5803 33.8943 14.4709C33.9686 14.9179 33.5623 15.4143 33.3347 15.9962C34.6959 18.7535 35.0359 19.8868 34.8318 21.171C34.6789 21.1621 34.52 21.1597 34.365 21.1427C33.2816 21.0256 32.2005 20.8921 31.116 20.7902C30.4302 20.7259 29.5483 20.8688 29.3259 20.1564C29.0995 19.4295 30.0247 19.2407 30.5427 18.8849C30.5758 18.862 30.6501 18.8751 30.8123 18.8644L29.906 19.882L29.9529 20.0832L33.4207 19.8918C33.5142 18.9223 33.0346 17.9175 31.3757 15.6281L32.7888 14.8019L32.6599 14.6232L32.2458 13.4796C28.9981 12.647 25.8644 11.2485 22.2605 12.4289L22.2039 12.1994C22.4218 12.0473 22.6486 11.9036 22.8835 11.7707Z" fill="url(#paint12_linear_3167_1154)"/>
<path d="M23.8601 13.9357C24.7022 13.8996 25.5465 13.9733 26.3621 14.1535C27.5157 14.4298 28.6171 14.8628 29.741 15.2267L29.7585 15.425L27.8914 15.8039C27.0026 16.5029 26.2046 16.6976 25.488 16.3546C24.8936 16.0666 24.7123 15.6387 24.9792 15.0949C23.9298 14.6299 23.0077 14.6352 22.24 15.5695C22.1719 14.6536 22.837 13.967 23.8601 13.9357Z" fill="url(#paint13_linear_3167_1154)"/>
<path d="M12.6609 4.73062C15.2918 3.0744 18.2477 2.51816 21.4539 3.27652C24.7503 4.05653 26.8924 6.47676 26.8435 9.2814C26.8471 9.5023 26.7624 9.71792 26.6033 9.8937C26.4896 9.7219 26.386 9.54502 26.2937 9.36441C24.3295 5.01361 19.5044 4.45812 15.6824 5.90054C14.4585 6.36109 13.3587 7.05429 12.2029 7.64273C10.9981 8.25532 9.82335 8.91572 8.58667 9.47378C6.88539 10.2383 5.0689 10.4458 3.17944 10.0373C2.97916 9.98266 2.78285 9.91668 2.59253 9.84097L2.6062 9.71695C2.95269 9.68299 3.29983 9.65374 3.64526 9.61441C5.3886 9.41902 7.02065 8.78236 8.32397 7.78921C9.73612 6.73752 11.153 5.67947 12.6609 4.73062Z" fill="url(#paint14_linear_3167_1154)"/>
<path d="M23.6824 0.864407C24.7458 2.58319 26.8092 3.04812 28.6042 3.82437C29.3805 4.15969 30.2 4.43441 30.9294 4.83413C33.1183 6.04072 33.4816 8.29024 31.6423 9.98843C31.6891 9.74161 31.7351 9.49502 31.783 9.2482C32.1125 7.54914 31.393 6.43781 29.5642 5.66421C28.2341 5.10087 26.891 4.5354 25.6619 3.83706C24.9675 3.44269 24.4152 2.81994 23.9441 2.21988C23.6689 1.8675 23.6771 1.35798 23.6824 0.864407Z" fill="url(#paint15_linear_3167_1154)"/>
<path d="M20.8226 11.8831C20.5578 12.1166 20.3536 12.2981 20.1483 12.4779C18.3404 14.061 17.0845 15.9258 16.2433 17.9873C15.6881 19.3486 15.6328 20.7179 16.5219 22.1283C14.5343 21.1025 14.4109 18.5079 16.0561 15.1521C15.016 15.4276 13.9291 16.7423 13.7622 17.9444C13.5495 19.4201 14.0951 20.7376 14.9182 22.0165C15.3978 22.7607 15.8827 23.537 16.138 24.3419C16.6346 25.9259 16.1805 27.4508 15.2957 28.8684C14.0302 30.8951 11.9777 32.1312 9.47107 32.8717L9.34984 32.742C9.61145 32.5918 9.872 32.4397 10.1347 32.2948C11.4619 31.5453 12.6168 30.651 13.4091 29.4695C14.5864 27.712 14.6342 25.908 13.6218 24.0933C13.3014 23.5387 12.9409 23.001 12.5424 22.4834C11.4704 21.0524 10.3857 19.6348 10.8153 17.7914C10.1272 18.43 9.92092 19.1786 9.90603 19.9585C9.87838 21.4253 9.89008 22.893 9.90603 24.3598C9.91435 25.5509 9.52885 26.7205 8.79257 27.7379C7.68444 29.3147 5.24164 30.0186 3.19871 29.3702C3.06344 29.3106 2.93337 29.2431 2.80948 29.1681C3.14554 29.1055 3.34866 29.0509 3.55391 29.0312C6.27002 28.7763 7.77696 27.4875 7.962 25.1952C8.01163 24.4389 8.00488 23.6808 7.9418 22.9252C7.75888 20.2895 8.86064 18.1116 11.1769 16.3425C13.6452 14.4563 16.3943 12.9609 19.5709 12.0495C19.8644 11.9663 20.1632 11.8965 20.4642 11.8321C20.5301 11.8196 20.6163 11.8536 20.8226 11.8831Z" stroke="url(#paint16_linear_3167_1154)" stroke-width="0.5" mask="url(#path-1-outside-1_3167_1154)"/>
<path d="M15.2533 40.9427C15.4883 39.8891 16.2019 39.1217 17.1441 38.4894C18.6075 37.5056 20.3345 37.1085 22.1573 36.9573C22.4104 36.9359 22.6657 36.943 22.9188 36.9224C26.2517 36.647 27.8958 35.3886 28.4488 32.6079C28.6936 31.3679 29.2933 30.1966 30.1961 29.1949C30.747 28.5689 31.0873 27.789 31.4064 27.0439C31.5425 26.7264 31.3851 26.3195 31.3585 25.9197C28.2191 26.2452 25.016 26.0512 22.7603 28.3301L22.6157 28.1896C22.8933 27.8909 23.1421 27.5636 23.4537 27.2952C24.8958 26.0333 26.7505 25.5351 28.7519 25.3043C29.1146 25.2623 29.4783 25.223 29.8388 25.1657C31.451 24.9099 32.1263 24.1229 31.9243 22.7428C30.8044 22.4593 30.0866 22.6149 29.3985 23.3635C28.5669 24.2677 27.497 24.8571 26.1741 25.0629C24.4874 25.3204 23.2559 26.0467 22.2956 27.2416C21.1258 28.7012 19.5497 29.7459 17.3749 29.9838C17.0686 30.0178 16.757 30.0312 16.4475 30.0401C16.2937 30.0435 16.1444 29.9967 16.0307 29.9095C16.2247 29.8394 16.4253 29.7828 16.6305 29.7405C18.5947 29.4641 20.024 28.5304 21.1215 27.1861C21.3608 26.8937 21.5873 26.5932 21.8064 26.2917C22.5732 25.2292 23.6568 24.4958 25.0936 24.206C26.5303 23.9162 27.731 23.3778 28.6647 22.3457C29.5687 21.3467 31.5489 21.1893 33.2494 21.8395C33.3823 23.2964 33.3887 24.7266 31.6456 25.6603C32.6134 27.0582 32.3412 28.3801 31.4489 29.6189C30.7045 30.6555 30.295 31.7457 30.0898 32.9397C29.4698 36.5343 27.0366 38.2774 22.7125 38.3955C21.5036 38.4203 20.3007 38.5455 19.1211 38.7694C17.5344 39.0735 16.2827 39.882 15.2533 40.9427Z" stroke="url(#paint17_linear_3167_1154)" stroke-width="0.5" mask="url(#path-1-outside-1_3167_1154)"/>
<path d="M24.1923 9.01839C23.7669 9.2554 23.3766 9.60511 22.9098 9.70528C21.9059 9.91904 20.8824 10.0614 19.8501 10.131C18.6176 10.2204 17.3669 10.1382 16.1386 10.2455C13.7075 10.4593 11.9762 11.6094 10.7745 13.3374C10.2491 14.0914 9.84604 14.9044 9.3728 15.6843C8.82724 16.5787 8.14449 17.3908 7.0757 17.9032C6.69816 18.0821 6.28128 18.2073 5.86015 18.3647C5.8293 18.2351 5.79208 18.1707 5.81229 18.1528C6.98211 17.1189 7.48619 15.8354 7.86905 14.4786C8.15087 13.4823 8.61348 12.5208 9.03036 11.4637C8.65283 11.7203 8.29231 11.9314 7.97965 12.1836C5.98989 13.7935 5.04659 15.8461 4.47018 18.058C4.17348 19.2117 3.8991 20.3744 3.49285 21.5023C3.17381 22.3886 2.45277 23.0173 1.25956 23.1122C1.11067 23.1238 0.95434 23.0817 0.737391 23.003C2.22625 22.4664 2.32516 21.3788 2.45384 20.2716C2.6006 19.0033 2.70376 17.7136 3.07491 16.4856C3.82466 14.0135 5.5209 12.0378 8.28593 10.9181C9.5699 10.415 10.8114 9.83855 12.0017 9.1928C14.051 8.05424 16.3619 8.05961 18.7016 8.42989C18.7845 8.4433 18.8643 8.46924 18.9473 8.48534C20.6371 8.80732 22.3089 9.29655 24.0913 8.81358L24.1923 9.01839Z" stroke="url(#paint18_linear_3167_1154)" stroke-width="0.5" mask="url(#path-1-outside-1_3167_1154)"/>
<path d="M2.60804 9.71688C2.95473 9.6829 3.30142 9.65338 3.64705 9.61403C5.39084 9.4187 7.02278 8.78206 8.32634 7.78858C9.73863 6.73678 11.1552 5.67962 12.6632 4.73067C15.2942 3.07426 18.2496 2.51795 21.456 3.27639C24.7527 4.0563 26.8946 6.47651 26.8457 9.28131C26.8493 9.50239 26.7647 9.71811 26.6053 9.89397C26.4916 9.72201 26.3883 9.54529 26.2958 9.3645C24.3316 5.0133 19.5066 4.45788 15.6845 5.90053C14.4605 6.36114 13.3608 7.05429 12.2048 7.6428C10.9999 8.25545 9.82583 8.91551 8.58901 9.47361C6.88746 10.2383 5.07104 10.4458 3.18125 10.0371C2.98078 9.98243 2.7847 9.917 2.59421 9.8412L2.60804 9.71688Z" stroke="url(#paint19_linear_3167_1154)" stroke-width="0.5" mask="url(#path-1-outside-1_3167_1154)"/>
<path d="M15.5131 34.3134C15.4578 32.5247 17.1987 30.9675 19.3714 30.8629C20.3244 30.826 21.2777 30.9308 22.1874 31.1724C24.4388 31.7635 25.2194 31.6276 26.7816 30.108C26.9142 29.963 27.035 29.8106 27.1432 29.6519L27.3868 29.7646C27.407 29.9873 27.474 30.2118 27.4389 30.4318C27.0869 32.5783 25.9404 34.2696 23.5221 35.2472C21.5793 36.0411 19.4009 36.3348 17.2604 36.0915C14.7623 35.8232 12.2557 36.587 11.6239 38.9088C11.6091 38.9652 11.5325 39.0099 11.3762 39.1771C11.2953 37.6987 11.8707 36.621 13.1724 35.8285C14.1901 35.2078 15.361 35.0138 16.601 34.9655C18.2558 34.902 19.9222 34.8572 21.5568 34.6524C22.498 34.5344 23.386 34.1158 24.4122 33.7992C22.7372 33.4683 21.2697 33.1382 19.7797 32.8976C18.5472 32.6982 17.4401 33.0506 16.4649 33.691L15.5131 34.3134Z" stroke="url(#paint20_linear_3167_1154)" stroke-width="0.5" mask="url(#path-1-outside-1_3167_1154)"/>
<path d="M32.2477 13.4796C28.9999 12.647 25.8669 11.2481 22.2628 12.4287L22.2053 12.1989C22.4235 12.0466 22.6507 11.9036 22.886 11.7705C24.746 10.8188 26.7708 10.7464 28.8531 10.9986C29.2431 11.0457 29.633 11.1 30.0229 11.1614C32.2701 11.5191 33.5802 12.5799 33.8961 14.4706C33.9705 14.9178 33.5643 15.4142 33.3367 15.9964C34.698 18.7538 35.0383 19.8861 34.8341 21.1705C34.6809 21.1615 34.5225 21.1597 34.3672 21.1427C33.2835 21.0256 32.2031 20.8923 31.1183 20.7904C30.4324 20.726 29.5497 20.8691 29.3274 20.1562C29.1009 19.4291 30.0272 19.2404 30.5451 18.8844C30.5781 18.8612 30.6514 18.8746 30.8142 18.8639L29.9081 19.8817L29.9549 20.0829L33.4229 19.8915C33.5164 18.922 33.0368 17.9176 31.3778 15.628L32.7912 14.8015L32.6614 14.6227L32.2477 13.4796Z" stroke="url(#paint21_linear_3167_1154)" stroke-width="0.5" mask="url(#path-1-outside-1_3167_1154)"/>
<path d="M31.6446 9.98791C31.6914 9.74106 31.7371 9.4951 31.785 9.24825C32.1146 7.54891 31.3957 6.43808 29.5666 5.66444C28.2362 5.10097 26.893 4.53572 25.6636 3.8372C24.9692 3.44278 24.4172 2.82029 23.9461 2.22015C23.6707 1.86776 23.6792 1.35796 23.6845 0.864258C24.748 2.58327 26.8111 3.04835 28.6062 3.82468C29.3826 4.16008 30.2014 4.43376 30.931 4.83355C33.1207 6.04008 33.4844 8.28947 31.6446 9.98791Z" stroke="url(#paint22_linear_3167_1154)" stroke-width="0.5" mask="url(#path-1-outside-1_3167_1154)"/>
<path d="M27.8932 15.8032C27.0042 16.5027 26.2065 16.6976 25.4898 16.3542C24.8953 16.0662 24.7145 15.6387 24.9814 15.0949C23.9318 14.6298 23.0098 14.6343 22.2419 15.5689C22.1739 14.6531 22.8385 13.9671 23.8616 13.9358C24.704 13.8996 25.5481 13.9729 26.3639 14.1531C27.5178 14.4295 28.6185 14.8623 29.7426 15.2264L29.7607 15.4249L27.8932 15.8032Z" stroke="url(#paint23_linear_3167_1154)" stroke-width="0.5" mask="url(#path-1-outside-1_3167_1154)"/>
<path d="M28.6628 22.3459C29.5669 21.3471 31.5475 21.1898 33.2478 21.84C33.3807 23.2967 33.3858 24.7267 31.6433 25.6603C32.6108 27.0581 32.3391 28.3807 31.447 29.6193C30.7027 30.6558 30.2929 31.7458 30.0876 32.9396C29.4677 36.534 27.0344 38.2774 22.7107 38.3957C21.502 38.4204 20.2983 38.5459 19.1189 38.7697C17.5326 39.0738 16.281 39.8822 15.2517 40.9425C15.4869 39.8892 16.2002 39.1216 17.1423 38.4894C18.6055 37.5059 20.3326 37.1083 22.155 36.9572C22.4079 36.9358 22.6638 36.9436 22.9167 36.923C26.2492 36.6475 27.894 35.3888 28.447 32.6085C28.6918 31.3687 29.2914 30.1971 30.1941 29.1955C30.7448 28.5695 31.0851 27.789 31.4041 27.0441C31.54 26.7267 31.3828 26.3197 31.3562 25.9201C28.2171 26.2456 25.0141 26.0518 22.7585 28.3302L22.614 28.1896C22.8914 27.891 23.1405 27.5632 23.4519 27.2951C24.8938 26.0335 26.7486 25.5356 28.7498 25.3048C29.1122 25.2628 29.4764 25.2234 29.8367 25.1662C31.4484 24.9103 32.1244 24.1229 31.9226 22.7433C30.8029 22.4598 30.0842 22.615 29.3962 23.3634C28.5647 24.2675 27.4944 24.8569 26.1716 25.0626C24.4854 25.3203 23.2539 26.0469 22.2937 27.2414C21.124 28.7009 19.5474 29.7455 17.3728 29.9835C17.0669 30.0175 16.7552 30.0312 16.446 30.0402C16.2924 30.0436 16.1427 29.9963 16.0291 29.9093C16.2228 29.8393 16.4238 29.7826 16.6287 29.7404C18.5925 29.4639 20.0225 28.5307 21.1199 27.1867C21.359 26.8943 21.5855 26.5934 21.8044 26.2921C22.5712 25.2297 23.6549 24.496 25.0916 24.2062C26.5281 23.9164 27.7292 23.3779 28.6628 22.3459Z" stroke="url(#paint24_linear_3167_1154)" stroke-width="0.5" mask="url(#path-1-outside-1_3167_1154)"/>
<path d="M27.3845 29.7648C27.4047 29.9874 27.4722 30.2119 27.4373 30.4318C27.0853 32.5781 25.9382 34.2696 23.5203 35.2472C21.5776 36.0411 19.3989 36.3351 17.2585 36.0919C14.7605 35.8236 12.2536 36.5876 11.6218 38.9093C11.6067 38.9655 11.5296 39.0102 11.3738 39.1769C11.2931 37.6987 11.8691 36.6206 13.1707 35.8283C14.1882 35.2079 15.3596 35.0143 16.5994 34.966C18.2537 34.9025 19.9203 34.8572 21.5544 34.6525C22.4954 34.5344 23.3839 34.1155 24.4099 33.799C22.7354 33.4681 21.2676 33.1382 19.7781 32.8976C18.5457 32.6982 17.4378 33.0513 16.4626 33.6916L15.5115 34.3136C15.4562 32.525 17.1965 30.9683 19.3689 30.8634C20.3217 30.8266 21.2758 30.9305 22.1853 31.172C24.4363 31.7631 25.2179 31.628 26.78 30.1085C26.9124 29.9636 27.0332 29.811 27.1414 29.6525L27.3845 29.7648Z" stroke="url(#paint25_linear_3167_1154)" stroke-width="0.5" mask="url(#path-1-outside-1_3167_1154)"/>
<path d="M20.4626 11.8322C20.5285 11.8201 20.6157 11.8536 20.821 11.883C20.5564 12.1163 20.3514 12.298 20.1462 12.4777C18.3384 14.0607 17.0822 15.926 16.241 17.9875C15.6859 19.3486 15.6313 20.7177 16.5203 22.1281C14.5326 21.1022 14.4093 18.5082 16.0544 15.1525C15.0144 15.428 13.9275 16.7425 13.7605 17.9445C13.5478 19.4202 14.0927 20.7378 14.9158 22.0168C15.3954 22.7608 15.8813 23.5371 16.1365 24.3419C16.633 25.9257 16.1783 27.4509 15.2937 28.8683C14.0283 30.8948 11.9758 32.1316 9.46948 32.8722L9.34741 32.7423C9.60886 32.5922 9.87006 32.4399 10.1326 32.2951C11.4595 31.5457 12.6148 30.6511 13.407 29.4699C14.584 27.7127 14.6319 25.9084 13.6199 24.0939C13.2995 23.5394 12.9392 23.001 12.5408 22.4835C11.4688 21.0525 10.3836 19.6345 10.8132 17.7912C10.1252 18.4298 9.91894 19.1792 9.90405 19.9591C9.87642 21.4256 9.8881 22.893 9.90405 24.3595C9.91237 25.5505 9.52694 26.721 8.79077 27.7384C7.6827 29.315 5.23975 30.0183 3.19702 29.3703C3.06188 29.3108 2.93116 29.2431 2.80737 29.1681C3.14293 29.1056 3.3465 29.0511 3.55151 29.0314C6.26727 28.7764 7.77463 27.4876 7.95972 25.1955C8.00934 24.4392 8.00326 23.6805 7.94019 22.925C7.75742 20.2895 8.85866 18.1119 11.1746 16.3429C13.6428 14.4568 16.3926 12.9613 19.5691 12.05C19.8624 11.9668 20.1619 11.8965 20.4626 11.8322Z" stroke="url(#paint26_linear_3167_1154)" stroke-width="0.5" mask="url(#path-1-outside-1_3167_1154)"/>
<path d="M11.9998 9.19253C14.0489 8.05429 16.3605 8.05959 18.7 8.42984C18.7826 8.44328 18.8624 8.46945 18.9451 8.4855C20.6348 8.80748 22.3074 9.29655 24.0896 8.81363L24.1902 9.0187C23.7651 9.2556 23.3745 9.60488 22.908 9.70523C21.9043 9.91893 20.8804 10.0614 19.8484 10.131C18.616 10.2204 17.3646 10.138 16.1365 10.2453C13.7056 10.459 11.9739 11.6094 10.7722 13.3371C10.2469 14.091 9.84404 14.9049 9.37085 15.6847C8.8254 16.5789 8.14236 17.391 7.07397 17.9035C6.69661 18.0823 6.2791 18.2071 5.85815 18.3644C5.82734 18.235 5.79012 18.1704 5.8103 18.1525C6.97979 17.1187 7.48414 15.8353 7.86694 14.4787C8.14874 13.4825 8.61125 12.521 9.02808 11.464C8.65077 11.7205 8.2898 11.9317 7.97729 12.1837C5.98784 13.7935 5.0449 15.8462 4.46851 18.0578C4.17184 19.2114 3.89713 20.3744 3.49097 21.5021C3.17197 22.3883 2.45051 23.0175 1.25757 23.1125C1.10879 23.1241 0.951826 23.0817 0.735107 23.0031C2.22357 22.4664 2.32324 21.3788 2.4519 20.2716C2.59865 19.0034 2.70186 17.7134 3.073 16.4855C3.82281 14.0136 5.51906 12.0378 8.28394 10.9181C9.56775 10.4151 10.8096 9.83821 11.9998 9.19253Z" stroke="url(#paint27_linear_3167_1154)" stroke-width="0.5" mask="url(#path-1-outside-1_3167_1154)"/>
<path d="M22.8835 11.7707C24.7435 10.8192 26.7692 10.747 28.8513 10.9992C29.241 11.0463 29.6315 11.0999 30.0212 11.1613C32.2679 11.5191 33.5785 12.5803 33.8943 14.4709C33.9686 14.9179 33.5623 15.4143 33.3347 15.9962C34.6959 18.7535 35.0359 19.8868 34.8318 21.171C34.6789 21.1621 34.52 21.1597 34.365 21.1427C33.2816 21.0256 32.2005 20.8921 31.116 20.7902C30.4302 20.7259 29.5483 20.8688 29.3259 20.1564C29.0995 19.4295 30.0247 19.2407 30.5427 18.8849C30.5758 18.862 30.6501 18.8751 30.8123 18.8644L29.906 19.882L29.9529 20.0832L33.4207 19.8918C33.5142 18.9223 33.0346 17.9175 31.3757 15.6281L32.7888 14.8019L32.6599 14.6232L32.2458 13.4796C28.9981 12.647 25.8644 11.2485 22.2605 12.4289L22.2039 12.1994C22.4218 12.0473 22.6486 11.9036 22.8835 11.7707Z" stroke="url(#paint28_linear_3167_1154)" stroke-width="0.5" mask="url(#path-1-outside-1_3167_1154)"/>
<path d="M23.8601 13.9357C24.7022 13.8996 25.5465 13.9733 26.3621 14.1535C27.5157 14.4298 28.6171 14.8628 29.741 15.2267L29.7585 15.425L27.8914 15.8039C27.0026 16.5029 26.2046 16.6976 25.488 16.3546C24.8936 16.0666 24.7123 15.6387 24.9792 15.0949C23.9298 14.6299 23.0077 14.6352 22.24 15.5695C22.1719 14.6536 22.837 13.967 23.8601 13.9357Z" stroke="url(#paint29_linear_3167_1154)" stroke-width="0.5" mask="url(#path-1-outside-1_3167_1154)"/>
<path d="M12.6609 4.73062C15.2918 3.0744 18.2477 2.51816 21.4539 3.27652C24.7503 4.05653 26.8924 6.47676 26.8435 9.2814C26.8471 9.5023 26.7624 9.71792 26.6033 9.8937C26.4896 9.7219 26.386 9.54502 26.2937 9.36441C24.3295 5.01361 19.5044 4.45812 15.6824 5.90054C14.4585 6.36109 13.3587 7.05429 12.2029 7.64273C10.9981 8.25532 9.82335 8.91572 8.58667 9.47378C6.88539 10.2383 5.0689 10.4458 3.17944 10.0373C2.97916 9.98266 2.78285 9.91668 2.59253 9.84097L2.6062 9.71695C2.95269 9.68299 3.29983 9.65374 3.64526 9.61441C5.3886 9.41902 7.02065 8.78236 8.32397 7.78921C9.73612 6.73752 11.153 5.67947 12.6609 4.73062Z" stroke="url(#paint30_linear_3167_1154)" stroke-width="0.5" mask="url(#path-1-outside-1_3167_1154)"/>
<path d="M23.6824 0.864407C24.7458 2.58319 26.8092 3.04812 28.6042 3.82437C29.3805 4.15969 30.2 4.43441 30.9294 4.83413C33.1183 6.04072 33.4816 8.29024 31.6423 9.98843C31.6891 9.74161 31.7351 9.49502 31.783 9.2482C32.1125 7.54914 31.393 6.43781 29.5642 5.66421C28.2341 5.10087 26.891 4.5354 25.6619 3.83706C24.9675 3.44269 24.4152 2.81994 23.9441 2.21988C23.6689 1.8675 23.6771 1.35798 23.6824 0.864407Z" stroke="url(#paint31_linear_3167_1154)" stroke-width="0.5" mask="url(#path-1-outside-1_3167_1154)"/>
</g>
<defs>
<clipPath id="bgblur_0_3167_1154_clip_path" transform="translate(0 0)"><path d="M20.8226 11.8831C20.5578 12.1166 20.3536 12.2981 20.1483 12.4779C18.3404 14.061 17.0845 15.9258 16.2433 17.9873C15.6881 19.3486 15.6328 20.7179 16.5219 22.1283C14.5343 21.1025 14.4109 18.5079 16.0561 15.1521C15.016 15.4276 13.9291 16.7423 13.7622 17.9444C13.5495 19.4201 14.0951 20.7376 14.9182 22.0165C15.3978 22.7607 15.8827 23.537 16.138 24.3419C16.6346 25.9259 16.1805 27.4508 15.2957 28.8684C14.0302 30.8951 11.9777 32.1312 9.47107 32.8717L9.34984 32.742C9.61145 32.5918 9.872 32.4397 10.1347 32.2948C11.4619 31.5453 12.6168 30.651 13.4091 29.4695C14.5864 27.712 14.6342 25.908 13.6218 24.0933C13.3014 23.5387 12.9409 23.001 12.5424 22.4834C11.4704 21.0524 10.3857 19.6348 10.8153 17.7914C10.1272 18.43 9.92092 19.1786 9.90603 19.9585C9.87838 21.4253 9.89008 22.893 9.90603 24.3598C9.91435 25.5509 9.52885 26.7205 8.79257 27.7379C7.68444 29.3147 5.24164 30.0186 3.19871 29.3702C3.06344 29.3106 2.93337 29.2431 2.80948 29.1681C3.14554 29.1055 3.34866 29.0509 3.55391 29.0312C6.27002 28.7763 7.77696 27.4875 7.962 25.1952C8.01163 24.4389 8.00488 23.6808 7.9418 22.9252C7.75888 20.2895 8.86064 18.1116 11.1769 16.3425C13.6452 14.4563 16.3943 12.9609 19.5709 12.0495C19.8644 11.9663 20.1632 11.8965 20.4642 11.8321C20.5301 11.8196 20.6163 11.8536 20.8226 11.8831Z"/>
<path d="M15.2533 40.9427C15.4883 39.8891 16.2019 39.1217 17.1441 38.4894C18.6075 37.5056 20.3345 37.1085 22.1573 36.9573C22.4104 36.9359 22.6657 36.943 22.9188 36.9224C26.2517 36.647 27.8958 35.3886 28.4488 32.6079C28.6936 31.3679 29.2933 30.1966 30.1961 29.1949C30.747 28.5689 31.0873 27.789 31.4064 27.0439C31.5425 26.7264 31.3851 26.3195 31.3585 25.9197C28.2191 26.2452 25.016 26.0512 22.7603 28.3301L22.6157 28.1896C22.8933 27.8909 23.1421 27.5636 23.4537 27.2952C24.8958 26.0333 26.7505 25.5351 28.7519 25.3043C29.1146 25.2623 29.4783 25.223 29.8388 25.1657C31.451 24.9099 32.1263 24.1229 31.9243 22.7428C30.8044 22.4593 30.0866 22.6149 29.3985 23.3635C28.5669 24.2677 27.497 24.8571 26.1741 25.0629C24.4874 25.3204 23.2559 26.0467 22.2956 27.2416C21.1258 28.7012 19.5497 29.7459 17.3749 29.9838C17.0686 30.0178 16.757 30.0312 16.4475 30.0401C16.2937 30.0435 16.1444 29.9967 16.0307 29.9095C16.2247 29.8394 16.4253 29.7828 16.6305 29.7405C18.5947 29.4641 20.024 28.5304 21.1215 27.1861C21.3608 26.8937 21.5873 26.5932 21.8064 26.2917C22.5732 25.2292 23.6568 24.4958 25.0936 24.206C26.5303 23.9162 27.731 23.3778 28.6647 22.3457C29.5687 21.3467 31.5489 21.1893 33.2494 21.8395C33.3823 23.2964 33.3887 24.7266 31.6456 25.6603C32.6134 27.0582 32.3412 28.3801 31.4489 29.6189C30.7045 30.6555 30.295 31.7457 30.0898 32.9397C29.4698 36.5343 27.0366 38.2774 22.7125 38.3955C21.5036 38.4203 20.3007 38.5455 19.1211 38.7694C17.5344 39.0735 16.2827 39.882 15.2533 40.9427Z"/>
<path d="M24.1923 9.01839C23.7669 9.2554 23.3766 9.60511 22.9098 9.70528C21.9059 9.91904 20.8824 10.0614 19.8501 10.131C18.6176 10.2204 17.3669 10.1382 16.1386 10.2455C13.7075 10.4593 11.9762 11.6094 10.7745 13.3374C10.2491 14.0914 9.84604 14.9044 9.3728 15.6843C8.82724 16.5787 8.14449 17.3908 7.0757 17.9032C6.69816 18.0821 6.28128 18.2073 5.86015 18.3647C5.8293 18.2351 5.79208 18.1707 5.81229 18.1528C6.98211 17.1189 7.48619 15.8354 7.86905 14.4786C8.15087 13.4823 8.61348 12.5208 9.03036 11.4637C8.65283 11.7203 8.29231 11.9314 7.97965 12.1836C5.98989 13.7935 5.04659 15.8461 4.47018 18.058C4.17348 19.2117 3.8991 20.3744 3.49285 21.5023C3.17381 22.3886 2.45277 23.0173 1.25956 23.1122C1.11067 23.1238 0.95434 23.0817 0.737391 23.003C2.22625 22.4664 2.32516 21.3788 2.45384 20.2716C2.6006 19.0033 2.70376 17.7136 3.07491 16.4856C3.82466 14.0135 5.5209 12.0378 8.28593 10.9181C9.5699 10.415 10.8114 9.83855 12.0017 9.1928C14.051 8.05424 16.3619 8.05961 18.7016 8.42989C18.7845 8.4433 18.8643 8.46924 18.9473 8.48534C20.6371 8.80732 22.3089 9.29655 24.0913 8.81358L24.1923 9.01839Z"/>
<path d="M2.60804 9.71688C2.95473 9.6829 3.30142 9.65338 3.64705 9.61403C5.39084 9.4187 7.02278 8.78206 8.32634 7.78858C9.73863 6.73678 11.1552 5.67962 12.6632 4.73067C15.2942 3.07426 18.2496 2.51795 21.456 3.27639C24.7527 4.0563 26.8946 6.47651 26.8457 9.28131C26.8493 9.50239 26.7647 9.71811 26.6053 9.89397C26.4916 9.72201 26.3883 9.54529 26.2958 9.3645C24.3316 5.0133 19.5066 4.45788 15.6845 5.90053C14.4605 6.36114 13.3608 7.05429 12.2048 7.6428C10.9999 8.25545 9.82583 8.91551 8.58901 9.47361C6.88746 10.2383 5.07104 10.4458 3.18125 10.0371C2.98078 9.98243 2.7847 9.917 2.59421 9.8412L2.60804 9.71688Z"/>
<path d="M15.5131 34.3134C15.4578 32.5247 17.1987 30.9675 19.3714 30.8629C20.3244 30.826 21.2777 30.9308 22.1874 31.1724C24.4388 31.7635 25.2194 31.6276 26.7816 30.108C26.9142 29.963 27.035 29.8106 27.1432 29.6519L27.3868 29.7646C27.407 29.9873 27.474 30.2118 27.4389 30.4318C27.0869 32.5783 25.9404 34.2696 23.5221 35.2472C21.5793 36.0411 19.4009 36.3348 17.2604 36.0915C14.7623 35.8232 12.2557 36.587 11.6239 38.9088C11.6091 38.9652 11.5325 39.0099 11.3762 39.1771C11.2953 37.6987 11.8707 36.621 13.1724 35.8285C14.1901 35.2078 15.361 35.0138 16.601 34.9655C18.2558 34.902 19.9222 34.8572 21.5568 34.6524C22.498 34.5344 23.386 34.1158 24.4122 33.7992C22.7372 33.4683 21.2697 33.1382 19.7797 32.8976C18.5472 32.6982 17.4401 33.0506 16.4649 33.691L15.5131 34.3134Z"/>
<path d="M32.2477 13.4796C28.9999 12.647 25.8669 11.2481 22.2628 12.4287L22.2053 12.1989C22.4235 12.0466 22.6507 11.9036 22.886 11.7705C24.746 10.8188 26.7708 10.7464 28.8531 10.9986C29.2431 11.0457 29.633 11.1 30.0229 11.1614C32.2701 11.5191 33.5802 12.5799 33.8961 14.4706C33.9705 14.9178 33.5643 15.4142 33.3367 15.9964C34.698 18.7538 35.0383 19.8861 34.8341 21.1705C34.6809 21.1615 34.5225 21.1597 34.3672 21.1427C33.2835 21.0256 32.2031 20.8923 31.1183 20.7904C30.4324 20.726 29.5497 20.8691 29.3274 20.1562C29.1009 19.4291 30.0272 19.2404 30.5451 18.8844C30.5781 18.8612 30.6514 18.8746 30.8142 18.8639L29.9081 19.8817L29.9549 20.0829L33.4229 19.8915C33.5164 18.922 33.0368 17.9176 31.3778 15.628L32.7912 14.8015L32.6614 14.6227L32.2477 13.4796Z"/>
<path d="M31.6446 9.98791C31.6914 9.74106 31.7371 9.4951 31.785 9.24825C32.1146 7.54891 31.3957 6.43808 29.5666 5.66444C28.2362 5.10097 26.893 4.53572 25.6636 3.8372C24.9692 3.44278 24.4172 2.82029 23.9461 2.22015C23.6707 1.86776 23.6792 1.35796 23.6845 0.864258C24.748 2.58327 26.8111 3.04835 28.6062 3.82468C29.3826 4.16008 30.2014 4.43376 30.931 4.83355C33.1207 6.04008 33.4844 8.28947 31.6446 9.98791Z"/>
<path d="M27.8932 15.8032C27.0042 16.5027 26.2065 16.6976 25.4898 16.3542C24.8953 16.0662 24.7145 15.6387 24.9814 15.0949C23.9318 14.6298 23.0098 14.6343 22.2419 15.5689C22.1739 14.6531 22.8385 13.9671 23.8616 13.9358C24.704 13.8996 25.5481 13.9729 26.3639 14.1531C27.5178 14.4295 28.6185 14.8623 29.7426 15.2264L29.7607 15.4249L27.8932 15.8032Z"/>
<path d="M28.6628 22.3459C29.5669 21.3471 31.5475 21.1898 33.2478 21.84C33.3807 23.2967 33.3858 24.7267 31.6433 25.6603C32.6108 27.0581 32.3391 28.3807 31.447 29.6193C30.7027 30.6558 30.2929 31.7458 30.0876 32.9396C29.4677 36.534 27.0344 38.2774 22.7107 38.3957C21.502 38.4204 20.2983 38.5459 19.1189 38.7697C17.5326 39.0738 16.281 39.8822 15.2517 40.9425C15.4869 39.8892 16.2002 39.1216 17.1423 38.4894C18.6055 37.5059 20.3326 37.1083 22.155 36.9572C22.4079 36.9358 22.6638 36.9436 22.9167 36.923C26.2492 36.6475 27.894 35.3888 28.447 32.6085C28.6918 31.3687 29.2914 30.1971 30.1941 29.1955C30.7448 28.5695 31.0851 27.789 31.4041 27.0441C31.54 26.7267 31.3828 26.3197 31.3562 25.9201C28.2171 26.2456 25.0141 26.0518 22.7585 28.3302L22.614 28.1896C22.8914 27.891 23.1405 27.5632 23.4519 27.2951C24.8938 26.0335 26.7486 25.5356 28.7498 25.3048C29.1122 25.2628 29.4764 25.2234 29.8367 25.1662C31.4484 24.9103 32.1244 24.1229 31.9226 22.7433C30.8029 22.4598 30.0842 22.615 29.3962 23.3634C28.5647 24.2675 27.4944 24.8569 26.1716 25.0626C24.4854 25.3203 23.2539 26.0469 22.2937 27.2414C21.124 28.7009 19.5474 29.7455 17.3728 29.9835C17.0669 30.0175 16.7552 30.0312 16.446 30.0402C16.2924 30.0436 16.1427 29.9963 16.0291 29.9093C16.2228 29.8393 16.4238 29.7826 16.6287 29.7404C18.5925 29.4639 20.0225 28.5307 21.1199 27.1867C21.359 26.8943 21.5855 26.5934 21.8044 26.2921C22.5712 25.2297 23.6549 24.496 25.0916 24.2062C26.5281 23.9164 27.7292 23.3779 28.6628 22.3459Z"/>
<path d="M27.3845 29.7648C27.4047 29.9874 27.4722 30.2119 27.4373 30.4318C27.0853 32.5781 25.9382 34.2696 23.5203 35.2472C21.5776 36.0411 19.3989 36.3351 17.2585 36.0919C14.7605 35.8236 12.2536 36.5876 11.6218 38.9093C11.6067 38.9655 11.5296 39.0102 11.3738 39.1769C11.2931 37.6987 11.8691 36.6206 13.1707 35.8283C14.1882 35.2079 15.3596 35.0143 16.5994 34.966C18.2537 34.9025 19.9203 34.8572 21.5544 34.6525C22.4954 34.5344 23.3839 34.1155 24.4099 33.799C22.7354 33.4681 21.2676 33.1382 19.7781 32.8976C18.5457 32.6982 17.4378 33.0513 16.4626 33.6916L15.5115 34.3136C15.4562 32.525 17.1965 30.9683 19.3689 30.8634C20.3217 30.8266 21.2758 30.9305 22.1853 31.172C24.4363 31.7631 25.2179 31.628 26.78 30.1085C26.9124 29.9636 27.0332 29.811 27.1414 29.6525L27.3845 29.7648Z"/>
<path d="M20.4626 11.8322C20.5285 11.8201 20.6157 11.8536 20.821 11.883C20.5564 12.1163 20.3514 12.298 20.1462 12.4777C18.3384 14.0607 17.0822 15.926 16.241 17.9875C15.6859 19.3486 15.6313 20.7177 16.5203 22.1281C14.5326 21.1022 14.4093 18.5082 16.0544 15.1525C15.0144 15.428 13.9275 16.7425 13.7605 17.9445C13.5478 19.4202 14.0927 20.7378 14.9158 22.0168C15.3954 22.7608 15.8813 23.5371 16.1365 24.3419C16.633 25.9257 16.1783 27.4509 15.2937 28.8683C14.0283 30.8948 11.9758 32.1316 9.46948 32.8722L9.34741 32.7423C9.60886 32.5922 9.87006 32.4399 10.1326 32.2951C11.4595 31.5457 12.6148 30.6511 13.407 29.4699C14.584 27.7127 14.6319 25.9084 13.6199 24.0939C13.2995 23.5394 12.9392 23.001 12.5408 22.4835C11.4688 21.0525 10.3836 19.6345 10.8132 17.7912C10.1252 18.4298 9.91894 19.1792 9.90405 19.9591C9.87642 21.4256 9.8881 22.893 9.90405 24.3595C9.91237 25.5505 9.52694 26.721 8.79077 27.7384C7.6827 29.315 5.23975 30.0183 3.19702 29.3703C3.06188 29.3108 2.93116 29.2431 2.80737 29.1681C3.14293 29.1056 3.3465 29.0511 3.55151 29.0314C6.26727 28.7764 7.77463 27.4876 7.95972 25.1955C8.00934 24.4392 8.00326 23.6805 7.94019 22.925C7.75742 20.2895 8.85866 18.1119 11.1746 16.3429C13.6428 14.4568 16.3926 12.9613 19.5691 12.05C19.8624 11.9668 20.1619 11.8965 20.4626 11.8322Z"/>
<path d="M11.9998 9.19253C14.0489 8.05429 16.3605 8.05959 18.7 8.42984C18.7826 8.44328 18.8624 8.46945 18.9451 8.4855C20.6348 8.80748 22.3074 9.29655 24.0896 8.81363L24.1902 9.0187C23.7651 9.2556 23.3745 9.60488 22.908 9.70523C21.9043 9.91893 20.8804 10.0614 19.8484 10.131C18.616 10.2204 17.3646 10.138 16.1365 10.2453C13.7056 10.459 11.9739 11.6094 10.7722 13.3371C10.2469 14.091 9.84404 14.9049 9.37085 15.6847C8.8254 16.5789 8.14236 17.391 7.07397 17.9035C6.69661 18.0823 6.2791 18.2071 5.85815 18.3644C5.82734 18.235 5.79012 18.1704 5.8103 18.1525C6.97979 17.1187 7.48414 15.8353 7.86694 14.4787C8.14874 13.4825 8.61125 12.521 9.02808 11.464C8.65077 11.7205 8.2898 11.9317 7.97729 12.1837C5.98784 13.7935 5.0449 15.8462 4.46851 18.0578C4.17184 19.2114 3.89713 20.3744 3.49097 21.5021C3.17197 22.3883 2.45051 23.0175 1.25757 23.1125C1.10879 23.1241 0.951826 23.0817 0.735107 23.0031C2.22357 22.4664 2.32324 21.3788 2.4519 20.2716C2.59865 19.0034 2.70186 17.7134 3.073 16.4855C3.82281 14.0136 5.51906 12.0378 8.28394 10.9181C9.56775 10.4151 10.8096 9.83821 11.9998 9.19253Z"/>
<path d="M22.8835 11.7707C24.7435 10.8192 26.7692 10.747 28.8513 10.9992C29.241 11.0463 29.6315 11.0999 30.0212 11.1613C32.2679 11.5191 33.5785 12.5803 33.8943 14.4709C33.9686 14.9179 33.5623 15.4143 33.3347 15.9962C34.6959 18.7535 35.0359 19.8868 34.8318 21.171C34.6789 21.1621 34.52 21.1597 34.365 21.1427C33.2816 21.0256 32.2005 20.8921 31.116 20.7902C30.4302 20.7259 29.5483 20.8688 29.3259 20.1564C29.0995 19.4295 30.0247 19.2407 30.5427 18.8849C30.5758 18.862 30.6501 18.8751 30.8123 18.8644L29.906 19.882L29.9529 20.0832L33.4207 19.8918C33.5142 18.9223 33.0346 17.9175 31.3757 15.6281L32.7888 14.8019L32.6599 14.6232L32.2458 13.4796C28.9981 12.647 25.8644 11.2485 22.2605 12.4289L22.2039 12.1994C22.4218 12.0473 22.6486 11.9036 22.8835 11.7707Z"/>
<path d="M23.8601 13.9357C24.7022 13.8996 25.5465 13.9733 26.3621 14.1535C27.5157 14.4298 28.6171 14.8628 29.741 15.2267L29.7585 15.425L27.8914 15.8039C27.0026 16.5029 26.2046 16.6976 25.488 16.3546C24.8936 16.0666 24.7123 15.6387 24.9792 15.0949C23.9298 14.6299 23.0077 14.6352 22.24 15.5695C22.1719 14.6536 22.837 13.967 23.8601 13.9357Z"/>
<path d="M12.6609 4.73062C15.2918 3.0744 18.2477 2.51816 21.4539 3.27652C24.7503 4.05653 26.8924 6.47676 26.8435 9.2814C26.8471 9.5023 26.7624 9.71792 26.6033 9.8937C26.4896 9.7219 26.386 9.54502 26.2937 9.36441C24.3295 5.01361 19.5044 4.45812 15.6824 5.90054C14.4585 6.36109 13.3587 7.05429 12.2029 7.64273C10.9981 8.25532 9.82335 8.91572 8.58667 9.47378C6.88539 10.2383 5.0689 10.4458 3.17944 10.0373C2.97916 9.98266 2.78285 9.91668 2.59253 9.84097L2.6062 9.71695C2.95269 9.68299 3.29983 9.65374 3.64526 9.61441C5.3886 9.41902 7.02065 8.78236 8.32397 7.78921C9.73612 6.73752 11.153 5.67947 12.6609 4.73062Z"/>
<path d="M23.6824 0.864407C24.7458 2.58319 26.8092 3.04812 28.6042 3.82437C29.3805 4.15969 30.2 4.43441 30.9294 4.83413C33.1183 6.04072 33.4816 8.29024 31.6423 9.98843C31.6891 9.74161 31.7351 9.49502 31.783 9.2482C32.1125 7.54914 31.393 6.43781 29.5642 5.66421C28.2341 5.10087 26.891 4.5354 25.6619 3.83706C24.9675 3.44269 24.4152 2.81994 23.9441 2.21988C23.6689 1.8675 23.6771 1.35798 23.6824 0.864407Z"/>
</clipPath><linearGradient id="paint0_linear_3167_1154" x1="-16.1089" y1="0.70558" x2="37.2012" y2="6.86677" gradientUnits="userSpaceOnUse">
<stop stop-color="#00EEFF"/>
<stop offset="1" stop-color="#4DB5FF"/>
</linearGradient>
<linearGradient id="paint1_linear_3167_1154" x1="-16.1089" y1="0.70558" x2="37.2012" y2="6.86677" gradientUnits="userSpaceOnUse">
<stop stop-color="#00EEFF"/>
<stop offset="1" stop-color="#4DB5FF"/>
</linearGradient>
<linearGradient id="paint2_linear_3167_1154" x1="-16.1089" y1="0.70558" x2="37.2012" y2="6.86677" gradientUnits="userSpaceOnUse">
<stop stop-color="#00EEFF"/>
<stop offset="1" stop-color="#4DB5FF"/>
</linearGradient>
<linearGradient id="paint3_linear_3167_1154" x1="-16.1089" y1="0.70558" x2="37.2012" y2="6.86677" gradientUnits="userSpaceOnUse">
<stop stop-color="#00EEFF"/>
<stop offset="1" stop-color="#4DB5FF"/>
</linearGradient>
<linearGradient id="paint4_linear_3167_1154" x1="-16.1089" y1="0.70558" x2="37.2012" y2="6.86677" gradientUnits="userSpaceOnUse">
<stop stop-color="#00EEFF"/>
<stop offset="1" stop-color="#4DB5FF"/>
</linearGradient>
<linearGradient id="paint5_linear_3167_1154" x1="-16.1089" y1="0.70558" x2="37.2012" y2="6.86677" gradientUnits="userSpaceOnUse">
<stop stop-color="#00EEFF"/>
<stop offset="1" stop-color="#4DB5FF"/>
</linearGradient>
<linearGradient id="paint6_linear_3167_1154" x1="-16.1089" y1="0.70558" x2="37.2012" y2="6.86677" gradientUnits="userSpaceOnUse">
<stop stop-color="#00EEFF"/>
<stop offset="1" stop-color="#4DB5FF"/>
</linearGradient>
<linearGradient id="paint7_linear_3167_1154" x1="-16.1089" y1="0.70558" x2="37.2012" y2="6.86677" gradientUnits="userSpaceOnUse">
<stop stop-color="#00EEFF"/>
<stop offset="1" stop-color="#4DB5FF"/>
</linearGradient>
<linearGradient id="paint8_linear_3167_1154" x1="-16.1089" y1="0.70558" x2="37.2012" y2="6.86677" gradientUnits="userSpaceOnUse">
<stop stop-color="#00EEFF"/>
<stop offset="1" stop-color="#4DB5FF"/>
</linearGradient>
<linearGradient id="paint9_linear_3167_1154" x1="-16.1089" y1="0.70558" x2="37.2012" y2="6.86677" gradientUnits="userSpaceOnUse">
<stop stop-color="#00EEFF"/>
<stop offset="1" stop-color="#4DB5FF"/>
</linearGradient>
<linearGradient id="paint10_linear_3167_1154" x1="-16.1089" y1="0.70558" x2="37.2012" y2="6.86677" gradientUnits="userSpaceOnUse">
<stop stop-color="#00EEFF"/>
<stop offset="1" stop-color="#4DB5FF"/>
</linearGradient>
<linearGradient id="paint11_linear_3167_1154" x1="-16.1089" y1="0.70558" x2="37.2012" y2="6.86677" gradientUnits="userSpaceOnUse">
<stop stop-color="#00EEFF"/>
<stop offset="1" stop-color="#4DB5FF"/>
</linearGradient>
<linearGradient id="paint12_linear_3167_1154" x1="-16.1089" y1="0.70558" x2="37.2012" y2="6.86677" gradientUnits="userSpaceOnUse">
<stop stop-color="#00EEFF"/>
<stop offset="1" stop-color="#4DB5FF"/>
</linearGradient>
<linearGradient id="paint13_linear_3167_1154" x1="-16.1089" y1="0.70558" x2="37.2012" y2="6.86677" gradientUnits="userSpaceOnUse">
<stop stop-color="#00EEFF"/>
<stop offset="1" stop-color="#4DB5FF"/>
</linearGradient>
<linearGradient id="paint14_linear_3167_1154" x1="-16.1089" y1="0.70558" x2="37.2012" y2="6.86677" gradientUnits="userSpaceOnUse">
<stop stop-color="#00EEFF"/>
<stop offset="1" stop-color="#4DB5FF"/>
</linearGradient>
<linearGradient id="paint15_linear_3167_1154" x1="-16.1089" y1="0.70558" x2="37.2012" y2="6.86677" gradientUnits="userSpaceOnUse">
<stop stop-color="#00EEFF"/>
<stop offset="1" stop-color="#4DB5FF"/>
</linearGradient>
<linearGradient id="paint16_linear_3167_1154" x1="17.8119" y1="0.864258" x2="17.8119" y2="40.9427" gradientUnits="userSpaceOnUse">
<stop stop-color="#4DB5FF"/>
<stop offset="1" stop-color="#3E6AF8"/>
</linearGradient>
<linearGradient id="paint17_linear_3167_1154" x1="17.8119" y1="0.864258" x2="17.8119" y2="40.9427" gradientUnits="userSpaceOnUse">
<stop stop-color="#4DB5FF"/>
<stop offset="1" stop-color="#3E6AF8"/>
</linearGradient>
<linearGradient id="paint18_linear_3167_1154" x1="17.8119" y1="0.864258" x2="17.8119" y2="40.9427" gradientUnits="userSpaceOnUse">
<stop stop-color="#4DB5FF"/>
<stop offset="1" stop-color="#3E6AF8"/>
</linearGradient>
<linearGradient id="paint19_linear_3167_1154" x1="17.8119" y1="0.864258" x2="17.8119" y2="40.9427" gradientUnits="userSpaceOnUse">
<stop stop-color="#4DB5FF"/>
<stop offset="1" stop-color="#3E6AF8"/>
</linearGradient>
<linearGradient id="paint20_linear_3167_1154" x1="17.8119" y1="0.864258" x2="17.8119" y2="40.9427" gradientUnits="userSpaceOnUse">
<stop stop-color="#4DB5FF"/>
<stop offset="1" stop-color="#3E6AF8"/>
</linearGradient>
<linearGradient id="paint21_linear_3167_1154" x1="17.8119" y1="0.864258" x2="17.8119" y2="40.9427" gradientUnits="userSpaceOnUse">
<stop stop-color="#4DB5FF"/>
<stop offset="1" stop-color="#3E6AF8"/>
</linearGradient>
<linearGradient id="paint22_linear_3167_1154" x1="17.8119" y1="0.864258" x2="17.8119" y2="40.9427" gradientUnits="userSpaceOnUse">
<stop stop-color="#4DB5FF"/>
<stop offset="1" stop-color="#3E6AF8"/>
</linearGradient>
<linearGradient id="paint23_linear_3167_1154" x1="17.8119" y1="0.864258" x2="17.8119" y2="40.9427" gradientUnits="userSpaceOnUse">
<stop stop-color="#4DB5FF"/>
<stop offset="1" stop-color="#3E6AF8"/>
</linearGradient>
<linearGradient id="paint24_linear_3167_1154" x1="17.8119" y1="0.864258" x2="17.8119" y2="40.9427" gradientUnits="userSpaceOnUse">
<stop stop-color="#4DB5FF"/>
<stop offset="1" stop-color="#3E6AF8"/>
</linearGradient>
<linearGradient id="paint25_linear_3167_1154" x1="17.8119" y1="0.864258" x2="17.8119" y2="40.9427" gradientUnits="userSpaceOnUse">
<stop stop-color="#4DB5FF"/>
<stop offset="1" stop-color="#3E6AF8"/>
</linearGradient>
<linearGradient id="paint26_linear_3167_1154" x1="17.8119" y1="0.864258" x2="17.8119" y2="40.9427" gradientUnits="userSpaceOnUse">
<stop stop-color="#4DB5FF"/>
<stop offset="1" stop-color="#3E6AF8"/>
</linearGradient>
<linearGradient id="paint27_linear_3167_1154" x1="17.8119" y1="0.864258" x2="17.8119" y2="40.9427" gradientUnits="userSpaceOnUse">
<stop stop-color="#4DB5FF"/>
<stop offset="1" stop-color="#3E6AF8"/>
</linearGradient>
<linearGradient id="paint28_linear_3167_1154" x1="17.8119" y1="0.864258" x2="17.8119" y2="40.9427" gradientUnits="userSpaceOnUse">
<stop stop-color="#4DB5FF"/>
<stop offset="1" stop-color="#3E6AF8"/>
</linearGradient>
<linearGradient id="paint29_linear_3167_1154" x1="17.8119" y1="0.864258" x2="17.8119" y2="40.9427" gradientUnits="userSpaceOnUse">
<stop stop-color="#4DB5FF"/>
<stop offset="1" stop-color="#3E6AF8"/>
</linearGradient>
<linearGradient id="paint30_linear_3167_1154" x1="17.8119" y1="0.864258" x2="17.8119" y2="40.9427" gradientUnits="userSpaceOnUse">
<stop stop-color="#4DB5FF"/>
<stop offset="1" stop-color="#3E6AF8"/>
</linearGradient>
<linearGradient id="paint31_linear_3167_1154" x1="17.8119" y1="0.864258" x2="17.8119" y2="40.9427" gradientUnits="userSpaceOnUse">
<stop stop-color="#4DB5FF"/>
<stop offset="1" stop-color="#3E6AF8"/>
</linearGradient>
</defs>
</svg>
