<svg width="1920" height="1286" viewBox="0 0 1920 1286" fill="none" xmlns="http://www.w3.org/2000/svg">
<g clip-path="url(#clip0_2241_12957)">
<path d="M1923.15 1284.69C1282.48 1281.97 641.649 1280.77 0.973883 1284.69" stroke="url(#paint0_linear_2241_12957)" stroke-miterlimit="10"/>
<path d="M1923.15 1259.12C1737.68 1246.71 1549.35 1242.47 1363.62 1252.27C1287.76 1256.27 1211.69 1258.25 1135.8 1254.04C1053.05 1249.45 974.264 1231.14 892.609 1219.95C747.395 1200.05 600.156 1246.81 455.557 1254.61C303.243 1262.84 153.672 1241.45 0.973883 1260.94" stroke="url(#paint1_linear_2241_12957)" stroke-miterlimit="10"/>
<path d="M1923.15 1230.55C1730.5 1209.23 1530.82 1205.33 1337.71 1224.47C1260.28 1232.14 1182.22 1236.19 1104.66 1228.06C1013.14 1218.49 933.718 1183.25 845.657 1161.73C698.572 1125.8 553.357 1213.05 408.963 1227.24C345.582 1233.47 282.842 1219.85 219.615 1215.77C144.855 1210.93 73.5298 1218.65 0.973883 1237.19" stroke="url(#paint2_linear_2241_12957)" stroke-miterlimit="10"/>
<path d="M1923.15 1199.56C1724.58 1170.76 1520.42 1174.3 1321.69 1201C1243.5 1211.49 1165.25 1217.26 1086.88 1205.1C1046.1 1198.77 1006.33 1188.12 967.421 1174.4C914.522 1155.76 865.75 1121.49 813.287 1104.36C666.048 1056.26 526.319 1178.97 386.692 1200.9C322.619 1210.95 264.159 1190.1 201.035 1182.89C130.734 1174.86 66.7126 1188.61 0.948407 1213.46" stroke="url(#paint3_linear_2241_12957)" stroke-miterlimit="10"/>
<path d="M1923.15 1166.63C1728.76 1132.54 1530.16 1143.21 1336.45 1177.71C1252.39 1192.69 1168.2 1202.56 1083.62 1185.38C976.237 1163.55 897.043 1098.94 798.73 1057.65C639.292 990.681 512.325 1153.14 363.6 1177.84C304.883 1187.59 256.47 1162.71 200.266 1151.86C128.12 1137.93 65.7898 1158.42 0.973883 1189.74" stroke="url(#paint4_linear_2241_12957)" stroke-miterlimit="10"/>
<path d="M1923.15 1132.29C1728.6 1092.33 1537.77 1115.97 1346.09 1159.24C1261.77 1178.28 1177.22 1188.69 1092.16 1167.63C1048 1156.7 1006.27 1138.88 965.985 1117.95C905.68 1086.63 852.32 1034.31 791.81 1006.33C629.168 931.099 513.12 1120.8 368.444 1152.29C302.602 1166.63 258.802 1135.13 198.087 1119.67C125.916 1101.3 62.9962 1130.93 0.973883 1165.99" stroke="url(#paint5_linear_2241_12957)" stroke-miterlimit="10"/>
<path d="M1923.15 1097.07C1732.45 1051.75 1557.53 1089.58 1372.74 1139.93C1286.94 1163.3 1201.18 1177.43 1113.81 1153.19C1067.58 1140.37 1024.55 1119.23 983.234 1095.15C918.495 1057.42 862.649 997.273 797.474 963.057C626.298 873.21 524.781 1093.51 376.85 1128.59C307.318 1145.09 266.594 1107.28 204.674 1087.76C129.735 1064.14 63.1246 1103.38 0.999716 1142.24" stroke="url(#paint6_linear_2241_12957)" stroke-miterlimit="10"/>
<path d="M1923.15 1061.47C1741.03 1011.25 1586.36 1060.86 1413.78 1117.64C1328.18 1145.8 1242.8 1166.89 1153.59 1143.8C1017.86 1108.69 929.387 1001.84 815.312 929.842C630.065 812.961 547.514 1073.24 385.897 1106.38C315.93 1120.75 276.358 1076.09 214.515 1054.52C136.193 1027.2 63.8933 1076.4 0.973883 1118.44" stroke="url(#paint7_linear_2241_12957)" stroke-miterlimit="10"/>
<path d="M1923.15 1026.05C1746.44 968.931 1610.76 1033.13 1448.48 1096.76C1360.85 1131.11 1272.23 1158.96 1178.86 1130.57C1040.44 1088.48 950.223 973.83 835.79 894.088C641.239 758.535 577.372 1048.19 410.27 1082.25C339.15 1096.74 295.247 1047.19 234.352 1023C148.341 988.834 69.3779 1046.98 0.973883 1094.76" stroke="url(#paint8_linear_2241_12957)" stroke-miterlimit="10"/>
<path d="M1923.15 991.27C1843.99 961.081 1766.71 954.131 1684.83 978.497C1609.22 1000.99 1544.31 1046.41 1472.95 1078.55C1388.69 1116.51 1302.11 1149.8 1209.9 1119.56C1063.43 1071.52 975.263 941.075 855.729 854.537C662.178 714.392 605.871 1013.12 446.971 1053.42C366.521 1073.81 319.902 1014.69 251.498 987.653C159.054 951.104 72.684 1019.33 0.973883 1071.01" stroke="url(#paint9_linear_2241_12957)" stroke-miterlimit="10"/>
<path d="M1923.15 957.696C1851.91 925.404 1780.91 915.35 1705.67 940.588C1631.55 965.442 1571.34 1017.77 1503.07 1053.98C1423.64 1096.12 1341.91 1138.42 1250.52 1111.43C1097.28 1066.24 1001.1 919.736 882.178 824.938C679.401 663.275 645.75 988.372 479.623 1025.79C394.38 1045 341.303 976.445 268.106 949.719C169.639 913.786 75.1959 992.296 0.999716 1047.24" stroke="url(#paint10_linear_2241_12957)" stroke-miterlimit="10"/>
<path d="M1923.15 925.816C1758.49 837.328 1659.58 942 1525.47 1026.59C1449.3 1074.63 1367.29 1130.21 1273.94 1099.28C1122.78 1049.19 1023.34 898.577 908.756 798.419C834.79 733.784 763.977 718.78 700.622 800.548C645.673 871.441 610.382 973.548 512.607 994.093C427.467 1011.97 367.342 941.795 294.299 913.197C186.81 871.082 80.3984 963.16 0.973883 1023.51" stroke="url(#paint11_linear_2241_12957)" stroke-miterlimit="10"/>
<path d="M1923.15 896.166C1763.66 795.854 1664.28 900.013 1538.49 994.554C1471.39 1044.98 1395.43 1114.82 1304.78 1091.15C1249.6 1076.73 1200.67 1035.77 1158.54 999.607C1077.55 930.125 1010.32 848.151 933.436 774.745C859.727 704.365 787.069 676.664 723.867 769.512C676.761 838.713 640.624 945.616 545.925 960.723C455.89 975.087 389.998 897.782 311.035 871.056C197.139 832.48 82.3206 936.152 0.973883 999.709" stroke="url(#paint12_linear_2241_12957)" stroke-miterlimit="10"/>
<path d="M1923.15 869.286C1860.98 824.529 1792.37 796.444 1716.61 823.708C1649.15 847.998 1596.72 904.425 1544.87 951.439C1486.43 1004.43 1412.62 1098.51 1322.92 1080.02C1272.43 1069.6 1228.02 1030.92 1190.29 997.991C1107.02 925.277 1034.03 841.047 959.168 760.023C889.098 684.154 811.442 629.573 746.088 735.169C702.083 806.242 667.919 918.66 568.12 922.61C479.546 926.124 412.987 855.333 333.153 829.223C210.697 789.185 86.4726 906.861 0.948407 975.985" stroke="url(#paint13_linear_2241_12957)" stroke-miterlimit="10"/>
<path d="M1923.15 844.612C1859.34 794.853 1788.24 761.818 1707.64 790.493C1639.62 814.68 1583.29 869.824 1533 919.403C1480.72 970.983 1410.55 1072.29 1324.95 1055.01C1277.05 1045.34 1234.91 1006.58 1199.59 975.138C1118.84 903.193 1046.72 821.169 973.751 741.581C906.936 668.713 828.46 602.283 762.183 707.391C718.819 776.155 685.885 885.906 587.957 887.265C500.151 888.471 426.929 824.683 344.942 802.83C217.335 768.794 92.6234 880.366 0.973883 951.644" stroke="url(#paint14_linear_2241_12957)" stroke-miterlimit="10"/>
<path d="M1923.15 817.117C1852.75 761.69 1777.63 731.886 1691.57 770.359C1620.4 802.189 1558.07 862.412 1502.99 915.736C1453.58 963.596 1392.35 1044.36 1314.44 1019.2C1266.9 1003.84 1225.56 962.801 1190.09 929.817C1118.99 863.72 1052.92 792.135 985.848 722.011C921.929 655.145 844.375 590.1 775.664 683.333C726.789 749.661 695.676 855.744 598.106 860.591C511.198 864.9 427.16 807.524 343.379 792.135C216.668 768.846 98.8258 856.257 0.948407 923.61" stroke="url(#paint15_linear_2241_12957)" stroke-miterlimit="10"/>
<path d="M1923.15 786.568C1847.45 728.756 1770.3 703.338 1681.86 748.993C1614.09 783.952 1551.56 840.251 1495.82 891.625C1443.87 939.511 1380.07 1022.02 1301.57 985.5C1260.59 966.443 1226.86 930.15 1194.67 899.448C1126.96 834.813 1062.91 766.28 996.792 700.055C928.388 631.547 850.885 578.429 779.918 669.508C731.069 732.219 695.881 830.94 603.257 835.044C518.041 838.84 433.388 797.982 350.221 784.388C221.845 763.407 107.873 828.914 0.948407 892.036" stroke="url(#paint16_linear_2241_12957)" stroke-miterlimit="10"/>
<path d="M1923.15 753.533C1835.84 690.488 1752.54 676.227 1659.56 734.886C1592.74 777.027 1530.98 834.121 1471.19 885.598C1421.26 928.585 1365.11 996.067 1295.24 956.978C1257.82 936.049 1226.68 898.73 1196.88 868.541C1133.42 804.24 1071.63 738.374 1006.33 675.92C938.665 611.208 861.214 564.502 789.196 646.27C735.426 707.314 698.187 804.676 605.794 813.499C524.371 821.271 435.643 789.415 355.552 777.001C227.561 757.175 114.947 802.445 0.999716 857.718" stroke="url(#paint17_linear_2241_12957)" stroke-miterlimit="10"/>
<path d="M1923.15 718.625C1828.56 654.94 1741.57 648.117 1646.77 714.752C1575.24 765.024 1510.96 828.556 1442.94 883.649C1396.17 921.506 1344.42 973.419 1285.96 929.919C1247.32 901.167 1215.77 857.846 1183.68 822.554C1129.42 762.921 1073.81 704.082 1014.12 649.861C940.971 583.405 861.649 552.011 787.991 632.112C734.068 690.745 692.754 782.26 604.154 792.186C520.296 801.573 429.62 779.541 346.556 768.127C224.408 751.353 115.69 778.669 0.973883 821.169" stroke="url(#paint18_linear_2241_12957)" stroke-miterlimit="10"/>
<path d="M1923.15 682.384C1815.31 614.902 1723.63 622.084 1624.63 701.184C1549.51 761.202 1485.49 831.043 1407.19 887.676C1353.47 926.508 1314.75 948.438 1265.72 894.319C1182.4 802.343 1114.92 697.516 1017.29 618.211C945.636 560.014 866.801 538.315 795.398 606.053C735.068 663.275 694.471 751.122 607.384 771.744C526.985 790.749 426.083 772 345.249 760.971C225.946 744.684 118.278 754.251 0.948407 783.183" stroke="url(#paint19_linear_2241_12957)" stroke-miterlimit="10"/>
<path d="M1923.15 645.424C1802.39 574.916 1704.05 597.82 1602.23 688.078C1529.29 752.738 1468.62 827.607 1385.84 880.725C1325.07 919.737 1293.09 926.636 1251.52 864.515C1185.65 766.101 1119.35 665.507 1023.39 592.921C945.815 534.211 867.211 521.028 791.4 588.715C728.276 645.091 683.348 735.784 594.082 755.739C514.914 773.437 422.521 765.024 342.712 754.149C226.843 738.349 117.996 731.219 0.948407 744.274" stroke="url(#paint20_linear_2241_12957)" stroke-miterlimit="10"/>
<path d="M1923.15 608.336C1791.52 535.622 1688.55 571.453 1584.21 670.944C1510.37 741.35 1449.5 827.35 1358.6 877.262C1291.12 914.325 1267.43 895.063 1235.24 831.531C1184.04 730.501 1119.27 628.393 1024.42 562.578C944.124 506.844 862.905 505.125 787.479 569.17C721.689 625.059 673.763 713.393 585.624 738.169C396.584 791.314 190.86 711.88 0.948407 705.288" stroke="url(#paint21_linear_2241_12957)" stroke-miterlimit="10"/>
<path d="M1923.15 571.684C1857.67 536.776 1796.11 516.052 1722.84 541.47C1662.22 562.501 1612.58 606.643 1568.11 651.605C1494.76 725.832 1432.05 825.708 1334.33 869.824C1261.03 902.911 1243.68 858.333 1218.94 796.135C1178.63 694.669 1117.76 590.715 1022.65 531.313C815.363 401.812 740.552 663.839 575.629 720.651C383.027 787.004 189.296 703.287 0.948407 666.789" stroke="url(#paint22_linear_2241_12957)" stroke-miterlimit="10"/>
<path d="M1923.15 536.058C1854.85 499.893 1791.91 479.734 1717.3 507.203C1654.72 530.236 1604.12 577.301 1558.79 624.982C1487.49 699.953 1413.75 829.736 1307.39 859.591C1232.94 880.494 1221.2 810.781 1202.34 754.662C1169.33 656.427 1112.43 548.113 1017.24 496.149C819.643 388.27 720.126 630.83 570.939 699.389C375.21 789.339 185.683 697.106 0.973883 629.445" stroke="url(#paint23_linear_2241_12957)" stroke-miterlimit="10"/>
<path d="M1923.15 502.073C1854.19 464.524 1792.06 444.133 1716.15 470.731C1653.2 492.789 1601.77 542.008 1557.02 589.971C1484.41 667.815 1406.57 815.68 1293.68 837.738C1216.95 852.742 1206.18 776.027 1189.42 718.42C1160.64 619.596 1108.82 510.204 1009.35 464.242C811.468 372.804 704.748 605.668 558.791 680.973C482.801 720.164 384.411 740.247 299.758 726.602C192.449 709.315 94.3151 645.68 0.948407 594.05" stroke="url(#paint24_linear_2241_12957)" stroke-miterlimit="10"/>
<path d="M1923.15 470.269C1849.7 427.769 1778.71 403.274 1697.39 440.003C1636.37 467.576 1587.95 518.257 1544.2 567.452C1478.64 641.166 1396.02 796.469 1285.73 808.113C1202.72 816.885 1192.24 726.166 1174.45 664.917C1146.95 570.247 1097.44 468.755 997.765 432.232C801.37 360.236 687.808 576.121 546.104 660.48C474.497 703.108 380.899 732.296 297.144 721.857C184.94 707.853 87.831 626.598 0.999716 561.065" stroke="url(#paint25_linear_2241_12957)" stroke-miterlimit="10"/>
<path d="M1923.15 441.26C1853.8 397.042 1785.53 366.264 1703.59 399.376C1637.93 425.922 1585.65 482.273 1540.54 534.929C1476.06 610.208 1394.96 764.767 1280.4 767.486C1198.72 769.41 1183.6 677.382 1164.33 615.928C1134.52 520.976 1087.39 428.872 982.849 402.018C782.661 350.567 671.507 547.959 528.266 642.654C458.145 689.027 364.625 727.269 279.203 714.932C167.486 698.773 77.733 605.848 0.973883 531.313" stroke="url(#paint26_linear_2241_12957)" stroke-miterlimit="10"/>
<path d="M1923.15 415.637C1859.49 369.443 1793.37 330.74 1712.41 357.876C1649.31 379.01 1599.61 430.769 1557.15 479.861C1487.59 560.244 1417.62 703.235 1297.88 712.366C1206.85 719.292 1183.19 630.752 1157 560.706C1121.27 465.139 1071.47 384.217 962.064 369.418C768.103 343.179 656.335 510.075 521.577 615.132C454.019 667.789 362.549 718.214 274.154 709.596C156.901 698.157 70.6081 589.048 0.973883 505.407" stroke="url(#paint27_linear_2241_12957)" stroke-miterlimit="10"/>
<path d="M1923.15 395.426C1859.8 351.182 1794.47 314.761 1715.12 340.615C1653.33 360.749 1604.15 410.225 1562.19 457.829C1494.61 534.468 1423.08 681.589 1306.78 685.615C1216.84 688.719 1186.06 609.003 1153.82 538.931C1112.48 449.134 1056.53 366.93 950.428 352.593C763.259 327.303 646.34 483.222 513.504 582.944C448.329 631.856 356.398 681.614 272.693 679.973C155.671 677.664 68.9934 566.272 0.973883 484.966" stroke="url(#paint28_linear_2241_12957)" stroke-miterlimit="10"/>
<path d="M1923.15 381.601C1860.8 338.896 1796.42 303.475 1718.63 327.021C1658.53 345.206 1610.07 391.527 1568.78 436.874C1502.27 509.947 1431.05 655.529 1318.51 656.222C1230.27 656.76 1192.7 586.483 1154.18 518.027C1107.12 434.412 1045.36 354.183 943.022 340.127C762.619 315.376 640.753 455.213 507.84 548.292C443.306 593.485 352.374 643.91 272.514 651.041C156.081 661.428 67.9941 548.933 0.999716 470.551" stroke="url(#paint29_linear_2241_12957)" stroke-miterlimit="10"/>
<path d="M1923.15 373.034C1863.34 332.125 1799.39 296.755 1724.68 315.735C1660.99 331.894 1610.4 380.088 1567.04 426.743C1501.12 497.661 1435.02 629.393 1324.89 624.494C1241.57 620.801 1199.11 557.5 1155.59 495.199C1102.15 418.663 1037.64 346.898 939.792 332.997C762.106 307.733 637.626 428.615 499.383 514.846C435.515 554.704 354.476 601.975 280.895 621.032C161.617 651.913 70.7875 540.059 0.973883 461.061" stroke="url(#paint30_linear_2241_12957)" stroke-miterlimit="10"/>
<path d="M1923.15 368.623C1864.98 328.329 1802.39 292.19 1728.91 307.143C1667.73 319.608 1618.01 362.493 1575.39 405.557C1508.55 473.064 1446.33 594.306 1339.63 589.561C1258.7 585.97 1210.03 532.672 1160.51 475.244C1101.18 406.455 1032.7 341.102 938.614 327.405C768.436 302.629 638.036 399.273 498.178 476.168C428.774 514.333 355.783 560.988 282.919 591.869C165.615 641.602 73.4018 533.98 0.999716 455.469" stroke="url(#paint31_linear_2241_12957)" stroke-miterlimit="10"/>
<path d="M1923.15 367.264C1800.75 280.417 1694.88 280.853 1583.72 383.833C1515.47 447.057 1457.47 555.577 1354.52 551.883C1276.23 549.062 1221.79 505.869 1166.61 455.162C1101.59 395.426 1029.96 337.64 939.613 324.2C777.458 300.064 640.163 369.957 499.049 436.259C421.368 472.757 358.525 518.54 286.174 562.938C171.92 633.036 78.6557 532.954 0.948407 452.802" stroke="url(#paint32_linear_2241_12957)" stroke-miterlimit="10"/>
<path d="M1923.15 367.853C1809.23 284.341 1704.38 268.131 1591.57 361.082C1521.52 418.791 1467.57 513.332 1368.8 511.383C1204.34 508.151 1103.05 346.949 942.304 322.634C788.325 299.345 643.674 340.64 502.048 395.348C415.473 428.794 360.96 476.167 290.736 533.954C180.582 624.597 86.9594 535.929 0.973883 451.878" stroke="url(#paint33_linear_2241_12957)" stroke-miterlimit="10"/>
<path d="M1923.15 369.289C1818.97 289.83 1714.94 256.179 1601.15 334.894C1530.8 383.55 1479.21 464.856 1388.3 467.986C1224.84 473.654 1103.2 345.513 946.328 321.018C803.189 298.678 650.21 311.067 512.12 352.515C413.807 382.037 363.6 435.719 294.299 507.382C268.413 534.159 239.299 562.039 200.419 566.246C123.071 574.582 50.7199 497.866 0.973883 451.801" stroke="url(#paint34_linear_2241_12957)" stroke-miterlimit="10"/>
<path d="M1923.15 370.469C1826.23 293.574 1722.68 244.714 1606.35 309.092C1534.39 348.924 1484.33 416.534 1398.5 421.536C1238.81 430.846 1104.28 345.205 950.659 321.326C812.852 299.91 656.694 282.058 519.066 311.605C413.192 334.33 365.573 397.708 301.398 478.707C276.82 509.742 248.987 545.445 208.365 555.191C129.888 574.017 52.4629 496.635 0.999716 451.519" stroke="url(#paint35_linear_2241_12957)" stroke-miterlimit="10"/>
<path d="M1923.15 370.264C1828.56 292.292 1723.43 231.941 1601.64 283.956C1535.23 312.324 1485.82 364.314 1411.93 371.547C1253.13 387.115 1108.74 344.872 953.683 322.096C871.978 310.092 791.477 298.191 710.463 281.853C647.493 269.157 586.291 262.565 522.269 271.747C411.654 287.598 364.932 366.699 307.574 452.879C284.611 487.376 257.008 530.209 215.284 543.931C135.321 570.247 55.5638 495.353 0.973883 449.878" stroke="url(#paint36_linear_2241_12957)" stroke-miterlimit="10"/>
<path d="M1923.15 367.596C1832.04 290.086 1726.86 218.27 1602.33 251.485C1536.31 269.105 1483.03 310.092 1414.42 318.761C1257.9 338.511 1112.89 342.999 956.503 321.198C873.695 309.656 796.065 292.651 717.076 265.258C656.258 244.175 597.901 226.888 532.7 231.504C416.601 239.712 369.443 333.15 317.032 423.895C294.709 462.548 267.747 512.281 224.485 531.081C142.985 566.502 58.9984 492.07 0.92291 445.979" stroke="url(#paint37_linear_2241_12957)" stroke-miterlimit="10"/>
<path d="M1923.15 361.365C1833.32 283.136 1728.55 203.24 1602.53 215.347C1534.87 221.836 1472.95 253.845 1405.78 263.746C1252.24 286.394 1117.17 338.076 959.45 318.813C876.002 308.605 801.011 286.804 725.815 249.511C669.175 221.425 615.2 193.007 550.307 192.186C424.161 190.647 376.517 300.911 325.72 398.171C303.781 440.183 277.409 494.84 232.712 517.36C149.776 559.167 62.3299 485.53 0.973883 438.67" stroke="url(#paint38_linear_2241_12957)" stroke-miterlimit="10"/>
<path d="M1923.15 350.463C1831.48 269.696 1726.43 184.593 1599.18 176.181C1530.57 171.641 1458.35 192.057 1391.58 205.907C1241.42 237.045 1116.4 331.766 956.938 314.53C874.951 305.681 802.549 278.981 733.812 233.941C678.35 197.597 627.528 158.637 558.663 154.61C429.774 147.095 382.565 275.159 335.536 372.342C313.187 418.484 287.533 474.295 241.452 501.611C158.695 550.652 63.2782 473.167 0.973883 426.999" stroke="url(#paint39_linear_2241_12957)" stroke-miterlimit="10"/>
<path d="M1923.15 333.741C1766.28 195.853 1600.95 89.5393 1387.38 141.196C1235.35 177.976 1118.25 321.019 953.299 307.528C869.723 300.679 799.32 267.105 735.734 213.936C685.937 172.308 641.573 126.653 573.63 119.292C444.049 105.262 396.559 236.429 352.144 333.484C327.899 386.449 301.654 452.699 249.038 484.247C164.206 535.108 65.6875 456.957 0.999716 409.866" stroke="url(#paint40_linear_2241_12957)" stroke-miterlimit="10"/>
<path d="M1923.15 311.016C1772.2 181.952 1578.01 39.191 1366.82 98.3882C1218.59 139.939 1106.59 298.166 943.662 289.804C862.188 285.624 792.964 246.561 735.452 191.211C689.832 147.326 649.056 97.824 581.959 90.3858C457.658 76.5612 407.067 206.036 363.267 298.089C337.048 353.157 309.574 420.561 255.65 454.443C169.306 508.69 69.5831 434.617 0.999716 386.808" stroke="url(#paint41_linear_2241_12957)" stroke-miterlimit="10"/>
<path d="M1923.15 287.265C1771.66 163.69 1572.78 27.2385 1364.93 78.4846C1212.15 116.137 1091.13 273.158 925.722 262.411C850.757 257.538 787.94 221.091 735.298 169.691C693.292 128.679 656.463 81.9472 595.133 71.9185C472.805 51.9125 412.372 184.645 364.907 272.671C337.637 323.199 308.061 381.755 258.572 414.354C172.022 471.371 74.6318 408.25 0.973883 360.8" stroke="url(#paint42_linear_2241_12957)" stroke-miterlimit="10"/>
<path d="M1923.15 263.514C1768.79 144.299 1560.22 12.465 1353.91 64.9935C1203.9 103.184 1075.5 246.509 913.625 237.712C844.606 233.967 784.173 197.161 735.913 150.327C697.239 112.803 662.819 68.097 607.255 56.3242C486.85 30.8294 417.6 164.587 365.163 248.1C333.639 298.294 300.68 353.541 246.552 381.934C160.899 426.845 75.7083 377.266 0.973883 332.868" stroke="url(#paint43_linear_2241_12957)" stroke-miterlimit="10"/>
<path d="M1923.15 239.764C1763.84 124.268 1550.2 2.97524 1344.09 54.0674C1195.52 90.899 1061.66 223.605 902.271 212.705C838.071 208.319 783.199 176.027 737.323 132.86C698.751 96.5673 664.1 52.3233 608.998 42.1408C494.513 20.955 419.932 146.557 364.061 224.375C331.999 269.029 298.015 314.581 249.14 341.641C164.103 388.68 78.3993 345.616 0.973883 303.347" stroke="url(#paint44_linear_2241_12957)" stroke-miterlimit="10"/>
<path d="M1923.15 216.013C1762.74 107.904 1555.76 3.53969 1354.62 41.4741C1198.95 70.8419 1058.28 201.035 894.788 189.57C832.791 185.209 779.995 153.559 734.837 112.88C697.905 79.5881 664.357 41.2176 613.176 31.5481C507.225 11.5164 428.339 119.703 370.11 190.39C331.999 236.686 290.352 287.496 233.327 311.17C152.698 344.642 73.3249 308.887 0.948407 272.62" stroke="url(#paint45_linear_2241_12957)" stroke-miterlimit="10"/>
<path d="M1923.15 192.262C1758.74 90.5392 1547.48 -2.79636 1348.22 35.3432C1196.31 64.4289 1048.72 179.951 889.841 168.229C774.459 159.714 724.098 46.5261 620.095 23.5961C515.529 0.563621 430.389 102.492 366.112 168.46C327.463 208.139 287.123 249.818 234.942 271.363C154.159 304.706 75.7597 275.133 0.999716 241.02" stroke="url(#paint46_linear_2241_12957)" stroke-miterlimit="10"/>
<path d="M1923.15 168.512C1754.41 74.0991 1547.15 -2.53922 1349.76 29.2395C1196.62 53.8879 1046.31 158.612 887.74 146.736C778.816 138.58 720.587 36.8828 620.044 17.159C522.013 -2.05189 437.668 78.8697 370.34 137.99C328.77 174.514 285.995 212.833 233.635 233.121C153.441 264.207 76.7336 240.354 0.948407 208.986" stroke="url(#paint47_linear_2241_12957)" stroke-miterlimit="10"/>
<path d="M1923.15 144.761C1751.88 59.8125 1546.92 -2.92423 1353.09 24.7251C1199.85 46.5778 1045.97 137.169 888.714 125.755C784.198 118.163 716.589 29.9318 617.891 11.9777C520.526 -5.74558 431.85 67.3788 359.038 120.805C319.492 149.814 278.28 179.156 231.636 195.674C151.237 224.144 77.8611 205.369 0.973883 176.847" stroke="url(#paint48_linear_2241_12957)" stroke-miterlimit="10"/>
<path d="M1923.15 121.01C1750.06 46.9366 1547.97 -2.66796 1357.96 20.8262C1204.46 39.8063 1049.15 115.547 892.737 105.185C790.093 98.3879 711.617 24.5966 612.586 8.51487C521.193 -6.31007 435.028 48.8859 360.242 93.8224C238.684 166.87 138.371 189.928 0.973883 144.915" stroke="url(#paint49_linear_2241_12957)" stroke-miterlimit="10"/>
<path d="M1923.15 97.2601C1749.03 35.3698 1557.35 1.28272 1371.92 16.9541C1215.23 30.2144 1059.4 92.1304 901.093 84.1793C794.911 78.8444 703.928 15.9025 599.413 5.23262C513.068 -3.59053 431.568 35.6776 355.603 71.5858C233.763 129.218 133.322 150.969 0.973883 113.65" stroke="url(#paint50_linear_2241_12957)" stroke-miterlimit="10"/>
<path d="M1923.15 73.5087C1745.9 24.3145 1556.66 1.4102 1372.62 14.4654C1219.02 25.3661 1064.84 71.149 910.216 64.506C801.626 59.8379 700.289 13.619 592.544 4.12896C501.868 -3.84778 416.729 27.8027 332.409 56.9909C219.154 96.2078 119.355 110.802 0.973883 83.4091" stroke="url(#paint51_linear_2241_12957)" stroke-miterlimit="10"/>
<path d="M1923.15 49.7844C1748.49 15.9281 1567.55 2.56516 1389.66 10.5163C1234.76 17.4414 1080.03 47.8095 924.697 43.7057C805.778 40.5765 689.755 8.84909 571.093 2.66775C486.414 -1.74382 404.555 17.7748 322.619 36.7292C213.49 61.9675 112.332 73.7146 0.973883 54.5038" stroke="url(#paint52_linear_2241_12957)" stroke-miterlimit="10"/>
<path d="M1923.15 26.0334C1749.88 8.0793 1574.83 2.56483 1400.65 6.48908C1247.52 9.95165 1094.46 25.2126 941.202 23.1607C810.853 21.4166 681.169 5.10405 550.871 1.87231C366.06 -2.71881 186.349 46.0137 0.973883 27.3415" stroke="url(#paint53_linear_2241_12957)" stroke-miterlimit="10"/>
<path d="M1923.15 2.28256C1282.45 -1.25696 641.675 6.15552 0.973883 2.28256" stroke="url(#paint54_linear_2241_12957)" stroke-miterlimit="10"/>
</g>
<defs>
<linearGradient id="paint0_linear_2241_12957" x1="962.064" y1="1282.18" x2="962.064" y2="1284.69" gradientUnits="userSpaceOnUse">
<stop stop-color="#3B82F6" stop-opacity="0.2"/>
<stop offset="1" stop-color="#3B82F6" stop-opacity="0"/>
</linearGradient>
<linearGradient id="paint1_linear_2241_12957" x1="962.064" y1="1215.06" x2="962.064" y2="1260.94" gradientUnits="userSpaceOnUse">
<stop stop-color="#3B82F6" stop-opacity="0.2"/>
<stop offset="1" stop-color="#3B82F6" stop-opacity="0"/>
</linearGradient>
<linearGradient id="paint2_linear_2241_12957" x1="962.064" y1="1153.12" x2="962.064" y2="1237.19" gradientUnits="userSpaceOnUse">
<stop stop-color="#3B82F6" stop-opacity="0.2"/>
<stop offset="1" stop-color="#3B82F6" stop-opacity="0"/>
</linearGradient>
<linearGradient id="paint3_linear_2241_12957" x1="962.051" y1="1093.28" x2="962.051" y2="1213.46" gradientUnits="userSpaceOnUse">
<stop stop-color="#3B82F6" stop-opacity="0.2"/>
<stop offset="1" stop-color="#3B82F6" stop-opacity="0"/>
</linearGradient>
<linearGradient id="paint4_linear_2241_12957" x1="962.064" y1="1041.58" x2="962.064" y2="1194.45" gradientUnits="userSpaceOnUse">
<stop stop-color="#3B82F6" stop-opacity="0.2"/>
<stop offset="1" stop-color="#3B82F6" stop-opacity="0"/>
</linearGradient>
<linearGradient id="paint5_linear_2241_12957" x1="962.064" y1="988.824" x2="962.064" y2="1179.26" gradientUnits="userSpaceOnUse">
<stop stop-color="#3B82F6" stop-opacity="0.2"/>
<stop offset="1" stop-color="#3B82F6" stop-opacity="0"/>
</linearGradient>
<linearGradient id="paint6_linear_2241_12957" x1="962.077" y1="941.686" x2="962.077" y2="1165.81" gradientUnits="userSpaceOnUse">
<stop stop-color="#3B82F6" stop-opacity="0.2"/>
<stop offset="1" stop-color="#3B82F6" stop-opacity="0"/>
</linearGradient>
<linearGradient id="paint7_linear_2241_12957" x1="962.064" y1="899.861" x2="962.064" y2="1153.66" gradientUnits="userSpaceOnUse">
<stop stop-color="#3B82F6" stop-opacity="0.2"/>
<stop offset="1" stop-color="#3B82F6" stop-opacity="0"/>
</linearGradient>
<linearGradient id="paint8_linear_2241_12957" x1="962.064" y1="858.197" x2="962.064" y2="1142.29" gradientUnits="userSpaceOnUse">
<stop stop-color="#3B82F6" stop-opacity="0.2"/>
<stop offset="1" stop-color="#3B82F6" stop-opacity="0"/>
</linearGradient>
<linearGradient id="paint9_linear_2241_12957" x1="962.064" y1="817.396" x2="962.064" y2="1131.32" gradientUnits="userSpaceOnUse">
<stop stop-color="#3B82F6" stop-opacity="0.2"/>
<stop offset="1" stop-color="#3B82F6" stop-opacity="0"/>
</linearGradient>
<linearGradient id="paint10_linear_2241_12957" x1="962.077" y1="780.146" x2="962.077" y2="1119.92" gradientUnits="userSpaceOnUse">
<stop stop-color="#3B82F6" stop-opacity="0.2"/>
<stop offset="1" stop-color="#3B82F6" stop-opacity="0"/>
</linearGradient>
<linearGradient id="paint11_linear_2241_12957" x1="962.064" y1="744.477" x2="962.064" y2="1108.21" gradientUnits="userSpaceOnUse">
<stop stop-color="#3B82F6" stop-opacity="0.2"/>
<stop offset="1" stop-color="#3B82F6" stop-opacity="0"/>
</linearGradient>
<linearGradient id="paint12_linear_2241_12957" x1="962.064" y1="710.305" x2="962.064" y2="1095.9" gradientUnits="userSpaceOnUse">
<stop stop-color="#3B82F6" stop-opacity="0.2"/>
<stop offset="1" stop-color="#3B82F6" stop-opacity="0"/>
</linearGradient>
<linearGradient id="paint13_linear_2241_12957" x1="962.051" y1="676.449" x2="962.051" y2="1082.39" gradientUnits="userSpaceOnUse">
<stop stop-color="#3B82F6" stop-opacity="0.2"/>
<stop offset="1" stop-color="#3B82F6" stop-opacity="0"/>
</linearGradient>
<linearGradient id="paint14_linear_2241_12957" x1="962.064" y1="652.805" x2="962.064" y2="1056.97" gradientUnits="userSpaceOnUse">
<stop stop-color="#3B82F6" stop-opacity="0.2"/>
<stop offset="1" stop-color="#3B82F6" stop-opacity="0"/>
</linearGradient>
<linearGradient id="paint15_linear_2241_12957" x1="962.051" y1="636.879" x2="962.051" y2="1023.95" gradientUnits="userSpaceOnUse">
<stop stop-color="#3B82F6" stop-opacity="0.2"/>
<stop offset="1" stop-color="#3B82F6" stop-opacity="0"/>
</linearGradient>
<linearGradient id="paint16_linear_2241_12957" x1="962.051" y1="621.076" x2="962.051" y2="994.563" gradientUnits="userSpaceOnUse">
<stop stop-color="#3B82F6" stop-opacity="0.2"/>
<stop offset="1" stop-color="#3B82F6" stop-opacity="0"/>
</linearGradient>
<linearGradient id="paint17_linear_2241_12957" x1="962.077" y1="602.647" x2="962.077" y2="968.718" gradientUnits="userSpaceOnUse">
<stop stop-color="#3B82F6" stop-opacity="0.2"/>
<stop offset="1" stop-color="#3B82F6" stop-opacity="0"/>
</linearGradient>
<linearGradient id="paint18_linear_2241_12957" x1="962.064" y1="584.525" x2="962.064" y2="946.442" gradientUnits="userSpaceOnUse">
<stop stop-color="#3B82F6" stop-opacity="0.2"/>
<stop offset="1" stop-color="#3B82F6" stop-opacity="0"/>
</linearGradient>
<linearGradient id="paint19_linear_2241_12957" x1="962.051" y1="564.068" x2="962.051" y2="926.652" gradientUnits="userSpaceOnUse">
<stop stop-color="#3B82F6" stop-opacity="0.2"/>
<stop offset="1" stop-color="#3B82F6" stop-opacity="0"/>
</linearGradient>
<linearGradient id="paint20_linear_2241_12957" x1="962.051" y1="543.196" x2="962.051" y2="910.626" gradientUnits="userSpaceOnUse">
<stop stop-color="#3B82F6" stop-opacity="0.2"/>
<stop offset="1" stop-color="#3B82F6" stop-opacity="0"/>
</linearGradient>
<linearGradient id="paint21_linear_2241_12957" x1="962.051" y1="520.938" x2="962.051" y2="896.007" gradientUnits="userSpaceOnUse">
<stop stop-color="#3B82F6" stop-opacity="0.2"/>
<stop offset="1" stop-color="#3B82F6" stop-opacity="0"/>
</linearGradient>
<linearGradient id="paint22_linear_2241_12957" x1="962.051" y1="495.793" x2="962.051" y2="881.063" gradientUnits="userSpaceOnUse">
<stop stop-color="#3B82F6" stop-opacity="0.2"/>
<stop offset="1" stop-color="#3B82F6" stop-opacity="0"/>
</linearGradient>
<linearGradient id="paint23_linear_2241_12957" x1="962.064" y1="468.894" x2="962.064" y2="863.386" gradientUnits="userSpaceOnUse">
<stop stop-color="#3B82F6" stop-opacity="0.2"/>
<stop offset="1" stop-color="#3B82F6" stop-opacity="0"/>
</linearGradient>
<linearGradient id="paint24_linear_2241_12957" x1="962.051" y1="443.284" x2="962.051" y2="839.644" gradientUnits="userSpaceOnUse">
<stop stop-color="#3B82F6" stop-opacity="0.2"/>
<stop offset="1" stop-color="#3B82F6" stop-opacity="0"/>
</linearGradient>
<linearGradient id="paint25_linear_2241_12957" x1="962.077" y1="417.77" x2="962.077" y2="808.705" gradientUnits="userSpaceOnUse">
<stop stop-color="#3B82F6" stop-opacity="0.2"/>
<stop offset="1" stop-color="#3B82F6" stop-opacity="0"/>
</linearGradient>
<linearGradient id="paint26_linear_2241_12957" x1="962.064" y1="385.456" x2="962.064" y2="767.516" gradientUnits="userSpaceOnUse">
<stop stop-color="#3B82F6" stop-opacity="0.2"/>
<stop offset="1" stop-color="#3B82F6" stop-opacity="0"/>
</linearGradient>
<linearGradient id="paint27_linear_2241_12957" x1="962.064" y1="348.891" x2="962.064" y2="712.749" gradientUnits="userSpaceOnUse">
<stop stop-color="#3B82F6" stop-opacity="0.2"/>
<stop offset="1" stop-color="#3B82F6" stop-opacity="0"/>
</linearGradient>
<linearGradient id="paint28_linear_2241_12957" x1="962.064" y1="331.996" x2="962.064" y2="685.703" gradientUnits="userSpaceOnUse">
<stop stop-color="#3B82F6" stop-opacity="0.2"/>
<stop offset="1" stop-color="#3B82F6" stop-opacity="0"/>
</linearGradient>
<linearGradient id="paint29_linear_2241_12957" x1="962.077" y1="319.492" x2="962.077" y2="656.225" gradientUnits="userSpaceOnUse">
<stop stop-color="#3B82F6" stop-opacity="0.2"/>
<stop offset="1" stop-color="#3B82F6" stop-opacity="0"/>
</linearGradient>
<linearGradient id="paint30_linear_2241_12957" x1="962.064" y1="310.468" x2="962.064" y2="626.291" gradientUnits="userSpaceOnUse">
<stop stop-color="#3B82F6" stop-opacity="0.2"/>
<stop offset="1" stop-color="#3B82F6" stop-opacity="0"/>
</linearGradient>
<linearGradient id="paint31_linear_2241_12957" x1="962.077" y1="303.696" x2="962.077" y2="604.522" gradientUnits="userSpaceOnUse">
<stop stop-color="#3B82F6" stop-opacity="0.2"/>
<stop offset="1" stop-color="#3B82F6" stop-opacity="0"/>
</linearGradient>
<linearGradient id="paint32_linear_2241_12957" x1="962.051" y1="304.221" x2="962.051" y2="586.632" gradientUnits="userSpaceOnUse">
<stop stop-color="#3B82F6" stop-opacity="0.2"/>
<stop offset="1" stop-color="#3B82F6" stop-opacity="0"/>
</linearGradient>
<linearGradient id="paint33_linear_2241_12957" x1="962.064" y1="298.015" x2="962.064" y2="572.085" gradientUnits="userSpaceOnUse">
<stop stop-color="#3B82F6" stop-opacity="0.2"/>
<stop offset="1" stop-color="#3B82F6" stop-opacity="0"/>
</linearGradient>
<linearGradient id="paint34_linear_2241_12957" x1="962.064" y1="290.109" x2="962.064" y2="566.873" gradientUnits="userSpaceOnUse">
<stop stop-color="#3B82F6" stop-opacity="0.2"/>
<stop offset="1" stop-color="#3B82F6" stop-opacity="0"/>
</linearGradient>
<linearGradient id="paint35_linear_2241_12957" x1="962.077" y1="279.28" x2="962.077" y2="558.088" gradientUnits="userSpaceOnUse">
<stop stop-color="#3B82F6" stop-opacity="0.2"/>
<stop offset="1" stop-color="#3B82F6" stop-opacity="0"/>
</linearGradient>
<linearGradient id="paint36_linear_2241_12957" x1="962.064" y1="264.507" x2="962.064" y2="549.394" gradientUnits="userSpaceOnUse">
<stop stop-color="#3B82F6" stop-opacity="0.2"/>
<stop offset="1" stop-color="#3B82F6" stop-opacity="0"/>
</linearGradient>
<linearGradient id="paint37_linear_2241_12957" x1="962.039" y1="230.752" x2="962.039" y2="540.338" gradientUnits="userSpaceOnUse">
<stop stop-color="#3B82F6" stop-opacity="0.2"/>
<stop offset="1" stop-color="#3B82F6" stop-opacity="0"/>
</linearGradient>
<linearGradient id="paint38_linear_2241_12957" x1="962.064" y1="192.17" x2="962.064" y2="529.744" gradientUnits="userSpaceOnUse">
<stop stop-color="#3B82F6" stop-opacity="0.2"/>
<stop offset="1" stop-color="#3B82F6" stop-opacity="0"/>
</linearGradient>
<linearGradient id="paint39_linear_2241_12957" x1="962.064" y1="154.294" x2="962.064" y2="517.295" gradientUnits="userSpaceOnUse">
<stop stop-color="#3B82F6" stop-opacity="0.2"/>
<stop offset="1" stop-color="#3B82F6" stop-opacity="0"/>
</linearGradient>
<linearGradient id="paint40_linear_2241_12957" x1="962.077" y1="118.254" x2="962.077" y2="500.815" gradientUnits="userSpaceOnUse">
<stop stop-color="#3B82F6" stop-opacity="0.2"/>
<stop offset="1" stop-color="#3B82F6" stop-opacity="0"/>
</linearGradient>
<linearGradient id="paint41_linear_2241_12957" x1="962.077" y1="84.6006" x2="962.077" y2="473.484" gradientUnits="userSpaceOnUse">
<stop stop-color="#3B82F6" stop-opacity="0.2"/>
<stop offset="1" stop-color="#3B82F6" stop-opacity="0"/>
</linearGradient>
<linearGradient id="paint42_linear_2241_12957" x1="962.064" y1="67.415" x2="962.064" y2="436.975" gradientUnits="userSpaceOnUse">
<stop stop-color="#3B82F6" stop-opacity="0.2"/>
<stop offset="1" stop-color="#3B82F6" stop-opacity="0"/>
</linearGradient>
<linearGradient id="paint43_linear_2241_12957" x1="962.064" y1="53.1221" x2="962.064" y2="399.624" gradientUnits="userSpaceOnUse">
<stop stop-color="#3B82F6" stop-opacity="0.2"/>
<stop offset="1" stop-color="#3B82F6" stop-opacity="0"/>
</linearGradient>
<linearGradient id="paint44_linear_2241_12957" x1="962.064" y1="39.7686" x2="962.064" y2="362.119" gradientUnits="userSpaceOnUse">
<stop stop-color="#3B82F6" stop-opacity="0.2"/>
<stop offset="1" stop-color="#3B82F6" stop-opacity="0"/>
</linearGradient>
<linearGradient id="paint45_linear_2241_12957" x1="962.051" y1="29.1152" x2="962.051" y2="324.513" gradientUnits="userSpaceOnUse">
<stop stop-color="#3B82F6" stop-opacity="0.2"/>
<stop offset="1" stop-color="#3B82F6" stop-opacity="0"/>
</linearGradient>
<linearGradient id="paint46_linear_2241_12957" x1="962.077" y1="20.2734" x2="962.077" y2="285.972" gradientUnits="userSpaceOnUse">
<stop stop-color="#3B82F6" stop-opacity="0.2"/>
<stop offset="1" stop-color="#3B82F6" stop-opacity="0"/>
</linearGradient>
<linearGradient id="paint47_linear_2241_12957" x1="962.051" y1="14.2764" x2="962.051" y2="247.652" gradientUnits="userSpaceOnUse">
<stop stop-color="#3B82F6" stop-opacity="0.2"/>
<stop offset="1" stop-color="#3B82F6" stop-opacity="0"/>
</linearGradient>
<linearGradient id="paint48_linear_2241_12957" x1="962.064" y1="9.27148" x2="962.064" y2="209.812" gradientUnits="userSpaceOnUse">
<stop stop-color="#3B82F6" stop-opacity="0.2"/>
<stop offset="1" stop-color="#3B82F6" stop-opacity="0"/>
</linearGradient>
<linearGradient id="paint49_linear_2241_12957" x1="962.064" y1="6.05566" x2="962.064" y2="167.94" gradientUnits="userSpaceOnUse">
<stop stop-color="#3B82F6" stop-opacity="0.2"/>
<stop offset="1" stop-color="#3B82F6" stop-opacity="0"/>
</linearGradient>
<linearGradient id="paint50_linear_2241_12957" x1="962.064" y1="3.97559" x2="962.064" y2="132.142" gradientUnits="userSpaceOnUse">
<stop stop-color="#3B82F6" stop-opacity="0.2"/>
<stop offset="1" stop-color="#3B82F6" stop-opacity="0"/>
</linearGradient>
<linearGradient id="paint51_linear_2241_12957" x1="962.064" y1="2.87793" x2="962.064" y2="97.4862" gradientUnits="userSpaceOnUse">
<stop stop-color="#3B82F6" stop-opacity="0.2"/>
<stop offset="1" stop-color="#3B82F6" stop-opacity="0"/>
</linearGradient>
<linearGradient id="paint52_linear_2241_12957" x1="962.064" y1="2.03711" x2="962.064" y2="64.0501" gradientUnits="userSpaceOnUse">
<stop stop-color="#3B82F6" stop-opacity="0.2"/>
<stop offset="1" stop-color="#3B82F6" stop-opacity="0"/>
</linearGradient>
<linearGradient id="paint53_linear_2241_12957" x1="962.064" y1="1.56543" x2="962.064" y2="31.6225" gradientUnits="userSpaceOnUse">
<stop stop-color="#3B82F6" stop-opacity="0.2"/>
<stop offset="1" stop-color="#3B82F6" stop-opacity="0"/>
</linearGradient>
<linearGradient id="paint54_linear_2241_12957" x1="962.064" y1="1.29492" x2="962.064" y2="3.43688" gradientUnits="userSpaceOnUse">
<stop stop-color="#3B82F6" stop-opacity="0.2"/>
<stop offset="1" stop-color="#3B82F6" stop-opacity="0"/>
</linearGradient>
<clipPath id="clip0_2241_12957">
<rect width="1924" height="1286" fill="white" transform="matrix(-1 0 0 1 1924 0)"/>
</clipPath>
</defs>
</svg>
