<svg width="17" height="16" viewBox="0 0 17 16" fill="none" xmlns="http://www.w3.org/2000/svg">
<g clip-path="url(#clip0_699_1349)">
<path d="M2.99168 4.72222H5.9399V14.2221H2.99168V4.72222ZM4.46587 0C5.40816 0 6.17395 0.767147 6.17395 1.7127C6.17395 2.6573 5.40816 3.42445 4.46587 3.42445C3.52138 3.42445 2.75781 2.6573 2.75781 1.7127C2.75781 0.767147 3.52138 0 4.46587 0Z" fill="black"/>
<path d="M7.78906 4.72255H10.6161V6.02157H10.6564C11.0499 5.27437 12.0116 4.4873 13.445 4.4873C16.4296 4.4873 16.9805 6.45424 16.9805 9.0121V14.2224H14.0344V9.60259C14.0344 8.50064 14.0153 7.08366 12.5029 7.08366C10.9691 7.08366 10.7351 8.28473 10.7351 9.52344V14.2224H7.78906V4.72255Z" fill="black"/>
</g>
<defs>
<clipPath id="clip0_699_1349">
<rect width="16" height="16" fill="white" transform="translate(0.980469)"/>
</clipPath>
</defs>
</svg>
