<svg width="22" height="22" viewBox="0 0 22 22" fill="none" xmlns="http://www.w3.org/2000/svg">
<g clip-path="url(#clip0_2835_2357)">
<mask id="mask0_2835_2357" style="mask-type:luminance" maskUnits="userSpaceOnUse" x="0" y="0" width="22" height="22">
<path d="M0 0H21.6V21.6H0V0Z" fill="white"/>
</mask>
<g mask="url(#mask0_2835_2357)">
<path d="M20.5267 0.0673828H0.93825C0.4023 0.0673828 0 0.469683 0 1.00563V20.7278C0 21.1308 0.4023 21.5331 0.938925 21.5331H20.6617C21.1984 21.5331 21.6007 21.1308 21.6007 20.5935V1.00631C21.4657 0.469683 21.0634 0.0673828 20.5267 0.0673828ZM6.30585 18.3126H3.21975V8.11743H6.4395V18.314L6.30585 18.3126ZM4.82962 6.77621C3.75637 6.77621 2.95177 5.83661 2.95177 4.89768C2.95177 3.82443 3.75637 3.01916 4.82962 3.01916C5.90287 3.01916 6.70815 3.82443 6.70815 4.89768C6.57382 5.83661 5.76922 6.77621 4.82962 6.77621ZM18.2459 18.3126H15.0262V13.3487C15.0262 12.1404 15.0262 10.6649 13.4163 10.6649C11.8064 10.6649 11.5378 12.0068 11.5378 13.3487V18.4463H8.31802V8.11676H11.4034V9.45866C11.8064 8.65338 12.8797 7.84878 14.3552 7.84878C17.575 7.84878 18.1116 9.99528 18.1116 12.6784V18.3133L18.2459 18.3126Z" fill="url(#paint0_linear_2835_2357)"/>
<path d="M20.5267 0.0673828H0.93825C0.4023 0.0673828 0 0.469683 0 1.00563V20.7278C0 21.1308 0.4023 21.5331 0.938925 21.5331H20.6617C21.1984 21.5331 21.6007 21.1308 21.6007 20.5935V1.00631C21.4657 0.469683 21.0634 0.0673828 20.5267 0.0673828ZM6.30585 18.3126H3.21975V8.11743H6.4395V18.314L6.30585 18.3126ZM4.82962 6.77621C3.75637 6.77621 2.95177 5.83661 2.95177 4.89768C2.95177 3.82443 3.75637 3.01916 4.82962 3.01916C5.90287 3.01916 6.70815 3.82443 6.70815 4.89768C6.57382 5.83661 5.76922 6.77621 4.82962 6.77621ZM18.2459 18.3126H15.0262V13.3487C15.0262 12.1404 15.0262 10.6649 13.4163 10.6649C11.8064 10.6649 11.5378 12.0068 11.5378 13.3487V18.4463H8.31802V8.11676H11.4034V9.45866C11.8064 8.65338 12.8797 7.84878 14.3552 7.84878C17.575 7.84878 18.1116 9.99528 18.1116 12.6784V18.3133L18.2459 18.3126Z" fill="url(#paint1_radial_2835_2357)" fill-opacity="0.4"/>
</g>
</g>
<defs>
<linearGradient id="paint0_linear_2835_2357" x1="10.8" y1="0.0673828" x2="10.8" y2="21.5331" gradientUnits="userSpaceOnUse">
<stop stop-color="#2884E0"/>
<stop offset="1" stop-color="#0A66C2" stop-opacity="0.6"/>
</linearGradient>
<radialGradient id="paint1_radial_2835_2357" cx="0" cy="0" r="1" gradientUnits="userSpaceOnUse" gradientTransform="translate(10.8 0.676233) rotate(90) scale(20.8568 21.6886)">
<stop stop-color="#539FEF"/>
<stop offset="1" stop-color="#539FEF" stop-opacity="0"/>
</radialGradient>
<clipPath id="clip0_2835_2357">
<rect width="21.6" height="21.6" fill="white"/>
</clipPath>
</defs>
</svg>
