<svg width="17" height="16" viewBox="0 0 17 16" fill="none" xmlns="http://www.w3.org/2000/svg">
<g clip-path="url(#clip0_699_1358)">
<path d="M16.7805 4.8C16.5805 3.5 15.9805 2.6 14.5805 2.4C12.3805 2 8.98047 2 8.98047 2C8.98047 2 5.58047 2 3.38047 2.4C1.98047 2.6 1.28047 3.5 1.18047 4.8C0.980469 6.1 0.980469 8 0.980469 8C0.980469 8 0.980469 9.9 1.18047 11.2C1.38047 12.5 1.98047 13.4 3.38047 13.6C5.58047 14 8.98047 14 8.98047 14C8.98047 14 12.3805 14 14.5805 13.6C15.9805 13.3 16.5805 12.5 16.7805 11.2C16.9805 9.9 16.9805 8 16.9805 8C16.9805 8 16.9805 6.1 16.7805 4.8ZM6.98047 11V5L11.9805 8L6.98047 11Z" fill="black"/>
</g>
<defs>
<clipPath id="clip0_699_1358">
<rect width="16" height="16" fill="white" transform="translate(0.980469)"/>
</clipPath>
</defs>
</svg>
