<svg width="48" height="48" viewBox="0 0 48 48" fill="none" xmlns="http://www.w3.org/2000/svg">
<rect x="0.5" y="0.5" width="47" height="47" rx="11.5" fill="#0DA2E7" fill-opacity="0.05"/>
<rect x="0.5" y="0.5" width="47" height="47" rx="11.5" stroke="url(#paint0_linear_2976_469)"/>
<path d="M24 19.8333V31.4999" stroke="url(#paint1_linear_2976_469)" stroke-width="1.66667" stroke-linecap="round" stroke-linejoin="round"/>
<path d="M16.5001 29C16.2791 29 16.0671 28.9122 15.9108 28.7559C15.7545 28.5996 15.6667 28.3877 15.6667 28.1667V17.3333C15.6667 17.1123 15.7545 16.9004 15.9108 16.7441C16.0671 16.5878 16.2791 16.5 16.5001 16.5H20.6667C21.5508 16.5 22.3986 16.8512 23.0238 17.4763C23.6489 18.1014 24.0001 18.9493 24.0001 19.8333C24.0001 18.9493 24.3513 18.1014 24.9764 17.4763C25.6015 16.8512 26.4494 16.5 27.3334 16.5H31.5001C31.7211 16.5 31.9331 16.5878 32.0893 16.7441C32.2456 16.9004 32.3334 17.1123 32.3334 17.3333V28.1667C32.3334 28.3877 32.2456 28.5996 32.0893 28.7559C31.9331 28.9122 31.7211 29 31.5001 29H26.5001C25.837 29 25.2012 29.2634 24.7323 29.7322C24.2635 30.2011 24.0001 30.837 24.0001 31.5C24.0001 30.837 23.7367 30.2011 23.2678 29.7322C22.799 29.2634 22.1631 29 21.5001 29H16.5001Z" stroke="url(#paint2_linear_2976_469)" stroke-width="1.66667" stroke-linecap="round" stroke-linejoin="round"/>
<defs>
<linearGradient id="paint0_linear_2976_469" x1="24" y1="0" x2="24" y2="48" gradientUnits="userSpaceOnUse">
<stop stop-color="#4DB5FF"/>
<stop offset="1" stop-color="#3E6AF8"/>
</linearGradient>
<linearGradient id="paint1_linear_2976_469" x1="24.5" y1="19.8333" x2="24.5" y2="31.4999" gradientUnits="userSpaceOnUse">
<stop stop-color="#4DB5FF"/>
<stop offset="1" stop-color="#3E6AF8"/>
</linearGradient>
<linearGradient id="paint2_linear_2976_469" x1="24.0001" y1="16.5" x2="24.0001" y2="31.5" gradientUnits="userSpaceOnUse">
<stop stop-color="#4DB5FF"/>
<stop offset="1" stop-color="#3E6AF8"/>
</linearGradient>
</defs>
</svg>
