<svg width="56" height="56" viewBox="0 0 56 56" fill="none" xmlns="http://www.w3.org/2000/svg">
<rect width="56" height="56" rx="16" fill="#0DA2E7" fill-opacity="0.05"/>
<rect x="0.5" y="0.5" width="55" height="55" rx="15.5" stroke="#0DA2E7" stroke-opacity="0.15"/>
<path d="M28 23.3333C33.799 23.3333 38.5 21.7662 38.5 19.8333C38.5 17.9003 33.799 16.3333 28 16.3333C22.201 16.3333 17.5 17.9003 17.5 19.8333C17.5 21.7662 22.201 23.3333 28 23.3333Z" stroke="#0DA2E7" stroke-width="2.33333" stroke-linecap="round" stroke-linejoin="round"/>
<path d="M17.5 19.8333V36.1666C17.5 37.0948 18.6062 37.9851 20.5754 38.6415C22.5445 39.2978 25.2152 39.6666 28 39.6666C30.7848 39.6666 33.4555 39.2978 35.4246 38.6415C37.3938 37.9851 38.5 37.0948 38.5 36.1666V19.8333" stroke="#0DA2E7" stroke-width="2.33333" stroke-linecap="round" stroke-linejoin="round"/>
<path d="M17.5 28C17.5 28.9283 18.6062 29.8185 20.5754 30.4749C22.5445 31.1313 25.2152 31.5 28 31.5C30.7848 31.5 33.4555 31.1313 35.4246 30.4749C37.3938 29.8185 38.5 28.9283 38.5 28" stroke="#0DA2E7" stroke-width="2.33333" stroke-linecap="round" stroke-linejoin="round"/>
</svg>
