<svg width="56" height="56" viewBox="0 0 56 56" fill="none" xmlns="http://www.w3.org/2000/svg">
<rect width="56" height="56" rx="16" fill="#0DA2E7" fill-opacity="0.05"/>
<rect x="0.5" y="0.5" width="55" height="55" rx="15.5" stroke="#0DA2E7" stroke-opacity="0.15"/>
<path d="M18.6666 30.3331C18.4458 30.3339 18.2294 30.272 18.0424 30.1546C17.8554 30.0372 17.7056 29.8692 17.6103 29.67C17.515 29.4709 17.4781 29.2488 17.504 29.0296C17.5299 28.8103 17.6175 28.6029 17.7566 28.4314L29.3066 16.5314C29.3933 16.4314 29.5113 16.3639 29.6414 16.3398C29.7715 16.3157 29.906 16.3366 30.0226 16.399C30.1393 16.4614 30.2313 16.5617 30.2835 16.6832C30.3357 16.8048 30.345 16.9405 30.3099 17.0681L28.07 24.0914C28.0039 24.2682 27.9817 24.4584 28.0053 24.6456C28.0289 24.8329 28.0976 25.0116 28.2054 25.1664C28.3132 25.3213 28.457 25.4477 28.6244 25.5348C28.7919 25.6219 28.9779 25.6671 29.1666 25.6664H37.3333C37.5541 25.6657 37.7705 25.7276 37.9575 25.845C38.1445 25.9623 38.2943 26.1304 38.3896 26.3295C38.4849 26.5287 38.5218 26.7508 38.4959 26.97C38.47 27.1893 38.3824 27.3967 38.2433 27.5681L26.6933 39.4681C26.6066 39.5681 26.4886 39.6357 26.3585 39.6598C26.2284 39.6838 26.0939 39.6629 25.9773 39.6005C25.8606 39.5381 25.7686 39.4379 25.7164 39.3163C25.6642 39.1947 25.6549 39.059 25.69 38.9314L27.9299 31.9081C27.996 31.7313 28.0182 31.5412 27.9946 31.3539C27.971 31.1667 27.9023 30.988 27.7945 30.8331C27.6867 30.6782 27.5429 30.5518 27.3755 30.4648C27.208 30.3777 27.022 30.3325 26.8333 30.3331H18.6666Z" stroke="#0DA2E7" stroke-width="2.33333" stroke-linecap="round" stroke-linejoin="round"/>
</svg>
