<svg width="56" height="56" viewBox="0 0 56 56" fill="none" xmlns="http://www.w3.org/2000/svg">
<rect width="56" height="56" rx="16" fill="#0DA2E7" fill-opacity="0.05"/>
<rect x="0.5" y="0.5" width="55" height="55" rx="15.5" stroke="#0DA2E7" stroke-opacity="0.15"/>
<path d="M16.4057 28.4059C16.3085 28.144 16.3085 27.8559 16.4057 27.5939C17.3527 25.2978 18.9601 23.3345 21.0243 21.953C23.0884 20.5715 25.5162 19.834 28 19.834C30.4838 19.834 32.9117 20.5715 34.9758 21.953C37.0399 23.3345 38.6474 25.2978 39.5944 27.5939C39.6916 27.8559 39.6916 28.144 39.5944 28.4059C38.6474 30.7021 37.0399 32.6654 34.9758 34.0469C32.9117 35.4284 30.4838 36.1659 28 36.1659C25.5162 36.1659 23.0884 35.4284 21.0243 34.0469C18.9601 32.6654 17.3527 30.7021 16.4057 28.4059Z" stroke="#0DA2E7" stroke-width="2.33333" stroke-linecap="round" stroke-linejoin="round"/>
<path d="M28 31.5C29.933 31.5 31.5 29.933 31.5 28C31.5 26.067 29.933 24.5 28 24.5C26.067 24.5 24.5 26.067 24.5 28C24.5 29.933 26.067 31.5 28 31.5Z" stroke="#0DA2E7" stroke-width="2.33333" stroke-linecap="round" stroke-linejoin="round"/>
</svg>
