<svg width="56" height="56" viewBox="0 0 56 56" fill="none" xmlns="http://www.w3.org/2000/svg">
<rect width="56" height="56" rx="16" fill="#0DA2E7" fill-opacity="0.05"/>
<rect x="0.5" y="0.5" width="55" height="55" rx="15.5" stroke="#0DA2E7" stroke-opacity="0.15"/>
<path d="M24.5 17.5H19.8333C18.5447 17.5 17.5 18.5447 17.5 19.8333V24.5C17.5 25.7887 18.5447 26.8333 19.8333 26.8333H24.5C25.7887 26.8333 26.8333 25.7887 26.8333 24.5V19.8333C26.8333 18.5447 25.7887 17.5 24.5 17.5Z" stroke="#0DA2E7" stroke-width="2.33333" stroke-linecap="round" stroke-linejoin="round"/>
<path d="M22.1667 26.8333V31.4999C22.1667 32.1188 22.4126 32.7122 22.8502 33.1498C23.2878 33.5874 23.8812 33.8333 24.5001 33.8333H29.1667" stroke="#0DA2E7" stroke-width="2.33333" stroke-linecap="round" stroke-linejoin="round"/>
<path d="M36.1667 29.1667H31.5001C30.2114 29.1667 29.1667 30.2114 29.1667 31.5001V36.1667C29.1667 37.4554 30.2114 38.5001 31.5001 38.5001H36.1667C37.4554 38.5001 38.5001 37.4554 38.5001 36.1667V31.5001C38.5001 30.2114 37.4554 29.1667 36.1667 29.1667Z" stroke="#0DA2E7" stroke-width="2.33333" stroke-linecap="round" stroke-linejoin="round"/>
</svg>
