<svg width="22" height="22" viewBox="0 0 22 22" fill="none" xmlns="http://www.w3.org/2000/svg">
<g clip-path="url(#clip0_2835_250)">
<path d="M9.74249 11.346L11.7912 9.29734C11.3304 9.00326 10.7841 8.83203 10.1982 8.83203C8.56072 8.83203 7.22852 10.1642 7.22852 11.8017C7.22852 13.4392 8.56072 14.7714 10.1982 14.7714C11.8357 14.7714 13.1679 13.4392 13.1679 11.8017C13.1679 11.2159 12.9967 10.6695 12.7026 10.2088L10.6539 12.2575L9.74249 11.346Z" fill="url(#paint0_linear_2835_250)"/>
<path d="M20.3965 11.8018C20.3965 10.0503 19.9491 8.33745 19.0996 6.82164L16.5602 7.1696C17.5099 8.47031 18.0713 10.0716 18.0713 11.8018C18.0713 16.143 14.5395 19.6748 10.1982 19.6748C5.85694 19.6748 2.32517 16.143 2.32517 11.8018C2.32517 7.46054 5.85703 3.92873 10.1982 3.92873C11.9284 3.92873 13.5297 4.49016 14.8304 5.43981L15.1784 2.90044C13.6626 2.05095 11.9497 1.60352 10.1982 1.60352C7.4742 1.60352 4.91318 2.66433 2.98702 4.59053C1.06081 6.51669 0 9.07771 0 11.8018C0 14.5258 1.06081 17.0868 2.98702 19.013C4.91318 20.9392 7.47416 22 10.1982 22C12.9223 22 15.4833 20.9392 17.4095 19.013C19.3357 17.0868 20.3965 14.5259 20.3965 11.8018Z" fill="url(#paint1_linear_2835_250)"/>
<path d="M10.1983 5.21778C6.56784 5.21778 3.61426 8.17132 3.61426 11.8018C3.61426 15.4323 6.5678 18.3858 10.1983 18.3858C13.8287 18.3858 16.7823 15.4323 16.7823 11.8018C16.7823 10.2182 16.2202 8.76348 15.2852 7.62639L13.6295 9.28211C14.1494 9.98817 14.4571 10.8597 14.4571 11.8018C14.4571 14.1501 12.5466 16.0606 10.1983 16.0606C7.85003 16.0606 5.93955 14.1501 5.93955 11.8018C5.93955 9.45351 7.85003 7.54304 10.1983 7.54304C11.1404 7.54304 12.0119 7.85073 12.718 8.37066L14.3737 6.71494C13.2366 5.77986 11.7819 5.21778 10.1983 5.21778ZM19.3492 0L16.4844 2.86477L16.0634 5.93661L19.1353 5.51564L22 2.65087L20.0663 1.93368L19.3492 0Z" fill="url(#paint2_linear_2835_250)"/>
</g>
<defs>
<linearGradient id="paint0_linear_2835_250" x1="10.1982" y1="8.83203" x2="10.1982" y2="14.7714" gradientUnits="userSpaceOnUse">
<stop stop-color="#50CEFA"/>
<stop offset="1" stop-color="#2F7A94"/>
</linearGradient>
<linearGradient id="paint1_linear_2835_250" x1="10.1982" y1="1.60352" x2="10.1982" y2="22" gradientUnits="userSpaceOnUse">
<stop stop-color="#50CEFA"/>
<stop offset="1" stop-color="#2F7A94"/>
</linearGradient>
<linearGradient id="paint2_linear_2835_250" x1="12.8071" y1="0" x2="12.8071" y2="18.3858" gradientUnits="userSpaceOnUse">
<stop stop-color="#50CEFA"/>
<stop offset="1" stop-color="#2F7A94"/>
</linearGradient>
<clipPath id="clip0_2835_250">
<rect width="22" height="22" fill="white"/>
</clipPath>
</defs>
</svg>
