<svg width="22" height="22" viewBox="0 0 22 22" fill="none" xmlns="http://www.w3.org/2000/svg">
<path d="M8.12313 8.70835H13.8768L11 3.67391L8.12313 8.70835ZM15.4936 8.70835H21.8759C21.853 8.6683 21.8271 8.63 21.7985 8.59377L18.2989 4.21932L15.4936 8.70835ZM14.6843 8.27374L17.5561 3.67895C17.51 3.67128 17.4634 3.66718 17.4166 3.66669H12.0516L14.6843 8.27374ZM7.92031 9.62502L11 21.9435L14.0796 9.62502H7.92031ZM15.0245 9.62502L12.1427 21.1521L21.7831 9.75897C21.8183 9.71721 21.8498 9.67238 21.8771 9.62502H15.0245ZM6.97546 9.62502H0.122803C0.150122 9.6723 0.181604 9.71705 0.216876 9.75874L9.85723 21.1521L6.97546 9.62502ZM7.31566 8.27374L9.94832 3.66669H4.5833C4.5366 3.66692 4.48997 3.67075 4.44386 3.67815L7.31566 8.27374ZM6.50636 8.70835L3.70101 4.21932L0.200834 8.59377C0.172252 8.63 0.146399 8.6683 0.12349 8.70835H6.50636Z" fill="url(#paint0_linear_2835_513)"/>
<defs>
<linearGradient id="paint0_linear_2835_513" x1="-0.896925" y1="0.331113" x2="17.6965" y2="31.9469" gradientUnits="userSpaceOnUse">
<stop stop-color="#70EDAE"/>
<stop offset="1" stop-color="#408763"/>
</linearGradient>
</defs>
</svg>
