<svg width="48" height="48" viewBox="0 0 48 48" fill="none" xmlns="http://www.w3.org/2000/svg">
<rect width="48" height="48" rx="16" fill="#0DA2E7" fill-opacity="0.05"/>
<rect x="0.5" y="0.5" width="47" height="47" rx="15.5" stroke="#0DA2E7" stroke-opacity="0.15"/>
<path d="M24.0008 16.9991C24.002 16.5991 23.9232 16.2029 23.769 15.8339C23.6148 15.4648 23.3884 15.1303 23.1031 14.85C22.8177 14.5697 22.4792 14.3493 22.1075 14.2018C21.7357 14.0543 21.3382 13.9826 20.9383 13.9909C20.5384 13.9992 20.1442 14.0874 19.7789 14.2503C19.4137 14.4132 19.0846 14.6476 18.8112 14.9395C18.5378 15.2314 18.3255 15.5751 18.1869 15.9502C18.0482 16.3254 17.986 16.7245 18.0038 17.1241C17.416 17.2752 16.8703 17.5581 16.408 17.9514C15.9458 18.3446 15.579 18.8379 15.3357 19.3939C15.0923 19.9499 14.9786 20.554 15.0032 21.1604C15.0278 21.7668 15.1901 22.3597 15.4778 22.8941C14.972 23.305 14.5742 23.8333 14.3191 24.433C14.0641 25.0327 13.9594 25.6857 14.0142 26.3351C14.069 26.9845 14.2816 27.6106 14.6336 28.1591C14.9856 28.7076 15.4663 29.1617 16.0338 29.4821C15.9637 30.0243 16.0055 30.5752 16.1567 31.1006C16.3078 31.626 16.5651 32.1149 16.9126 32.537C17.2601 32.9591 17.6904 33.3055 18.177 33.5548C18.6636 33.8041 19.1962 33.951 19.7418 33.9864C20.2874 34.0218 20.8344 33.945 21.3492 33.7607C21.8639 33.5764 22.3354 33.2885 22.7346 32.9148C23.1337 32.5412 23.452 32.0896 23.6698 31.5881C23.8876 31.0866 24.0002 30.5458 24.0008 29.9991V16.9991Z" stroke="#0DA2E7" stroke-width="2" stroke-linecap="round" stroke-linejoin="round"/>
<path d="M24 16.9991C23.9988 16.5991 24.0776 16.2029 24.2318 15.8339C24.386 15.4648 24.6124 15.1303 24.8977 14.85C25.1831 14.5697 25.5216 14.3493 25.8934 14.2018C26.2651 14.0543 26.6626 13.9826 27.0625 13.9909C27.4624 13.9992 27.8566 14.0874 28.2219 14.2503C28.5872 14.4132 28.9162 14.6476 29.1896 14.9395C29.463 15.2314 29.6753 15.5751 29.814 15.9502C29.9526 16.3254 30.0149 16.7245 29.997 17.1241C30.5848 17.2752 31.1305 17.5581 31.5928 17.9514C32.0551 18.3446 32.4218 18.8379 32.6652 19.3939C32.9086 19.9499 33.0223 20.554 32.9976 21.1604C32.973 21.7668 32.8107 22.3597 32.523 22.8941C33.0288 23.305 33.4266 23.8333 33.6817 24.433C33.9368 25.0327 34.0415 25.6857 33.9867 26.3351C33.9318 26.9845 33.7192 27.6106 33.3672 28.1591C33.0152 28.7076 32.5345 29.1617 31.967 29.4821C32.0371 30.0243 31.9953 30.5752 31.8441 31.1006C31.693 31.626 31.4357 32.1149 31.0882 32.537C30.7407 32.9591 30.3104 33.3055 29.8238 33.5548C29.3372 33.8041 28.8046 33.951 28.259 33.9864C27.7134 34.0218 27.1664 33.945 26.6516 33.7607C26.1369 33.5764 25.6654 33.2885 25.2663 32.9148C24.8671 32.5412 24.5488 32.0896 24.331 31.5881C24.1133 31.0866 24.0006 30.5458 24 29.9991V16.9991Z" stroke="#0DA2E7" stroke-width="2" stroke-linecap="round" stroke-linejoin="round"/>
<path d="M27 25C26.1604 24.7047 25.4273 24.167 24.8933 23.455C24.3593 22.743 24.0485 21.8887 24 21C23.9515 21.8887 23.6407 22.743 23.1067 23.455C22.5727 24.167 21.8396 24.7047 21 25" stroke="#0DA2E7" stroke-width="2" stroke-linecap="round" stroke-linejoin="round"/>
<path d="M29.5996 18.5C29.8416 18.0806 29.9785 17.6088 29.9986 17.125" stroke="#0DA2E7" stroke-width="2" stroke-linecap="round" stroke-linejoin="round"/>
<path d="M18.0039 17.125C18.0237 17.6087 18.1602 18.0805 18.4019 18.5" stroke="#0DA2E7" stroke-width="2" stroke-linecap="round" stroke-linejoin="round"/>
<path d="M15.4766 22.896C15.6595 22.747 15.8553 22.6145 16.0616 22.5" stroke="#0DA2E7" stroke-width="2" stroke-linecap="round" stroke-linejoin="round"/>
<path d="M31.9375 22.5C32.1438 22.6145 32.3396 22.747 32.5225 22.896" stroke="#0DA2E7" stroke-width="2" stroke-linecap="round" stroke-linejoin="round"/>
<path d="M18.0002 30.0004C17.311 30.0007 16.6335 29.823 16.0332 29.4844" stroke="#0DA2E7" stroke-width="2" stroke-linecap="round" stroke-linejoin="round"/>
<path d="M31.967 29.4844C31.3667 29.823 30.6892 30.0007 30 30.0004" stroke="#0DA2E7" stroke-width="2" stroke-linecap="round" stroke-linejoin="round"/>
</svg>
