<svg width="64" height="64" viewBox="0 0 64 64" fill="none" xmlns="http://www.w3.org/2000/svg">
<rect width="64" height="64" rx="16" fill="#0DA2E7" fill-opacity="0.05"/>
<rect x="0.5" y="0.5" width="63" height="63" rx="15.5" stroke="#0DA2E7" stroke-opacity="0.3"/>
<path d="M18.666 25.3327L24.546 19.4527C24.7941 19.2031 25.0891 19.0051 25.4141 18.8701C25.739 18.7351 26.0875 18.6657 26.4393 18.666H37.5593C37.9112 18.6657 38.2597 18.7351 38.5846 18.8701C38.9096 19.0051 39.2046 19.2031 39.4527 19.4527L45.3327 25.3327" stroke="#0DA2E7" stroke-width="2.66667" stroke-linecap="round" stroke-linejoin="round"/>
<path d="M21.334 32V42.6667C21.334 43.3739 21.6149 44.0522 22.115 44.5523C22.6151 45.0524 23.2934 45.3333 24.0007 45.3333H40.0007C40.7079 45.3333 41.3862 45.0524 41.8863 44.5523C42.3864 44.0522 42.6673 43.3739 42.6673 42.6667V32" stroke="#0DA2E7" stroke-width="2.66667" stroke-linecap="round" stroke-linejoin="round"/>
<path d="M36 45.334V40.0007C36 39.2934 35.719 38.6151 35.219 38.115C34.7189 37.6149 34.0406 37.334 33.3333 37.334H30.6667C29.9594 37.334 29.2811 37.6149 28.781 38.115C28.281 38.6151 28 39.2934 28 40.0007V45.334" stroke="#0DA2E7" stroke-width="2.66667" stroke-linecap="round" stroke-linejoin="round"/>
<path d="M18.666 25.334H45.3327" stroke="#0DA2E7" stroke-width="2.66667" stroke-linecap="round" stroke-linejoin="round"/>
<path d="M45.3327 25.334V29.334C45.3327 30.0412 45.0517 30.7195 44.5516 31.2196C44.0515 31.7197 43.3733 32.0007 42.666 32.0007C41.887 31.9578 41.143 31.663 40.546 31.1607C40.3869 31.0457 40.1956 30.9838 39.9993 30.9838C39.8031 30.9838 39.6118 31.0457 39.4527 31.1607C38.8557 31.663 38.1117 31.9578 37.3327 32.0007C36.5537 31.9578 35.8097 31.663 35.2127 31.1607C35.0536 31.0457 34.8623 30.9838 34.666 30.9838C34.4697 30.9838 34.2784 31.0457 34.1193 31.1607C33.5224 31.663 32.7784 31.9578 31.9993 32.0007C31.2203 31.9578 30.4763 31.663 29.8793 31.1607C29.7203 31.0457 29.529 30.9838 29.3327 30.9838C29.1364 30.9838 28.9451 31.0457 28.786 31.1607C28.189 31.663 27.445 31.9578 26.666 32.0007C25.887 31.9578 25.143 31.663 24.546 31.1607C24.3869 31.0457 24.1956 30.9838 23.9993 30.9838C23.8031 30.9838 23.6118 31.0457 23.4527 31.1607C22.8557 31.663 22.1117 31.9578 21.3327 32.0007C20.6254 32.0007 19.9472 31.7197 19.4471 31.2196C18.947 30.7195 18.666 30.0412 18.666 29.334V25.334" stroke="#0DA2E7" stroke-width="2.66667" stroke-linecap="round" stroke-linejoin="round"/>
</svg>
