<svg width="48" height="48" viewBox="0 0 48 48" fill="none" xmlns="http://www.w3.org/2000/svg">
<rect width="48" height="48" rx="16" fill="#0DA2E7" fill-opacity="0.05"/>
<rect x="0.5" y="0.5" width="47" height="47" rx="15.5" stroke="#0DA2E7" stroke-opacity="0.15"/>
<path d="M30 16H18C16.8954 16 16 16.8954 16 18V30C16 31.1046 16.8954 32 18 32H30C31.1046 32 32 31.1046 32 30V18C32 16.8954 31.1046 16 30 16Z" stroke="url(#paint0_linear_2975_14169)" stroke-width="2" stroke-linecap="round" stroke-linejoin="round"/>
<path d="M26 21H22C21.4477 21 21 21.4477 21 22V26C21 26.5523 21.4477 27 22 27H26C26.5523 27 27 26.5523 27 26V22C27 21.4477 26.5523 21 26 21Z" stroke="url(#paint1_linear_2975_14169)" stroke-width="2" stroke-linecap="round" stroke-linejoin="round"/>
<path d="M27 14V16" stroke="url(#paint2_linear_2975_14169)" stroke-width="2" stroke-linecap="round" stroke-linejoin="round"/>
<path d="M27 32V34" stroke="url(#paint3_linear_2975_14169)" stroke-width="2" stroke-linecap="round" stroke-linejoin="round"/>
<path d="M14 27H16" stroke="url(#paint4_linear_2975_14169)" stroke-width="2" stroke-linecap="round" stroke-linejoin="round"/>
<path d="M14 21H16" stroke="url(#paint5_linear_2975_14169)" stroke-width="2" stroke-linecap="round" stroke-linejoin="round"/>
<path d="M32 27H34" stroke="url(#paint6_linear_2975_14169)" stroke-width="2" stroke-linecap="round" stroke-linejoin="round"/>
<path d="M32 21H34" stroke="url(#paint7_linear_2975_14169)" stroke-width="2" stroke-linecap="round" stroke-linejoin="round"/>
<path d="M21 14V16" stroke="url(#paint8_linear_2975_14169)" stroke-width="2" stroke-linecap="round" stroke-linejoin="round"/>
<path d="M21 32V34" stroke="url(#paint9_linear_2975_14169)" stroke-width="2" stroke-linecap="round" stroke-linejoin="round"/>
<defs>
<linearGradient id="paint0_linear_2975_14169" x1="18.627" y1="8.34667" x2="37.8537" y2="14.9462" gradientUnits="userSpaceOnUse">
<stop stop-color="#0D66A5"/>
<stop offset="1" stop-color="#4DB5FF"/>
</linearGradient>
<linearGradient id="paint1_linear_2975_14169" x1="21.9851" y1="18.13" x2="29.1951" y2="20.6048" gradientUnits="userSpaceOnUse">
<stop stop-color="#0D66A5"/>
<stop offset="1" stop-color="#4DB5FF"/>
</linearGradient>
<linearGradient id="paint2_linear_2975_14169" x1="27.1642" y1="13.0433" x2="28.469" y2="13.2673" gradientUnits="userSpaceOnUse">
<stop stop-color="#0D66A5"/>
<stop offset="1" stop-color="#4DB5FF"/>
</linearGradient>
<linearGradient id="paint3_linear_2975_14169" x1="27.1642" y1="31.0433" x2="28.469" y2="31.2673" gradientUnits="userSpaceOnUse">
<stop stop-color="#0D66A5"/>
<stop offset="1" stop-color="#4DB5FF"/>
</linearGradient>
<linearGradient id="paint4_linear_2975_14169" x1="14.3284" y1="26.5217" x2="16.1543" y2="27.7752" gradientUnits="userSpaceOnUse">
<stop stop-color="#0D66A5"/>
<stop offset="1" stop-color="#4DB5FF"/>
</linearGradient>
<linearGradient id="paint5_linear_2975_14169" x1="14.3284" y1="20.5217" x2="16.1543" y2="21.7752" gradientUnits="userSpaceOnUse">
<stop stop-color="#0D66A5"/>
<stop offset="1" stop-color="#4DB5FF"/>
</linearGradient>
<linearGradient id="paint6_linear_2975_14169" x1="32.3284" y1="26.5217" x2="34.1543" y2="27.7752" gradientUnits="userSpaceOnUse">
<stop stop-color="#0D66A5"/>
<stop offset="1" stop-color="#4DB5FF"/>
</linearGradient>
<linearGradient id="paint7_linear_2975_14169" x1="32.3284" y1="20.5217" x2="34.1543" y2="21.7752" gradientUnits="userSpaceOnUse">
<stop stop-color="#0D66A5"/>
<stop offset="1" stop-color="#4DB5FF"/>
</linearGradient>
<linearGradient id="paint8_linear_2975_14169" x1="21.1642" y1="13.0433" x2="22.469" y2="13.2673" gradientUnits="userSpaceOnUse">
<stop stop-color="#0D66A5"/>
<stop offset="1" stop-color="#4DB5FF"/>
</linearGradient>
<linearGradient id="paint9_linear_2975_14169" x1="21.1642" y1="31.0433" x2="22.469" y2="31.2673" gradientUnits="userSpaceOnUse">
<stop stop-color="#0D66A5"/>
<stop offset="1" stop-color="#4DB5FF"/>
</linearGradient>
</defs>
</svg>
