<svg width="48" height="48" viewBox="0 0 48 48" fill="none" xmlns="http://www.w3.org/2000/svg">
<rect width="48" height="48" rx="16" fill="#0DA2E7" fill-opacity="0.05"/>
<rect x="0.5" y="0.5" width="47" height="47" rx="15.5" stroke="#0DA2E7" stroke-opacity="0.15"/>
<path d="M18 15V27" stroke="url(#paint0_linear_2975_14088)" stroke-width="2" stroke-linecap="round" stroke-linejoin="round"/>
<path d="M30 21C31.6569 21 33 19.6569 33 18C33 16.3431 31.6569 15 30 15C28.3431 15 27 16.3431 27 18C27 19.6569 28.3431 21 30 21Z" stroke="url(#paint1_linear_2975_14088)" stroke-width="2" stroke-linecap="round" stroke-linejoin="round"/>
<path d="M18 33C19.6569 33 21 31.6569 21 30C21 28.3431 19.6569 27 18 27C16.3431 27 15 28.3431 15 30C15 31.6569 16.3431 33 18 33Z" stroke="url(#paint2_linear_2975_14088)" stroke-width="2" stroke-linecap="round" stroke-linejoin="round"/>
<path d="M30 21C30 23.3869 29.0518 25.6761 27.364 27.364C25.6761 29.0518 23.3869 30 21 30" stroke="url(#paint3_linear_2975_14088)" stroke-width="2" stroke-linecap="round" stroke-linejoin="round"/>
<defs>
<linearGradient id="paint0_linear_2975_14088" x1="18.5" y1="15" x2="18.5" y2="27" gradientUnits="userSpaceOnUse">
<stop stop-color="#4DB5FF"/>
<stop offset="1" stop-color="#3E6AF8"/>
</linearGradient>
<linearGradient id="paint1_linear_2975_14088" x1="30" y1="15" x2="30" y2="21" gradientUnits="userSpaceOnUse">
<stop stop-color="#4DB5FF"/>
<stop offset="1" stop-color="#3E6AF8"/>
</linearGradient>
<linearGradient id="paint2_linear_2975_14088" x1="18" y1="27" x2="18" y2="33" gradientUnits="userSpaceOnUse">
<stop stop-color="#4DB5FF"/>
<stop offset="1" stop-color="#3E6AF8"/>
</linearGradient>
<linearGradient id="paint3_linear_2975_14088" x1="25.5" y1="21" x2="25.5" y2="30" gradientUnits="userSpaceOnUse">
<stop stop-color="#4DB5FF"/>
<stop offset="1" stop-color="#3E6AF8"/>
</linearGradient>
</defs>
</svg>
