<svg width="48" height="48" viewBox="0 0 48 48" fill="none" xmlns="http://www.w3.org/2000/svg">
<rect width="48" height="48" rx="16" fill="#0DA2E7" fill-opacity="0.05"/>
<rect x="0.5" y="0.5" width="47" height="47" rx="15.5" stroke="#0DA2E7" stroke-opacity="0.15"/>
<path d="M21 15H17C15.8954 15 15 15.8954 15 17V21C15 22.1046 15.8954 23 17 23H21C22.1046 23 23 22.1046 23 21V17C23 15.8954 22.1046 15 21 15Z" stroke="url(#paint0_linear_2975_14141)" stroke-width="2" stroke-linecap="round" stroke-linejoin="round"/>
<path d="M19 23V27C19 27.5304 19.2107 28.0391 19.5858 28.4142C19.9609 28.7893 20.4696 29 21 29H25" stroke="url(#paint1_linear_2975_14141)" stroke-width="2" stroke-linecap="round" stroke-linejoin="round"/>
<path d="M31 25H27C25.8954 25 25 25.8954 25 27V31C25 32.1046 25.8954 33 27 33H31C32.1046 33 33 32.1046 33 31V27C33 25.8954 32.1046 25 31 25Z" stroke="url(#paint2_linear_2975_14141)" stroke-width="2" stroke-linecap="round" stroke-linejoin="round"/>
<defs>
<linearGradient id="paint0_linear_2975_14141" x1="16.3135" y1="11.1733" x2="25.9269" y2="14.4731" gradientUnits="userSpaceOnUse">
<stop stop-color="#0D66A5"/>
<stop offset="1" stop-color="#4DB5FF"/>
</linearGradient>
<linearGradient id="paint1_linear_2975_14141" x1="19.9851" y1="20.13" x2="27.1951" y2="22.6048" gradientUnits="userSpaceOnUse">
<stop stop-color="#0D66A5"/>
<stop offset="1" stop-color="#4DB5FF"/>
</linearGradient>
<linearGradient id="paint2_linear_2975_14141" x1="26.3135" y1="21.1733" x2="35.9269" y2="24.4731" gradientUnits="userSpaceOnUse">
<stop stop-color="#0D66A5"/>
<stop offset="1" stop-color="#4DB5FF"/>
</linearGradient>
</defs>
</svg>
