<svg width="24" height="24" viewBox="0 0 24 24" fill="none" xmlns="http://www.w3.org/2000/svg">
<path d="M12.0008 5.35223C12.0019 4.97236 11.9271 4.59611 11.7806 4.2456C11.6342 3.89508 11.4192 3.57739 11.1482 3.3112C10.8772 3.045 10.5557 2.83569 10.2026 2.69556C9.84954 2.55544 9.47201 2.48733 9.09223 2.49525C8.71244 2.50316 8.33808 2.58694 7.99115 2.74166C7.64422 2.89638 7.33173 3.1189 7.07205 3.39616C6.81238 3.67341 6.61078 3.99979 6.47909 4.3561C6.3474 4.71241 6.28829 5.09145 6.30524 5.47094C5.74698 5.61448 5.22872 5.88317 4.78968 6.25667C4.35065 6.63016 4.00236 7.09867 3.7712 7.62669C3.54004 8.15472 3.43206 8.72843 3.45545 9.30437C3.47885 9.8803 3.63299 10.4434 3.90621 10.9509C3.42581 11.3412 3.04805 11.8429 2.80579 12.4125C2.56352 12.982 2.46409 13.6022 2.51614 14.2189C2.5682 14.8357 2.77015 15.4304 3.10445 15.9513C3.43874 16.4722 3.89525 16.9035 4.43426 17.2078C4.3677 17.7227 4.40742 18.2459 4.55097 18.7449C4.69452 19.244 4.93885 19.7083 5.26887 20.1092C5.59889 20.5101 6.0076 20.839 6.46975 21.0758C6.9319 21.3126 7.43768 21.4521 7.95585 21.4857C8.47403 21.5193 8.99359 21.4463 9.48247 21.2713C9.97134 21.0963 10.4191 20.8228 10.7982 20.468C11.1773 20.1131 11.4796 19.6842 11.6864 19.208C11.8932 18.7317 12.0002 18.218 12.0008 17.6988V5.35223Z" stroke="#6B26D9" stroke-width="2.37434" stroke-linecap="round" stroke-linejoin="round"/>
<path d="M12.0017 5.35223C12.0006 4.97236 12.0755 4.59611 12.2219 4.2456C12.3683 3.89508 12.5833 3.57739 12.8543 3.3112C13.1253 3.045 13.4468 2.83569 13.7999 2.69556C14.153 2.55544 14.5305 2.48733 14.9103 2.49525C15.2901 2.50316 15.6644 2.58694 16.0114 2.74166C16.3583 2.89638 16.6708 3.1189 16.9305 3.39616C17.1901 3.67341 17.3917 3.99979 17.5234 4.3561C17.6551 4.71241 17.7142 5.09145 17.6973 5.47094C18.2555 5.61448 18.7738 5.88317 19.2128 6.25667C19.6519 6.63016 20.0002 7.09867 20.2313 7.62669C20.4625 8.15472 20.5705 8.72843 20.5471 9.30437C20.5237 9.8803 20.3695 10.4434 20.0963 10.9509C20.5767 11.3412 20.9545 11.8429 21.1967 12.4125C21.439 12.982 21.5384 13.6022 21.4864 14.2189C21.4343 14.8357 21.2324 15.4304 20.8981 15.9513C20.5638 16.4722 20.1073 16.9035 19.5683 17.2078C19.6348 17.7227 19.5951 18.2459 19.4515 18.7449C19.308 19.244 19.0637 19.7083 18.7336 20.1092C18.4036 20.5101 17.9949 20.839 17.5328 21.0758C17.0706 21.3126 16.5648 21.4521 16.0467 21.4857C15.5285 21.5193 15.0089 21.4463 14.52 21.2713C14.0312 21.0963 13.5834 20.8228 13.2043 20.468C12.8252 20.1131 12.523 19.6842 12.3161 19.208C12.1093 18.7317 12.0023 18.218 12.0017 17.6988V5.35223Z" stroke="#6B26D9" stroke-width="2.37434" stroke-linecap="round" stroke-linejoin="round"/>
<path d="M14.8515 12.9498C14.0541 12.6693 13.3579 12.1587 12.8507 11.4825C12.3435 10.8063 12.0483 9.99488 12.0023 9.15088C11.9563 9.99488 11.661 10.8063 11.1539 11.4825C10.6467 12.1587 9.95043 12.6693 9.15308 12.9498" stroke="#6B26D9" stroke-width="2.37434" stroke-linecap="round" stroke-linejoin="round"/>
<path d="M17.3181 6.77659C17.548 6.37826 17.678 5.9302 17.6971 5.4707" stroke="#6B26D9" stroke-width="2.37434" stroke-linecap="round" stroke-linejoin="round"/>
<path d="M6.3064 5.4707C6.32518 5.93012 6.45487 6.37817 6.68439 6.77659" stroke="#6B26D9" stroke-width="2.37434" stroke-linecap="round" stroke-linejoin="round"/>
<path d="M3.90601 10.9518C4.07975 10.8103 4.26567 10.6844 4.4616 10.5757" stroke="#6B26D9" stroke-width="2.37434" stroke-linecap="round" stroke-linejoin="round"/>
<path d="M19.5417 10.5757C19.7377 10.6844 19.9236 10.8103 20.0973 10.9518" stroke="#6B26D9" stroke-width="2.37434" stroke-linecap="round" stroke-linejoin="round"/>
<path d="M6.30245 17.6986C5.64792 17.6989 5.00442 17.5301 4.43433 17.2085" stroke="#6B26D9" stroke-width="2.37434" stroke-linecap="round" stroke-linejoin="round"/>
<path d="M19.5671 17.2085C18.997 17.5301 18.3535 17.6989 17.699 17.6986" stroke="#6B26D9" stroke-width="2.37434" stroke-linecap="round" stroke-linejoin="round"/>
</svg>
