<svg width="20" height="20" viewBox="0 0 20 20" fill="none" xmlns="http://www.w3.org/2000/svg">
<path d="M2.08789 6.04316L5.57816 2.55289C5.72542 2.40476 5.90053 2.28723 6.09342 2.20709C6.2863 2.12695 6.49314 2.08577 6.70202 2.08594H13.3027C13.5115 2.08577 13.7184 2.12695 13.9113 2.20709C14.1041 2.28723 14.2793 2.40476 14.4265 2.55289L17.9168 6.04316" stroke="#E5A734" stroke-width="1.97861" stroke-linecap="round" stroke-linejoin="round"/>
<path d="M3.6709 10.0005V16.332C3.6709 16.7519 3.83767 17.1545 4.13452 17.4513C4.43137 17.7482 4.83398 17.9149 5.25379 17.9149H14.7511C15.1709 17.9149 15.5736 17.7482 15.8704 17.4513C16.1673 17.1545 16.334 16.7519 16.334 16.332V10.0005" stroke="#E5A734" stroke-width="1.97861" stroke-linecap="round" stroke-linejoin="round"/>
<path d="M12.3766 17.9147V14.7489C12.3766 14.3291 12.2098 13.9265 11.913 13.6296C11.6161 13.3328 11.2135 13.166 10.7937 13.166H9.21082C8.79101 13.166 8.3884 13.3328 8.09155 13.6296C7.7947 13.9265 7.62793 14.3291 7.62793 14.7489V17.9147" stroke="#E5A734" stroke-width="1.97861" stroke-linecap="round" stroke-linejoin="round"/>
<path d="M2.08789 6.04297H17.9168" stroke="#E5A734" stroke-width="1.97861" stroke-linecap="round" stroke-linejoin="round"/>
<path d="M17.9168 6.04297V8.4173C17.9168 8.83711 17.75 9.23973 17.4532 9.53658C17.1563 9.83343 16.7537 10.0002 16.3339 10.0002C15.8715 9.97474 15.4299 9.79976 15.0755 9.50158C14.9811 9.43334 14.8675 9.39661 14.751 9.39661C14.6345 9.39661 14.521 9.43334 14.4265 9.50158C14.0722 9.79976 13.6305 9.97474 13.1681 10.0002C12.7057 9.97474 12.2641 9.79976 11.9097 9.50158C11.8153 9.43334 11.7017 9.39661 11.5852 9.39661C11.4687 9.39661 11.3552 9.43334 11.2607 9.50158C10.9064 9.79976 10.4648 9.97474 10.0023 10.0002C9.53993 9.97474 9.0983 9.79976 8.74394 9.50158C8.64951 9.43334 8.53596 9.39661 8.41945 9.39661C8.30294 9.39661 8.18939 9.43334 8.09496 9.50158C7.74061 9.79976 7.29897 9.97474 6.83656 10.0002C6.37415 9.97474 5.93252 9.79976 5.57816 9.50158C5.48373 9.43334 5.37018 9.39661 5.25367 9.39661C5.13716 9.39661 5.02361 9.43334 4.92918 9.50158C4.57482 9.79976 4.13319 9.97474 3.67078 10.0002C3.25097 10.0002 2.84836 9.83343 2.55151 9.53658C2.25466 9.23973 2.08789 8.83711 2.08789 8.4173V6.04297" stroke="#E5A734" stroke-width="1.97861" stroke-linecap="round" stroke-linejoin="round"/>
</svg>
