<svg width="19" height="19" viewBox="0 0 19 19" fill="none" xmlns="http://www.w3.org/2000/svg">
<path d="M1.95557 8.72407C1.95557 8.89824 2.09807 9.04074 2.27223 9.04074H2.47173V16.7832C2.47173 16.9606 2.61107 17.0999 2.7884 17.0999H4.81507C4.9449 17.0999 5.06207 17.0207 5.10957 16.9004L5.4389 16.0676H13.5709L13.9002 16.9004C13.9477 17.0207 14.0649 17.0999 14.1947 17.0999H16.2246C16.4019 17.0999 16.5412 16.9606 16.5412 16.7832V9.04074H16.7407C16.9149 9.04074 17.0574 8.89824 17.0574 8.72407C17.0574 8.5499 16.9149 8.4074 16.7407 8.4074H2.27223C2.09807 8.4074 1.95557 8.5499 1.95557 8.72407ZM14.3211 5.53524L14.6758 7.3624H15.1574C15.8572 7.3624 16.4241 6.7924 16.4241 6.09574V3.16657C16.4241 2.4699 15.8572 1.8999 15.1574 1.8999H10.5816C9.8849 1.8999 9.3149 2.4699 9.3149 3.16657V6.09574C9.3149 6.7924 9.8849 7.3624 10.5816 7.3624H11.0626L11.4173 5.53524C11.4575 5.33038 11.5676 5.14583 11.7287 5.01302C11.8898 4.88022 12.092 4.80737 12.3008 4.8069H13.4347C13.8686 4.8069 14.2391 5.11407 14.3211 5.53524Z" fill="#16A249"/>
<path d="M13.4346 5.44041H12.301C12.1743 5.44041 12.0635 5.52908 12.0413 5.65575L11.6296 7.77425H14.1091L13.6975 5.65575C13.6859 5.59472 13.6532 5.53972 13.6051 5.50035C13.5571 5.46099 13.4967 5.43977 13.4346 5.44041ZM7.79795 3.75891C7.79795 2.83741 7.04745 2.08691 6.12595 2.08691C5.20445 2.08691 4.45395 2.83741 4.45395 3.75891C4.45395 4.68041 5.20445 5.43091 6.12595 5.43091C7.04745 5.43091 7.79795 4.68041 7.79795 3.75891ZM3.41528 7.77425H8.83662C8.39962 6.70075 7.34195 5.95025 6.12595 5.95025C4.90995 5.95025 3.85228 6.70075 3.41528 7.77425Z" fill="#16A249"/>
</svg>
