<svg width="20" height="19" viewBox="0 0 20 19" fill="none" xmlns="http://www.w3.org/2000/svg">
<path d="M10.0993 6.33461C14.0333 6.33461 17.2223 5.27158 17.2223 3.96027C17.2223 2.64896 14.0333 1.58594 10.0993 1.58594C6.1654 1.58594 2.97632 2.64896 2.97632 3.96027C2.97632 5.27158 6.1654 6.33461 10.0993 6.33461Z" stroke="#62D3F9" stroke-width="1.97861" stroke-linecap="round" stroke-linejoin="round"/>
<path d="M2.97632 3.96045V15.0407C2.97632 15.6704 3.72678 16.2743 5.0626 16.7196C6.39842 17.1649 8.21019 17.415 10.0993 17.415C11.9885 17.415 13.8002 17.1649 15.136 16.7196C16.4719 16.2743 17.2223 15.6704 17.2223 15.0407V3.96045" stroke="#62D3F9" stroke-width="1.97861" stroke-linecap="round" stroke-linejoin="round"/>
<path d="M2.97632 9.50049C2.97632 10.1302 3.72678 10.7341 5.0626 11.1794C6.39842 11.6247 8.21019 11.8748 10.0993 11.8748C11.9885 11.8748 13.8002 11.6247 15.136 11.1794C16.4719 10.7341 17.2223 10.1302 17.2223 9.50049" stroke="#62D3F9" stroke-width="1.97861" stroke-linecap="round" stroke-linejoin="round"/>
</svg>
