<svg width="22" height="22" viewBox="0 0 22 22" fill="none" xmlns="http://www.w3.org/2000/svg">
<g clip-path="url(#clip0_1414_2159)">
<path d="M11.0004 6.39604C15.1641 6.39604 19.3795 5.28884 19.3795 3.17332C19.3795 -1.05777 2.62134 -1.05777 2.62134 3.17332C2.62134 5.28884 6.8367 6.39604 11.0004 6.39604ZM19.3537 15.2065C19.3625 15.2025 19.3707 15.1978 19.3795 15.1938V11.3691C14.487 13.3494 7.86225 13.4985 2.62134 11.3757V15.1807C2.63015 15.1846 2.63835 15.1898 2.64716 15.1936C7.66696 17.4286 14.5129 17.3261 19.3537 15.2065Z" fill="url(#paint0_linear_1414_2159)"/>
<path d="M11.0004 22C15.1641 22 19.3795 20.8928 19.3795 18.7772V16.5564C14.0153 18.7236 7.49276 18.5467 2.62134 16.575V18.7772C2.62134 20.8928 6.8367 22 11.0004 22ZM19.3537 9.96847C19.3624 9.96499 19.3707 9.96034 19.3795 9.95691V5.64624C17.5565 7.1121 14.1 7.68506 11.0004 7.68506C7.90084 7.68506 4.44428 7.1121 2.62134 5.64624V9.98131C2.63015 9.98518 2.63835 9.99038 2.64716 9.9942C7.53813 12.1844 14.4946 12.1805 19.3537 9.96847Z" fill="url(#paint1_linear_1414_2159)"/>
</g>
<defs>
<linearGradient id="paint0_linear_1414_2159" x1="11.0004" y1="0" x2="11.0004" y2="16.8332" gradientUnits="userSpaceOnUse">
<stop stop-color="#DF8DFB"/>
<stop offset="1" stop-color="#845495"/>
</linearGradient>
<linearGradient id="paint1_linear_1414_2159" x1="11.0004" y1="5.64624" x2="11.0004" y2="22" gradientUnits="userSpaceOnUse">
<stop stop-color="#DF8DFB"/>
<stop offset="1" stop-color="#845495"/>
</linearGradient>
<clipPath id="clip0_1414_2159">
<rect width="22" height="22" fill="white" transform="translate(0.000488281)"/>
</clipPath>
</defs>
</svg>
