<svg width="22" height="23" viewBox="0 0 22 23" fill="none" xmlns="http://www.w3.org/2000/svg">
<path d="M9.14002 5.86227L9.69208 7.39539C9.995 8.23587 10.4796 8.99917 11.1113 9.6309C11.743 10.2626 12.5064 10.7472 13.3468 11.0501L14.88 11.6022C14.9102 11.6133 14.9364 11.6334 14.9548 11.6599C14.9733 11.6863 14.9832 11.7178 14.9832 11.75C14.9832 11.7823 14.9733 11.8137 14.9548 11.8402C14.9364 11.8666 14.9102 11.8867 14.88 11.8978L13.3468 12.4499C12.5064 12.7528 11.743 13.2374 11.1113 13.8691C10.4796 14.5009 9.995 15.2642 9.69208 16.1046L9.14002 17.6378C9.12892 17.668 9.10879 17.6942 9.08235 17.7126C9.05592 17.7311 9.02445 17.741 8.99221 17.741C8.95996 17.741 8.92849 17.7311 8.90206 17.7126C8.87562 17.6942 8.85549 17.668 8.84439 17.6378L8.29233 16.1046C7.98941 15.2642 7.50482 14.5009 6.87309 13.8691C6.24136 13.2374 5.47806 12.7528 4.63758 12.4499L3.10445 11.8978C3.07418 11.8867 3.04805 11.8666 3.02958 11.8402C3.01112 11.8137 3.00122 11.7823 3.00122 11.75C3.00122 11.7178 3.01112 11.6863 3.02958 11.6599C3.04805 11.6334 3.07418 11.6133 3.10445 11.6022L4.63758 11.0501C5.47806 10.7472 6.24136 10.2626 6.87309 9.6309C7.50482 8.99917 7.98941 8.23587 8.29233 7.39539L8.84439 5.86227C8.85519 5.83169 8.8752 5.80521 8.90167 5.78648C8.92814 5.76775 8.95978 5.75769 8.99221 5.75769C9.02463 5.75769 9.05626 5.76775 9.08274 5.78648C9.10921 5.80521 9.12922 5.83169 9.14002 5.86227ZM16.0411 2.17795L16.321 2.95414C16.4745 3.37968 16.7199 3.76615 17.0398 4.08604C17.3597 4.40593 17.7462 4.65137 18.1717 4.80489L18.9479 5.0847C18.9633 5.0903 18.9766 5.1005 18.9859 5.1139C18.9953 5.12731 19.0004 5.14328 19.0004 5.15964C19.0004 5.17601 18.9953 5.19198 18.9859 5.20538C18.9766 5.21879 18.9633 5.22898 18.9479 5.23458L18.1717 5.51439C17.7462 5.66791 17.3597 5.91335 17.0398 6.23324C16.7199 6.55313 16.4745 6.9396 16.321 7.36514L16.0411 8.14133C16.0355 8.15671 16.0253 8.16999 16.0119 8.17937C15.9985 8.18876 15.9826 8.19379 15.9662 8.19379C15.9498 8.19379 15.9339 8.18876 15.9205 8.17937C15.9071 8.16999 15.8969 8.15671 15.8913 8.14133L15.6115 7.36514C15.4579 6.9396 15.2125 6.55313 14.8926 6.23324C14.5727 5.91335 14.1862 5.66791 13.7607 5.51439L12.9845 5.23458C12.9691 5.22898 12.9559 5.21879 12.9465 5.20538C12.9371 5.19198 12.9321 5.17601 12.9321 5.15964C12.9321 5.14328 12.9371 5.12731 12.9465 5.1139C12.9559 5.1005 12.9691 5.0903 12.9845 5.0847L13.7607 4.80489C14.1862 4.65137 14.5727 4.40593 14.8926 4.08604C15.2125 3.76615 15.4579 3.37968 15.6115 2.95414L15.8913 2.17795C15.8969 2.16258 15.9071 2.14929 15.9205 2.13991C15.9339 2.13052 15.9498 2.12549 15.9662 2.12549C15.9826 2.12549 15.9985 2.13052 16.0119 2.13991C16.0253 2.14929 16.0355 2.16258 16.0411 2.17795ZM16.0411 15.3594L16.321 16.1356C16.4745 16.5611 16.7199 16.9476 17.0398 17.2675C17.3597 17.5874 17.7462 17.8328 18.1717 17.9863L18.9479 18.2661C18.9633 18.2717 18.9766 18.2819 18.9859 18.2953C18.9953 18.3087 19.0004 18.3247 19.0004 18.3411C19.0004 18.3574 18.9953 18.3734 18.9859 18.3868C18.9766 18.4002 18.9633 18.4104 18.9479 18.416L18.1717 18.6958C17.7462 18.8494 17.3597 19.0948 17.0398 19.4147C16.7199 19.7346 16.4745 20.121 16.321 20.5466L16.0411 21.3228C16.0355 21.3381 16.0253 21.3514 16.0119 21.3608C15.9985 21.3702 15.9826 21.3752 15.9662 21.3752C15.9498 21.3752 15.9339 21.3702 15.9205 21.3608C15.9071 21.3514 15.8969 21.3381 15.8913 21.3228L15.6115 20.5466C15.4579 20.121 15.2125 19.7346 14.8926 19.4147C14.5727 19.0948 14.1862 18.8494 13.7607 18.6958L12.9845 18.416C12.9691 18.4104 12.9559 18.4002 12.9465 18.3868C12.9371 18.3734 12.9321 18.3574 12.9321 18.3411C12.9321 18.3247 12.9371 18.3087 12.9465 18.2953C12.9559 18.2819 12.9691 18.2717 12.9845 18.2661L13.7607 17.9863C14.1862 17.8328 14.5727 17.5874 14.8926 17.2675C15.2125 16.9476 15.4579 16.5611 15.6115 16.1356L15.8913 15.3594C15.9167 15.2893 16.0164 15.2893 16.0411 15.3594Z" fill="url(#paint0_linear_1414_1167)"/>
<defs>
<linearGradient id="paint0_linear_1414_1167" x1="2.25127" y1="-1.38764" x2="24.3329" y2="24.8305" gradientUnits="userSpaceOnUse">
<stop stop-color="#70EDAE"/>
<stop offset="1" stop-color="#408763"/>
</linearGradient>
</defs>
</svg>
